<?xml version="1.0" encoding="UTF-8"?>

<svg xmlns="http://www.w3.org/2000/svg" version="1.1"
	width="594mm"
	height="420mm"
	viewBox="0 0 594 420">
	<!-- Working space 0 0 594 420 -->
	<defs>
		<radialGradient
			id="radialGradient3661"
			gradientUnits="userSpaceOnUse"
			cy="29.149"
			cx="282.65"
			gradientTransform="matrix(.14777 .23089 -.24680 .15795 -26.318 -62.617)"
			r="19.571">
				<stop stop-color="#71b2f8" offset="0"/>
				<stop stop-color="#002795" offset="1"/>
		</radialGradient>
		<radialGradient
			id="radialGradient3817"
			gradientUnits="userSpaceOnUse"
			cy="33.9"
			cx="270.58"
			gradientTransform="matrix(.26631 .065024 -.17931 .73438 -60.668 -36.938)"
			r="19.571">
				<stop stop-color="#ff6d0f" offset="0"/>
				<stop stop-color="#ff1000" offset="1"/>
		</radialGradient>
	</defs>
	<!-- Set display:none to hide FreeCAD Logo -->
	<g
		style="display:inline"
		id="freecad-logo"
		transform="translate(552, 380) scale(2)"
		fill-rule="evenodd"
		stroke-width=".45621">
		<path d="m0.22811 0.22835v13.256h2.9558v-5.1876h2.09v-2.0452h-2.09v-2.2075h5.1486v-3.8087l-8.1044-0.0075z"
			stroke="#370700"
			fill="url(#radialGradient3817)"/>
		<path d="m13.386 4.1792-1.7193 0.98645-0.75925-0.26348-0.72439-1.8513-1.1395 0.05988-0.51976 1.9144-0.72743 0.34835-1.8143-0.79367-0.76632 0.85156 0.98645 1.7193-0.26957 0.75702-1.8513 0.72439 0.065967 1.1417 1.9144 0.51976 0.34835 0.72743-0.79976 1.8121 0.85156 0.76632 1.7193-0.98645 0.76311 0.27179 0.7183 1.8491 1.1478-0.06375 0.51367-1.9166 0.72743-0.34835 1.8182 0.80198 0.76632-0.85156-0.98645-1.7193 0.2657-0.76533 1.8491-0.7183-0.05766-1.1456-1.9166-0.51367-0.34835-0.72743 0.7959-1.8204-0.85156-0.76632zm-2.5751 2.8195 0.35295 0.20478 0.30579 0.27725 0.24481 0.33087 0.17611 0.36787 0.10354 0.39656 0.01715 0.4064-0.0587 0.4063-0.13396 0.38571-0.2131 0.35681-0.26894 0.30192-0.33087 0.24481-0.36787 0.17611-0.39656 0.10354-0.40863 0.02325-0.4063-0.0587-0.38571-0.13396-0.35681-0.2131-0.2997-0.27503-0.24703-0.32478-0.17611-0.36787-0.10132-0.40264-0.02324-0.40863 0.05869-0.4063 0.13396-0.38571 0.21087-0.35072 0.27116-0.30801 0.33087-0.24481 0.36787-0.17611 0.40264-0.10132 0.40641-0.01715 0.4063 0.05869 0.38571 0.13396z" 
		stroke="#000137"
		fill="url(#radialGradient3661)"/>
	</g>
<g id="Ortho_0_0"
   transform="rotate(180,192,145.25) translate(192,145.25) scale(1,1)"
  >
<g   stroke="rgb(0, 0, 0)"
   stroke-width="0.35"
   stroke-linecap="butt"
   stroke-linejoin="miter"
   fill="none"
   transform="scale(1,-1)"
  >
<path id= "1" d=" M -14 0 L -14 17.7 " />
<path id= "2" d=" M -14 17.7 L 0 17.7 " />
<path id= "3" d=" M 0 17.7 L 0 118.1 " />
<path id= "4" d=" M 0 118.1 L -14 118.1 " />
<path id= "5" d=" M -14 118.1 L -14 129.5 " />
<path id= "6" d=" M -14 129.5 L -29 129.5 " />
<path id= "7" d=" M -29 129.5 L -29 116 " />
<path id= "8" d=" M -29 116 L -181 116 " />
<path id= "9" d=" M -181 116 L -181 129.5 " />
<path id= "10" d=" M -181 129.5 L -196 129.5 " />
<path id= "11" d=" M -196 129.5 L -196 118.1 " />
<path id= "12" d=" M -196 118.1 L -210 118.1 " />
<path id= "13" d=" M -210 118.1 L -210 17.7 " />
<path id= "14" d=" M -210 17.7 L -196 17.7 " />
<path id= "15" d=" M -196 17.7 L -196 0 " />
<path id= "16" d=" M -196 0 L -14 0 " />
<circle cx ="-166" cy ="25" r ="10" /><path id= "18" d=" M -98 90 L -112 90 " />
<path id= "19" d=" M -112 90 L -112 70 " />
<path id= "20" d=" M -112 70 L -98 70 " />
<path id= "21" d=" M -98 70 L -98 90 " />
<path id= "22" d=" M -116.5 30 L -124.5 30 " />
<path id= "23" d=" M -124.5 30 L -124.5 8 " />
<path id= "24" d=" M -124.5 8 L -116.5 8 " />
<path id= "25" d=" M -116.5 8 L -116.5 30 " />
<circle cx ="-105" cy ="19" r ="7" /><path id= "27" d=" M -129.5 15.5 L -138.5 15.5 " />
<path id= "28" d=" M -138.5 15.5 L -138.5 8.5 " />
<path id= "29" d=" M -138.5 8.5 L -129.5 8.5 " />
<path id= "30" d=" M -129.5 8.5 L -129.5 15.5 " />
<path id= "31" d=" M -138.5 29.5 L -129.5 29.5 " />
<path id= "32" d=" M -129.5 29.5 L -129.5 22.5 " />
<path id= "33" d=" M -129.5 22.5 L -138.5 22.5 " />
<path id= "34" d=" M -138.5 22.5 L -138.5 29.5 " />
<circle cx ="-188.5" cy ="35.5" r ="1.5" /><circle cx ="-187" cy ="11.3" r ="1.5" /><circle cx ="-187" cy ="26.7" r ="1.5" /><circle cx ="-202.4" cy ="26.7" r ="1.5" /><circle cx ="-153.5" cy ="10.6" r ="1.5" /><circle cx ="-173.5" cy ="10.6" r ="1.5" /><circle cx ="-140" cy ="45" r ="1.5" /><circle cx ="-170" cy ="50" r ="1.5" /><circle cx ="-199.4" cy ="35.7" r ="1.5" /><circle cx ="-10.6" cy ="35.7" r ="1.5" /><circle cx ="-7.6" cy ="26.7" r ="1.5" /><circle cx ="-23" cy ="26.7" r ="1.5" /><circle cx ="-23" cy ="11.3" r ="1.5" /><circle cx ="-199.4" cy ="87.7" r ="1.5" /><circle cx ="-140" cy ="100" r ="1.5" /><circle cx ="-170" cy ="75" r ="1.5" /><circle cx ="-201.7" cy ="108.1" r ="1.5" /><circle cx ="-201.7" cy ="98.1" r ="1.5" /><circle cx ="-188.5" cy ="124.5" r ="1.5" /><circle cx ="-21.5" cy ="35.5" r ="1.5" /><circle cx ="-40" cy ="50" r ="1.5" /><circle cx ="-170" cy ="105" r ="1.5" /><circle cx ="-60" cy ="45" r ="1.5" /><circle cx ="-60" cy ="100" r ="1.5" /><circle cx ="-40" cy ="105" r ="1.5" /><circle cx ="-40" cy ="75" r ="1.5" /><circle cx ="-73.5" cy ="45" r ="1.5" /><circle cx ="-8.3" cy ="98.1" r ="1.5" /><circle cx ="-8.3" cy ="108.1" r ="1.5" /><circle cx ="-105" cy ="50" r ="1.5" /><circle cx ="-21.5" cy ="124.5" r ="1.5" /><circle cx ="-10.6" cy ="87.7" r ="1.5" /><circle cx ="-105" cy ="105" r ="1.5" /><circle cx ="-135.5" cy ="32.5" r ="1" /><circle cx ="-127.5" cy ="32.5" r ="1" /><circle cx ="-119.5" cy ="32.5" r ="1" /><circle cx ="-111.5" cy ="32.5" r ="1" /><circle cx ="-111.5" cy ="5.5" r ="1" /><circle cx ="-119.5" cy ="5.5" r ="1" /><circle cx ="-127.5" cy ="5.5" r ="1" /><circle cx ="-135.5" cy ="5.5" r ="1" /></g>
</g>



</svg>

