<?xml version="1.0" encoding="UTF-8"?>

<svg xmlns="http://www.w3.org/2000/svg" version="1.1"
	width="594mm"
	height="420mm"
	viewBox="0 0 594 420">
	<!-- Working space 0 0 594 420 -->
	<defs>
		<radialGradient
			id="radialGradient3661"
			gradientUnits="userSpaceOnUse"
			cy="29.149"
			cx="282.65"
			gradientTransform="matrix(.14777 .23089 -.24680 .15795 -26.318 -62.617)"
			r="19.571">
				<stop stop-color="#71b2f8" offset="0"/>
				<stop stop-color="#002795" offset="1"/>
		</radialGradient>
		<radialGradient
			id="radialGradient3817"
			gradientUnits="userSpaceOnUse"
			cy="33.9"
			cx="270.58"
			gradientTransform="matrix(.26631 .065024 -.17931 .73438 -60.668 -36.938)"
			r="19.571">
				<stop stop-color="#ff6d0f" offset="0"/>
				<stop stop-color="#ff1000" offset="1"/>
		</radialGradient>
	</defs>
	<!-- Set display:none to hide FreeCAD Logo -->
	<g
		style="display:inline"
		id="freecad-logo"
		transform="translate(552, 380) scale(2)"
		fill-rule="evenodd"
		stroke-width=".45621">
		<path d="m0.22811 0.22835v13.256h2.9558v-5.1876h2.09v-2.0452h-2.09v-2.2075h5.1486v-3.8087l-8.1044-0.0075z"
			stroke="#370700"
			fill="url(#radialGradient3817)"/>
		<path d="m13.386 4.1792-1.7193 0.98645-0.75925-0.26348-0.72439-1.8513-1.1395 0.05988-0.51976 1.9144-0.72743 0.34835-1.8143-0.79367-0.76632 0.85156 0.98645 1.7193-0.26957 0.75702-1.8513 0.72439 0.065967 1.1417 1.9144 0.51976 0.34835 0.72743-0.79976 1.8121 0.85156 0.76632 1.7193-0.98645 0.76311 0.27179 0.7183 1.8491 1.1478-0.06375 0.51367-1.9166 0.72743-0.34835 1.8182 0.80198 0.76632-0.85156-0.98645-1.7193 0.2657-0.76533 1.8491-0.7183-0.05766-1.1456-1.9166-0.51367-0.34835-0.72743 0.7959-1.8204-0.85156-0.76632zm-2.5751 2.8195 0.35295 0.20478 0.30579 0.27725 0.24481 0.33087 0.17611 0.36787 0.10354 0.39656 0.01715 0.4064-0.0587 0.4063-0.13396 0.38571-0.2131 0.35681-0.26894 0.30192-0.33087 0.24481-0.36787 0.17611-0.39656 0.10354-0.40863 0.02325-0.4063-0.0587-0.38571-0.13396-0.35681-0.2131-0.2997-0.27503-0.24703-0.32478-0.17611-0.36787-0.10132-0.40264-0.02324-0.40863 0.05869-0.4063 0.13396-0.38571 0.21087-0.35072 0.27116-0.30801 0.33087-0.24481 0.36787-0.17611 0.40264-0.10132 0.40641-0.01715 0.4063 0.05869 0.38571 0.13396z" 
		stroke="#000137"
		fill="url(#radialGradient3661)"/>
	</g>
<g id="Ortho_0_0"
   transform="rotate(180,269,65) translate(269,65) scale(1,1)"
  >
<g   stroke="rgb(0, 0, 0)"
   stroke-width="0.35"
   stroke-linecap="butt"
   stroke-linejoin="miter"
   fill="none"
   transform="scale(1,-1)"
  >
<path id= "1" d=" M -3 0 L -26.45 0 " />
<path id= "2" d=" M -26.45 0 L -26.45 4 " />
<path id= "3" d=" M -26.45 4 L -25.25 4 " />
<path id= "4" d=" M -25.25 4 L -25.25 7 " />
<path id= "5" d=" M -25.25 7 L -26.45 7 " />
<path id= "6" d=" M -26.45 7 L -26.45 14 " />
<path id= "7" d=" M -26.45 14 L -29.55 14 " />
<path id= "8" d=" M -29.55 14 L -29.55 7 " />
<path id= "9" d=" M -29.55 7 L -30.75 7 " />
<path id= "10" d=" M -30.75 7 L -30.75 4 " />
<path id= "11" d=" M -30.75 4 L -29.55 4 " />
<path id= "12" d=" M -29.55 4 L -29.55 0 " />
<path id= "13" d=" M -29.55 0 L -53 0 " />
<path id= "14" d=" M -53 0 L -53 13.45 " />
<path id= "15" d=" M -53 13.45 L -49 13.45 " />
<path id= "16" d=" M -49 13.45 L -49 12.25 " />
<path id= "17" d=" M -49 12.25 L -46 12.25 " />
<path id= "18" d=" M -46 12.25 L -46 13.45 " />
<path id= "19" d=" M -46 13.45 L -39 13.45 " />
<path id= "20" d=" M -39 13.45 L -39 16.55 " />
<path id= "21" d=" M -39 16.55 L -46 16.55 " />
<path id= "22" d=" M -46 16.55 L -46 17.75 " />
<path id= "23" d=" M -46 17.75 L -49 17.75 " />
<path id= "24" d=" M -49 17.75 L -49 16.55 " />
<path id= "25" d=" M -49 16.55 L -53 16.55 " />
<path id= "26" d=" M -53 16.55 L -53 40 " />
<path id= "27" d=" M -53 40 L -56 40 " />
<path id= "28" d=" M -56 40 L -56 90 " />
<path id= "29" d=" M -56 90 L -53 90 " />
<path id= "30" d=" M -53 90 L -53 113.45 " />
<path id= "31" d=" M -53 113.45 L -49 113.45 " />
<path id= "32" d=" M -49 113.45 L -49 112.25 " />
<path id= "33" d=" M -49 112.25 L -46 112.25 " />
<path id= "34" d=" M -46 112.25 L -46 113.45 " />
<path id= "35" d=" M -46 113.45 L -39 113.45 " />
<path id= "36" d=" M -39 113.45 L -39 116.55 " />
<path id= "37" d=" M -39 116.55 L -46 116.55 " />
<path id= "38" d=" M -46 116.55 L -46 117.75 " />
<path id= "39" d=" M -46 117.75 L -49 117.75 " />
<path id= "40" d=" M -49 117.75 L -49 116.55 " />
<path id= "41" d=" M -49 116.55 L -53 116.55 " />
<path id= "42" d=" M -53 116.55 L -53 140 " />
<path id= "43" d=" M -53 140 L -56 140 " />
<path id= "44" d=" M -56 140 L -56 190 " />
<path id= "45" d=" M -56 190 L -53 190 " />
<path id= "46" d=" M -53 190 L -53 213.45 " />
<path id= "47" d=" M -53 213.45 L -49 213.45 " />
<path id= "48" d=" M -49 213.45 L -49 212.25 " />
<path id= "49" d=" M -49 212.25 L -46 212.25 " />
<path id= "50" d=" M -46 212.25 L -46 213.45 " />
<path id= "51" d=" M -46 213.45 L -39 213.45 " />
<path id= "52" d=" M -39 213.45 L -39 216.55 " />
<path id= "53" d=" M -39 216.55 L -46 216.55 " />
<path id= "54" d=" M -46 216.55 L -46 217.75 " />
<path id= "55" d=" M -46 217.75 L -49 217.75 " />
<path id= "56" d=" M -49 217.75 L -49 216.55 " />
<path id= "57" d=" M -49 216.55 L -53 216.55 " />
<path id= "58" d=" M -53 240 L -53 216.55 " />
<path id= "59" d=" M -53 240 L -56 240 " />
<path id= "60" d=" M -56 240 L -56 290 " />
<path id= "61" d=" M -56 290 L 0 290 " />
<path id= "62" d=" M 3.02393e-18 240 L 3.02393e-18 290 " />
<path id= "63" d=" M -3 240 L 0 240 " />
<path id= "64" d=" M -3 240 L -3 216.55 " />
<path id= "65" d=" M -3 216.55 L -7 216.55 " />
<path id= "66" d=" M -7 216.55 L -7 217.75 " />
<path id= "67" d=" M -7 217.75 L -10 217.75 " />
<path id= "68" d=" M -10 217.75 L -10 216.55 " />
<path id= "69" d=" M -10 216.55 L -17 216.55 " />
<path id= "70" d=" M -17 216.55 L -17 213.45 " />
<path id= "71" d=" M -17 213.45 L -10 213.45 " />
<path id= "72" d=" M -10 213.45 L -10 212.25 " />
<path id= "73" d=" M -10 212.25 L -7 212.25 " />
<path id= "74" d=" M -7 212.25 L -7 213.45 " />
<path id= "75" d=" M -7 213.45 L -3 213.45 " />
<path id= "76" d=" M -3 213.45 L -3 190 " />
<path id= "77" d=" M 0 190 L -3 190 " />
<path id= "78" d=" M 0 140 L 0 190 " />
<path id= "79" d=" M -3 140 L 0 140 " />
<path id= "80" d=" M -3 140 L -3 130.55 " />
<path id= "81" d=" M -7 130.55 L -3 130.55 " />
<path id= "82" d=" M -7 131.75 L -7 130.55 " />
<path id= "83" d=" M -10 131.75 L -7 131.75 " />
<path id= "84" d=" M -10 130.55 L -10 131.75 " />
<path id= "85" d=" M -17 130.55 L -10 130.55 " />
<path id= "86" d=" M -17 127.45 L -17 130.55 " />
<path id= "87" d=" M -10 127.45 L -17 127.45 " />
<path id= "88" d=" M -10 126.25 L -10 127.45 " />
<path id= "89" d=" M -7 126.25 L -10 126.25 " />
<path id= "90" d=" M -7 127.45 L -7 126.25 " />
<path id= "91" d=" M -3 127.45 L -7 127.45 " />
<path id= "92" d=" M -3 102.55 L -3 127.45 " />
<path id= "93" d=" M -7 102.55 L -3 102.55 " />
<path id= "94" d=" M -7 103.75 L -7 102.55 " />
<path id= "95" d=" M -10 103.75 L -7 103.75 " />
<path id= "96" d=" M -10 102.55 L -10 103.75 " />
<path id= "97" d=" M -17 102.55 L -10 102.55 " />
<path id= "98" d=" M -17 99.45 L -17 102.55 " />
<path id= "99" d=" M -10 99.45 L -17 99.45 " />
<path id= "100" d=" M -10 98.25 L -10 99.45 " />
<path id= "101" d=" M -7 98.25 L -10 98.25 " />
<path id= "102" d=" M -7 99.45 L -7 98.25 " />
<path id= "103" d=" M -3 99.45 L -7 99.45 " />
<path id= "104" d=" M -3 90 L -3 99.45 " />
<path id= "105" d=" M 0 90 L -3 90 " />
<path id= "106" d=" M 0 40 L 0 90 " />
<path id= "107" d=" M -3 40 L 0 40 " />
<path id= "108" d=" M -3 16.55 L -3 40 " />
<path id= "109" d=" M -7 16.55 L -3 16.55 " />
<path id= "110" d=" M -7 17.75 L -7 16.55 " />
<path id= "111" d=" M -10 17.75 L -7 17.75 " />
<path id= "112" d=" M -10 16.55 L -10 17.75 " />
<path id= "113" d=" M -17 16.55 L -10 16.55 " />
<path id= "114" d=" M -17 13.45 L -17 16.55 " />
<path id= "115" d=" M -10 13.45 L -17 13.45 " />
<path id= "116" d=" M -10 12.25 L -10 13.45 " />
<path id= "117" d=" M -7 12.25 L -10 12.25 " />
<path id= "118" d=" M -7 13.45 L -7 12.25 " />
<path id= "119" d=" M -3 13.45 L -7 13.45 " />
<path id= "120" d=" M -3 0 L -3 13.45 " />
</g>
</g>



</svg>

