G04 #@! TF.FileFunction,Soldermask,Bot*
%FSLAX46Y46*%
G04 Gerber Fmt 4.6, Leading zero omitted, Abs format (unit mm)*
G04 Created by KiCad (PCBNEW 4.0.2+dfsg1-stable) date ven. 05 janv. 2018 23:18:11 CET*
%MOMM*%
G01*
G04 APERTURE LIST*
%ADD10C,0.100000*%
%ADD11R,2.400000X2.000000*%
%ADD12R,2.000000X2.000000*%
%ADD13C,2.000000*%
%ADD14O,4.400000X2.900000*%
%ADD15C,2.400000*%
%ADD16C,4.400000*%
%ADD17R,2.400000X2.100000*%
%ADD18R,2.100000X2.100000*%
%ADD19O,2.100000X2.100000*%
%ADD20O,2.000000X2.000000*%
%ADD21R,3.000000X2.400000*%
%ADD22O,3.000000X2.400000*%
%ADD23C,1.900000*%
%ADD24R,2.400000X3.000000*%
%ADD25O,2.400000X3.000000*%
G04 APERTURE END LIST*
D10*
D11*
X118904000Y-85852000D03*
X122904000Y-85852000D03*
D12*
X139192000Y-88900000D03*
D13*
X142692000Y-88900000D03*
D14*
X138020000Y-99060000D03*
X160020000Y-99060000D03*
D15*
X153630000Y-91186000D03*
X148630000Y-91186000D03*
D16*
X158242000Y-75184000D03*
D17*
X128937000Y-88138000D03*
X132937000Y-88138000D03*
D18*
X133858000Y-104140000D03*
D19*
X131318000Y-104140000D03*
X128778000Y-104140000D03*
D11*
X133064000Y-85852000D03*
X129064000Y-85852000D03*
D12*
X133604000Y-83312000D03*
D20*
X118364000Y-90932000D03*
X131064000Y-83312000D03*
X120904000Y-90932000D03*
X128524000Y-83312000D03*
X123444000Y-90932000D03*
X125984000Y-83312000D03*
X125984000Y-90932000D03*
X123444000Y-83312000D03*
X128524000Y-90932000D03*
X120904000Y-83312000D03*
X131064000Y-90932000D03*
X118364000Y-83312000D03*
X133604000Y-90932000D03*
D21*
X98806000Y-122428000D03*
D22*
X98806000Y-124968000D03*
D16*
X98552000Y-129540000D03*
D21*
X98806000Y-114808000D03*
D22*
X98806000Y-117348000D03*
D21*
X98806000Y-102108000D03*
D22*
X98806000Y-104648000D03*
X98806000Y-107188000D03*
X98806000Y-109728000D03*
D23*
X106680000Y-103378000D03*
X111580000Y-103378000D03*
D13*
X134620000Y-107950000D03*
X132080000Y-107950000D03*
X129540000Y-107950000D03*
X127000000Y-107950000D03*
X124460000Y-107950000D03*
X121920000Y-107950000D03*
X119380000Y-107950000D03*
X116840000Y-107950000D03*
X114300000Y-107950000D03*
X111760000Y-107950000D03*
X109220000Y-107950000D03*
X106680000Y-107950000D03*
D24*
X106426000Y-76962000D03*
D25*
X108966000Y-76962000D03*
X111506000Y-76962000D03*
X114046000Y-76962000D03*
D24*
X123444000Y-76962000D03*
D25*
X120904000Y-76962000D03*
X118364000Y-76962000D03*
D11*
X118904000Y-88519000D03*
X122904000Y-88519000D03*
D12*
X139192000Y-120650000D03*
D13*
X142692000Y-120650000D03*
D14*
X138020000Y-110490000D03*
X160020000Y-110490000D03*
D15*
X149392000Y-118364000D03*
X154392000Y-118364000D03*
D16*
X159258000Y-130302000D03*
X99314000Y-76200000D03*
D12*
X113284000Y-98298000D03*
D20*
X105664000Y-83058000D03*
X113284000Y-95758000D03*
X105664000Y-85598000D03*
X113284000Y-93218000D03*
X105664000Y-88138000D03*
X113284000Y-90678000D03*
X105664000Y-90678000D03*
X113284000Y-88138000D03*
X105664000Y-93218000D03*
X113284000Y-85598000D03*
X105664000Y-95758000D03*
X113284000Y-83058000D03*
X105664000Y-98298000D03*
D21*
X98806000Y-88646000D03*
D22*
X98806000Y-91186000D03*
D21*
X98806000Y-97790000D03*
D22*
X98806000Y-95250000D03*
D21*
X98806000Y-84582000D03*
D22*
X98806000Y-82042000D03*
M02*
