M48
;DRILL file {KiCad 4.0.2+dfsg1-stable} date ven. 05 janv. 2018 23:23:11 CET
;FORMAT={2:4/ absolute / inch / suppress leading zeros}
FMAT,2
INCH,TZ
T1C0.024
T2C0.031
T3C0.039
T4C0.047
T5C0.059
T6C0.118
%
G90
G05
M72
T1
X40550Y-40250
X40580Y-42460
X40700Y-49050
X41747Y-46200
X42240Y-46200
X43600Y-39950
X43850Y-34750
X43962Y-38609
X45568Y-32267
X45700Y-34950
X45750Y-37500
X45872Y-31750
X45887Y-33780
X46350Y-38450
X46813Y-33800
X47085Y-36824
X47522Y-38932
X47550Y-49650
X47640Y-34840
X47650Y-31800
X47695Y-38578
X47800Y-37850
X47886Y-36794
X48115Y-36474
X48549Y-39758
X48650Y-38750
X49150Y-37450
X49162Y-36595
X49260Y-33800
X49300Y-40700
X49450Y-34900
X49600Y-37450
X49820Y-39380
X49940Y-38760
X50021Y-34892
X50080Y-33620
X50560Y-37380
X52380Y-44320
T2
X41600Y-32700
X41600Y-33700
X41600Y-34700
X41600Y-35700
X41600Y-36700
X41600Y-37700
X41600Y-38700
X42000Y-40700
X42000Y-42500
X43000Y-42500
X43929Y-40700
X44000Y-42500
X44600Y-32700
X44600Y-33700
X44600Y-34700
X44600Y-35700
X44600Y-36700
X44600Y-37700
X44600Y-38700
X45000Y-42500
X46000Y-42500
X46600Y-32800
X46600Y-35800
X47000Y-42500
X47600Y-32800
X47600Y-35800
X48000Y-42500
X48600Y-32800
X48600Y-35800
X49000Y-42500
X49600Y-32800
X49600Y-35800
X50000Y-42500
X50600Y-32800
X50600Y-35800
X51000Y-42500
X51600Y-32800
X51600Y-35800
X52000Y-42500
X52600Y-32800
X52600Y-35800
X53000Y-42500
X54800Y-35000
X54800Y-47500
X56178Y-35000
X56178Y-47500
T3
X50700Y-41000
X51700Y-41000
X52700Y-41000
T4
X38900Y-32300
X38900Y-33300
X38900Y-34900
X38900Y-35900
X38900Y-37500
X38900Y-38500
X38900Y-40200
X38900Y-41200
X38900Y-42200
X38900Y-43200
X38900Y-45200
X38900Y-46200
X38900Y-48200
X38900Y-49200
X41900Y-30300
X42900Y-30300
X43900Y-30300
X44900Y-30300
X46600Y-30300
X47600Y-30300
X48600Y-30300
T5
X54339Y-39000
X54339Y-43500
X58516Y-35900
X58816Y-46600
X60484Y-35900
X60784Y-46600
X63000Y-39000
X63000Y-43500
T6
X38800Y-51000
X39100Y-30000
X62300Y-29600
X62700Y-51300
T0
M30
