G04 #@! TF.FileFunction,Copper,L1,Top,Signal*
%FSLAX46Y46*%
G04 Gerber Fmt 4.6, Leading zero omitted, Abs format (unit mm)*
G04 Created by KiCad (PCBNEW 4.0.2+dfsg1-stable) date ven. 05 janv. 2018 23:18:11 CET*
%MOMM*%
G01*
G04 APERTURE LIST*
%ADD10C,0.100000*%
%ADD11R,0.600000X1.550000*%
%ADD12R,1.600000X1.600000*%
%ADD13C,1.600000*%
%ADD14R,2.000000X1.600000*%
%ADD15O,4.000000X2.500000*%
%ADD16R,2.000000X1.700000*%
%ADD17C,2.000000*%
%ADD18R,3.500000X1.800000*%
%ADD19C,4.000000*%
%ADD20R,1.200000X0.600000*%
%ADD21R,0.600000X1.200000*%
%ADD22R,1.700000X1.700000*%
%ADD23O,1.700000X1.700000*%
%ADD24O,1.600000X1.600000*%
%ADD25R,2.600000X2.000000*%
%ADD26O,2.600000X2.000000*%
%ADD27C,1.500000*%
%ADD28R,2.000000X3.800000*%
%ADD29R,2.000000X1.500000*%
%ADD30R,2.000000X2.600000*%
%ADD31O,2.000000X2.600000*%
%ADD32C,0.800000*%
%ADD33C,0.250000*%
%ADD34C,1.000000*%
%ADD35C,0.500000*%
%ADD36C,2.000000*%
%ADD37C,0.254000*%
G04 APERTURE END LIST*
D10*
D11*
X108585000Y-119220000D03*
X107315000Y-119220000D03*
X106045000Y-119220000D03*
X104775000Y-119220000D03*
X104775000Y-124620000D03*
X106045000Y-124620000D03*
X107315000Y-124620000D03*
X108585000Y-124620000D03*
D12*
X139192000Y-88900000D03*
D13*
X142692000Y-88900000D03*
D14*
X138843000Y-79121000D03*
X142843000Y-79121000D03*
D15*
X138020000Y-99060000D03*
X160020000Y-99060000D03*
D16*
X142843000Y-76454000D03*
X138843000Y-76454000D03*
D17*
X153630000Y-91186000D03*
X148630000Y-91186000D03*
D18*
X138343000Y-82169000D03*
X143343000Y-82169000D03*
D10*
G36*
X160408000Y-91822000D02*
X158108000Y-91822000D01*
X158708000Y-88222000D01*
X159808000Y-88222000D01*
X160408000Y-91822000D01*
X160408000Y-91822000D01*
G37*
G36*
X158108000Y-82422000D02*
X160408000Y-82422000D01*
X159808000Y-86022000D01*
X158708000Y-86022000D01*
X158108000Y-82422000D01*
X158108000Y-82422000D01*
G37*
D19*
X158242000Y-75184000D03*
D20*
X116400000Y-96260000D03*
X116400000Y-97060000D03*
X116400000Y-97860000D03*
X116400000Y-98660000D03*
X116400000Y-99460000D03*
X116400000Y-100260000D03*
X116400000Y-101060000D03*
X116400000Y-101860000D03*
D21*
X117850000Y-103310000D03*
X118650000Y-103310000D03*
X119450000Y-103310000D03*
X120250000Y-103310000D03*
X121050000Y-103310000D03*
X121850000Y-103310000D03*
X122650000Y-103310000D03*
X123450000Y-103310000D03*
D20*
X124900000Y-101860000D03*
X124900000Y-101060000D03*
X124900000Y-100260000D03*
X124900000Y-99460000D03*
X124900000Y-98660000D03*
X124900000Y-97860000D03*
X124900000Y-97060000D03*
X124900000Y-96260000D03*
D21*
X123450000Y-94810000D03*
X122650000Y-94810000D03*
X121850000Y-94810000D03*
X121050000Y-94810000D03*
X120250000Y-94810000D03*
X119450000Y-94810000D03*
X118650000Y-94810000D03*
X117850000Y-94810000D03*
D22*
X133858000Y-104140000D03*
D23*
X131318000Y-104140000D03*
X128778000Y-104140000D03*
D16*
X133318000Y-100330000D03*
X129318000Y-100330000D03*
X134080000Y-80010000D03*
X130080000Y-80010000D03*
D10*
G36*
X126618000Y-97670000D02*
X126618000Y-95370000D01*
X130218000Y-95970000D01*
X130218000Y-97070000D01*
X126618000Y-97670000D01*
X126618000Y-97670000D01*
G37*
G36*
X136018000Y-95370000D02*
X136018000Y-97670000D01*
X132418000Y-97070000D01*
X132418000Y-95970000D01*
X136018000Y-95370000D01*
X136018000Y-95370000D01*
G37*
D12*
X133604000Y-83312000D03*
D24*
X118364000Y-90932000D03*
X131064000Y-83312000D03*
X120904000Y-90932000D03*
X128524000Y-83312000D03*
X123444000Y-90932000D03*
X125984000Y-83312000D03*
X125984000Y-90932000D03*
X123444000Y-83312000D03*
X128524000Y-90932000D03*
X120904000Y-83312000D03*
X131064000Y-90932000D03*
X118364000Y-83312000D03*
X133604000Y-90932000D03*
D10*
G36*
X113150000Y-122300000D02*
X115450000Y-122300000D01*
X114850000Y-125900000D01*
X113750000Y-125900000D01*
X113150000Y-122300000D01*
X113150000Y-122300000D01*
G37*
G36*
X115450000Y-131700000D02*
X113150000Y-131700000D01*
X113750000Y-128100000D01*
X114850000Y-128100000D01*
X115450000Y-131700000D01*
X115450000Y-131700000D01*
G37*
G36*
X113150000Y-110870000D02*
X115450000Y-110870000D01*
X114850000Y-114470000D01*
X113750000Y-114470000D01*
X113150000Y-110870000D01*
X113150000Y-110870000D01*
G37*
G36*
X115450000Y-120270000D02*
X113150000Y-120270000D01*
X113750000Y-116670000D01*
X114850000Y-116670000D01*
X115450000Y-120270000D01*
X115450000Y-120270000D01*
G37*
D16*
X108680000Y-129540000D03*
X104680000Y-129540000D03*
D25*
X98806000Y-122428000D03*
D26*
X98806000Y-124968000D03*
D19*
X98552000Y-129540000D03*
D16*
X122650000Y-111760000D03*
X118650000Y-111760000D03*
D25*
X98806000Y-114808000D03*
D26*
X98806000Y-117348000D03*
D14*
X122650000Y-116840000D03*
X118650000Y-116840000D03*
D25*
X98806000Y-102108000D03*
D26*
X98806000Y-104648000D03*
X98806000Y-107188000D03*
X98806000Y-109728000D03*
D16*
X122650000Y-114300000D03*
X118650000Y-114300000D03*
D27*
X106680000Y-103378000D03*
X111580000Y-103378000D03*
D13*
X134620000Y-107950000D03*
X132080000Y-107950000D03*
X129540000Y-107950000D03*
X127000000Y-107950000D03*
X124460000Y-107950000D03*
X121920000Y-107950000D03*
X119380000Y-107950000D03*
X116840000Y-107950000D03*
X114300000Y-107950000D03*
X111760000Y-107950000D03*
X109220000Y-107950000D03*
X106680000Y-107950000D03*
D16*
X118650000Y-119380000D03*
X122650000Y-119380000D03*
X118650000Y-130810000D03*
X122650000Y-130810000D03*
D14*
X122650000Y-128270000D03*
X118650000Y-128270000D03*
D16*
X122650000Y-123190000D03*
X118650000Y-123190000D03*
X122650000Y-125730000D03*
X118650000Y-125730000D03*
D28*
X132690000Y-127000000D03*
D29*
X126390000Y-127000000D03*
X126390000Y-129300000D03*
X126390000Y-124700000D03*
D30*
X106426000Y-76962000D03*
D31*
X108966000Y-76962000D03*
X111506000Y-76962000D03*
X114046000Y-76962000D03*
D30*
X123444000Y-76962000D03*
D31*
X120904000Y-76962000D03*
X118364000Y-76962000D03*
D12*
X139192000Y-120650000D03*
D13*
X142692000Y-120650000D03*
D14*
X138970000Y-130556000D03*
X142970000Y-130556000D03*
D15*
X138020000Y-110490000D03*
X160020000Y-110490000D03*
D17*
X149392000Y-118364000D03*
X154392000Y-118364000D03*
D18*
X138470000Y-127254000D03*
X143470000Y-127254000D03*
D19*
X159258000Y-130302000D03*
X99314000Y-76200000D03*
D12*
X113284000Y-98298000D03*
D24*
X105664000Y-83058000D03*
X113284000Y-95758000D03*
X105664000Y-85598000D03*
X113284000Y-93218000D03*
X105664000Y-88138000D03*
X113284000Y-90678000D03*
X105664000Y-90678000D03*
X113284000Y-88138000D03*
X105664000Y-93218000D03*
X113284000Y-85598000D03*
X105664000Y-95758000D03*
X113284000Y-83058000D03*
X105664000Y-98298000D03*
D25*
X98806000Y-88646000D03*
D26*
X98806000Y-91186000D03*
D25*
X98806000Y-97790000D03*
D26*
X98806000Y-95250000D03*
D25*
X98806000Y-84582000D03*
D26*
X98806000Y-82042000D03*
D28*
X132690000Y-115570000D03*
D29*
X126390000Y-115570000D03*
X126390000Y-117870000D03*
X126390000Y-113270000D03*
D32*
X116078000Y-88773000D03*
X111662629Y-98068120D03*
X107289600Y-117348000D03*
X103073200Y-107848400D03*
X128422400Y-94945200D03*
X126847600Y-98450400D03*
X125222000Y-103378000D03*
X127203200Y-85394800D03*
X125120400Y-85852000D03*
X121005600Y-88493600D03*
X115742121Y-81957990D03*
X118904000Y-85852000D03*
X116553921Y-85801980D03*
X106037190Y-117348000D03*
X133045200Y-112572800D03*
X120777000Y-126111000D03*
X103378000Y-124587000D03*
X110744000Y-101473000D03*
X121144530Y-97988011D03*
X102997000Y-102235000D03*
X121629979Y-93457291D03*
X120705910Y-98886696D03*
X119596759Y-93532079D03*
X121031000Y-80772000D03*
X122210990Y-92643381D03*
X124871156Y-92951076D03*
X124841000Y-95123000D03*
X125984000Y-95123000D03*
X127053012Y-88625066D03*
X125603000Y-88646000D03*
X117729000Y-97663000D03*
X123315573Y-100985010D03*
X116205000Y-95250000D03*
X121412000Y-96139000D03*
X123571000Y-98425000D03*
X126542800Y-100025200D03*
X116515376Y-80645791D03*
X111379000Y-88265000D03*
D33*
X116400000Y-97060000D02*
X115550000Y-97060000D01*
X115550000Y-97060000D02*
X114949989Y-96459989D01*
X114949989Y-96459989D02*
X114949989Y-94561988D01*
X114949989Y-94561988D02*
X116078000Y-93433977D01*
X116078000Y-93433977D02*
X116078000Y-88773000D01*
X112105064Y-97060000D02*
X111662629Y-97502435D01*
X116400000Y-97060000D02*
X112105064Y-97060000D01*
X111662629Y-97502435D02*
X111662629Y-98068120D01*
D34*
X107289600Y-117348000D02*
X107289600Y-119194600D01*
X107289600Y-119194600D02*
X107315000Y-119220000D01*
X98806000Y-107188000D02*
X102412800Y-107188000D01*
X102412800Y-107188000D02*
X103073200Y-107848400D01*
D35*
X128418000Y-96520000D02*
X128418000Y-94949600D01*
X128418000Y-94949600D02*
X128422400Y-94945200D01*
X126847600Y-98450400D02*
X126847600Y-98090400D01*
X126847600Y-98090400D02*
X128418000Y-96520000D01*
X123450000Y-103310000D02*
X125154000Y-103310000D01*
X125154000Y-103310000D02*
X125222000Y-103378000D01*
D34*
X118364000Y-76962000D02*
X118364000Y-76662000D01*
X118364000Y-76662000D02*
X116364000Y-74662000D01*
X116364000Y-74662000D02*
X108426000Y-74662000D01*
X108426000Y-74662000D02*
X106426000Y-76662000D01*
X106426000Y-76662000D02*
X106426000Y-76962000D01*
X113284000Y-83058000D02*
X118110000Y-83058000D01*
X118110000Y-83058000D02*
X118364000Y-83312000D01*
X106426000Y-76962000D02*
X106426000Y-77126177D01*
X111557824Y-82258001D02*
X112484001Y-82258001D01*
X106426000Y-77126177D02*
X111557824Y-82258001D01*
X112484001Y-82258001D02*
X113284000Y-83058000D01*
X99314000Y-76200000D02*
X105664000Y-76200000D01*
X105664000Y-76200000D02*
X106426000Y-76962000D01*
X142843000Y-79121000D02*
X143043000Y-79121000D01*
X143043000Y-79121000D02*
X150644010Y-86722010D01*
X150644010Y-86722010D02*
X160097956Y-86722010D01*
X160097956Y-86722010D02*
X161108010Y-85711956D01*
X161108010Y-85711956D02*
X161108010Y-78050010D01*
X161108010Y-78050010D02*
X160241999Y-77183999D01*
X160241999Y-77183999D02*
X158242000Y-75184000D01*
X125120400Y-85852000D02*
X126746000Y-85852000D01*
X126746000Y-85852000D02*
X127203200Y-85394800D01*
D35*
X119614001Y-91532001D02*
X119614001Y-89885199D01*
X117850000Y-93296002D02*
X119614001Y-91532001D01*
X117850000Y-94810000D02*
X117850000Y-93296002D01*
X119614001Y-89885199D02*
X121005600Y-88493600D01*
D34*
X159258000Y-130302000D02*
X156429573Y-130302000D01*
X156429573Y-130302000D02*
X154331563Y-132400010D01*
X154331563Y-132400010D02*
X110650014Y-132400010D01*
X110650014Y-132400010D02*
X109790003Y-131539999D01*
X121109999Y-109450001D02*
X127152400Y-109450001D01*
X127152400Y-109450001D02*
X130579999Y-109450001D01*
D35*
X123450000Y-103310000D02*
X123450000Y-104410000D01*
X123450000Y-104410000D02*
X125749999Y-106709999D01*
X125749999Y-106709999D02*
X125749999Y-108550001D01*
X125749999Y-108550001D02*
X126649999Y-109450001D01*
X126649999Y-109450001D02*
X127152400Y-109450001D01*
D34*
X98806000Y-107188000D02*
X98506000Y-107188000D01*
X96355979Y-109338021D02*
X96355979Y-127343979D01*
X96355979Y-127343979D02*
X96552001Y-127540001D01*
X98506000Y-107188000D02*
X96355979Y-109338021D01*
X96552001Y-127540001D02*
X98552000Y-129540000D01*
X113500719Y-113469281D02*
X114300000Y-112670000D01*
X107315000Y-119220000D02*
X107315000Y-120285002D01*
X107315000Y-120285002D02*
X107724999Y-120695001D01*
X107724999Y-120695001D02*
X109445001Y-120695001D01*
X109445001Y-120695001D02*
X112449990Y-117690012D01*
X112449990Y-117690012D02*
X112449990Y-114520010D01*
X112449990Y-114520010D02*
X113500719Y-113469281D01*
X98552000Y-129540000D02*
X100551999Y-131539999D01*
X109790003Y-131539999D02*
X110380001Y-130950001D01*
X100551999Y-131539999D02*
X109790003Y-131539999D01*
X110380001Y-130950001D02*
X110380001Y-128190001D01*
X110380001Y-128190001D02*
X108585000Y-126395000D01*
X108585000Y-126395000D02*
X108585000Y-124620000D01*
X118650000Y-128270000D02*
X118079998Y-128270000D01*
X118079998Y-128270000D02*
X116949999Y-127140001D01*
X116949999Y-127140001D02*
X116949999Y-124319999D01*
X116949999Y-124319999D02*
X118079998Y-123190000D01*
X118079998Y-123190000D02*
X118650000Y-123190000D01*
X114300000Y-124100000D02*
X117740000Y-124100000D01*
X117740000Y-124100000D02*
X118650000Y-123190000D01*
X114300000Y-124100000D02*
X109105000Y-124100000D01*
X109105000Y-124100000D02*
X108585000Y-124620000D01*
X132080000Y-107950000D02*
X132080000Y-105918000D01*
X132080000Y-105918000D02*
X133858000Y-104140000D01*
X118650000Y-111760000D02*
X118800000Y-111760000D01*
X118800000Y-111760000D02*
X121109999Y-109450001D01*
X130579999Y-109450001D02*
X131280001Y-108749999D01*
X131280001Y-108749999D02*
X132080000Y-107950000D01*
D36*
X118650000Y-111760000D02*
X117179998Y-111760000D01*
X117179998Y-111760000D02*
X116449999Y-112489999D01*
X116449999Y-112489999D02*
X116449999Y-116110001D01*
X116449999Y-116110001D02*
X117179998Y-116840000D01*
X117179998Y-116840000D02*
X118650000Y-116840000D01*
X114300000Y-112670000D02*
X115210000Y-111760000D01*
X115210000Y-111760000D02*
X118650000Y-111760000D01*
X142843000Y-79121000D02*
X142843000Y-81669000D01*
X142843000Y-81669000D02*
X143343000Y-82169000D01*
D35*
X108585000Y-124620000D02*
X108585000Y-124145000D01*
X117850000Y-94810000D02*
X117850000Y-94510000D01*
X128016000Y-96922000D02*
X128418000Y-96520000D01*
X113538000Y-83312000D02*
X113284000Y-83058000D01*
X107188000Y-119093000D02*
X107315000Y-119220000D01*
D36*
X143470000Y-127254000D02*
X145502000Y-127254000D01*
X145502000Y-127254000D02*
X154392000Y-118364000D01*
X159258000Y-130302000D02*
X159258000Y-123230000D01*
X159258000Y-123230000D02*
X154392000Y-118364000D01*
X142692000Y-88900000D02*
X142692000Y-82820000D01*
X142692000Y-82820000D02*
X143343000Y-82169000D01*
X148630000Y-91186000D02*
X144978000Y-91186000D01*
X144978000Y-91186000D02*
X142692000Y-88900000D01*
X159258000Y-90022000D02*
X158221999Y-88985999D01*
X158221999Y-88985999D02*
X150830001Y-88985999D01*
X150830001Y-88985999D02*
X149629999Y-90186001D01*
X149629999Y-90186001D02*
X148630000Y-91186000D01*
X143470000Y-127254000D02*
X143470000Y-121428000D01*
X143470000Y-121428000D02*
X142692000Y-120650000D01*
X142970000Y-130556000D02*
X142970000Y-127754000D01*
X142970000Y-127754000D02*
X143470000Y-127254000D01*
D33*
X115176436Y-81957990D02*
X115742121Y-81957990D01*
X108966000Y-77262000D02*
X113661990Y-81957990D01*
X108966000Y-76962000D02*
X108966000Y-77262000D01*
X113661990Y-81957990D02*
X115176436Y-81957990D01*
X116553921Y-85801980D02*
X118853980Y-85801980D01*
X118853980Y-85801980D02*
X118904000Y-85852000D01*
X110684011Y-96692987D02*
X112743999Y-94632999D01*
X115107002Y-98660000D02*
X114344001Y-99423001D01*
X113824001Y-94632999D02*
X114859012Y-93597988D01*
X114859012Y-87496889D02*
X116153922Y-86201979D01*
X116153922Y-86201979D02*
X116553921Y-85801980D01*
X116400000Y-98660000D02*
X115107002Y-98660000D01*
X114344001Y-99423001D02*
X111992191Y-99423001D01*
X110684011Y-98114821D02*
X110684011Y-96692987D01*
X114859012Y-93597988D02*
X114859012Y-87496889D01*
X112743999Y-94632999D02*
X113824001Y-94632999D01*
X111992191Y-99423001D02*
X110684011Y-98114821D01*
D35*
X106045000Y-117355810D02*
X106037190Y-117348000D01*
X106045000Y-119220000D02*
X106045000Y-117355810D01*
D34*
X106045000Y-120995000D02*
X106045000Y-119220000D01*
X107306409Y-122256409D02*
X106045000Y-120995000D01*
X109580664Y-122256409D02*
X107306409Y-122256409D01*
X110283612Y-121553461D02*
X109580664Y-122256409D01*
X120326539Y-121553461D02*
X110283612Y-121553461D01*
X122500000Y-119380000D02*
X120326539Y-121553461D01*
X122650000Y-119380000D02*
X122500000Y-119380000D01*
X133045200Y-112572800D02*
X133045200Y-115214800D01*
X133045200Y-115214800D02*
X132690000Y-115570000D01*
X134080000Y-80010000D02*
X135104001Y-81034001D01*
X135104001Y-81034001D02*
X135104001Y-89431999D01*
X135104001Y-89431999D02*
X134403999Y-90132001D01*
X134403999Y-90132001D02*
X133604000Y-90932000D01*
D36*
X122650000Y-119380000D02*
X122650000Y-116840000D01*
X122650000Y-116840000D02*
X122650000Y-114300000D01*
X122650000Y-114300000D02*
X123920000Y-115570000D01*
X123920000Y-115570000D02*
X126390000Y-115570000D01*
X132690000Y-115570000D02*
X126390000Y-115570000D01*
D35*
X106045000Y-119695000D02*
X106045000Y-119220000D01*
D36*
X98806000Y-102108000D02*
X102616000Y-98298000D01*
X102616000Y-98298000D02*
X105664000Y-98298000D01*
D35*
X98806000Y-91186000D02*
X100606000Y-91186000D01*
X103927999Y-94507999D02*
X106264001Y-94507999D01*
X106264001Y-94507999D02*
X110744000Y-98987998D01*
X100606000Y-91186000D02*
X103927999Y-94507999D01*
X110744000Y-98987998D02*
X110744000Y-100907315D01*
X110744000Y-100907315D02*
X110744000Y-101473000D01*
X118579002Y-98191000D02*
X117310002Y-99460000D01*
X117634016Y-96310012D02*
X118579002Y-97254998D01*
X118579002Y-97254998D02*
X118579002Y-98191000D01*
X116400000Y-96260000D02*
X117071814Y-96260000D01*
X117071814Y-96260000D02*
X117121826Y-96310012D01*
X117121826Y-96310012D02*
X117634016Y-96310012D01*
X127928001Y-103290001D02*
X128778000Y-104140000D01*
X126758965Y-103290001D02*
X127928001Y-103290001D01*
X124900000Y-101860000D02*
X125328964Y-101860000D01*
X125328964Y-101860000D02*
X126758965Y-103290001D01*
X129540000Y-107950000D02*
X129540000Y-104902000D01*
X129540000Y-104902000D02*
X128778000Y-104140000D01*
X120777000Y-126111000D02*
X122269000Y-126111000D01*
X122269000Y-126111000D02*
X122650000Y-125730000D01*
X104775000Y-124620000D02*
X103411000Y-124620000D01*
X103411000Y-124620000D02*
X103378000Y-124587000D01*
X115120190Y-99460000D02*
X113107190Y-101473000D01*
X116400000Y-99460000D02*
X115120190Y-99460000D01*
X113107190Y-101473000D02*
X111309685Y-101473000D01*
X111309685Y-101473000D02*
X110744000Y-101473000D01*
X126390000Y-127000000D02*
X132690000Y-127000000D01*
X122650000Y-128270000D02*
X123920000Y-127000000D01*
X123920000Y-127000000D02*
X126390000Y-127000000D01*
X122650000Y-128270000D02*
X122650000Y-130810000D01*
X122650000Y-125730000D02*
X122650000Y-128270000D01*
X124900000Y-101860000D02*
X119710002Y-101860000D01*
X119710002Y-101860000D02*
X117310002Y-99460000D01*
X117310002Y-99460000D02*
X116400000Y-99460000D01*
D36*
X138020000Y-110490000D02*
X152804837Y-110490000D01*
X120904000Y-73662000D02*
X120904000Y-76962000D01*
X152804837Y-110490000D02*
X163220010Y-100074827D01*
X163220010Y-100074827D02*
X163220010Y-75426008D01*
X163220010Y-75426008D02*
X159778001Y-71983999D01*
X159778001Y-71983999D02*
X122582001Y-71983999D01*
X122582001Y-71983999D02*
X120904000Y-73662000D01*
X138020000Y-110490000D02*
X138020000Y-119478000D01*
X138020000Y-119478000D02*
X139192000Y-120650000D01*
X138470000Y-127254000D02*
X138470000Y-130056000D01*
X138470000Y-130056000D02*
X138970000Y-130556000D01*
X139192000Y-120650000D02*
X139192000Y-126532000D01*
X139192000Y-126532000D02*
X138470000Y-127254000D01*
D33*
X133318000Y-100330000D02*
X133318000Y-97420000D01*
X133318000Y-97420000D02*
X134218000Y-96520000D01*
X142843000Y-76454000D02*
X151490000Y-76454000D01*
X151490000Y-76454000D02*
X159258000Y-84222000D01*
X118650000Y-130810000D02*
X115210000Y-130810000D01*
X115210000Y-130810000D02*
X114300000Y-129900000D01*
X118650000Y-119380000D02*
X115210000Y-119380000D01*
X115210000Y-119380000D02*
X114300000Y-118470000D01*
D36*
X160020000Y-99060000D02*
X160020000Y-97576000D01*
X160020000Y-97576000D02*
X153630000Y-91186000D01*
X160020000Y-110490000D02*
X157266000Y-110490000D01*
X157266000Y-110490000D02*
X149392000Y-118364000D01*
D33*
X118650000Y-95660000D02*
X120978011Y-97988011D01*
X118650000Y-94810000D02*
X118650000Y-95660000D01*
X120978011Y-97988011D02*
X121144530Y-97988011D01*
X105410000Y-105410000D02*
X104648000Y-104648000D01*
X104648000Y-104648000D02*
X98806000Y-104648000D01*
X111200000Y-105410000D02*
X105410000Y-105410000D01*
X116400000Y-101060000D02*
X115550000Y-101060000D01*
X115550000Y-101060000D02*
X111200000Y-105410000D01*
X115133378Y-100260000D02*
X113158378Y-102235000D01*
X116400000Y-100260000D02*
X115133378Y-100260000D01*
X113158378Y-102235000D02*
X103562685Y-102235000D01*
X103562685Y-102235000D02*
X102997000Y-102235000D01*
X119910001Y-84472999D02*
X98915001Y-84472999D01*
X98915001Y-84472999D02*
X98806000Y-84582000D01*
X119959013Y-84522011D02*
X119910001Y-84472999D01*
X119959013Y-86374009D02*
X119959013Y-84522011D01*
X122029001Y-88443997D02*
X119959013Y-86374009D01*
X122029001Y-91608997D02*
X122029001Y-88443997D01*
X120363999Y-93273999D02*
X122029001Y-91608997D01*
X121050000Y-93960000D02*
X120363999Y-93273999D01*
X121050000Y-94810000D02*
X121050000Y-93960000D01*
X121850000Y-94810000D02*
X121850000Y-93677312D01*
X121850000Y-93677312D02*
X121629979Y-93457291D01*
X119450000Y-94810000D02*
X119450000Y-95660000D01*
X121869532Y-98288759D02*
X121271595Y-98886696D01*
X121271595Y-98886696D02*
X120705910Y-98886696D01*
X121869532Y-97605335D02*
X121869532Y-98288759D01*
X119450000Y-95660000D02*
X120815786Y-97025786D01*
X120815786Y-97025786D02*
X121289983Y-97025786D01*
X121289983Y-97025786D02*
X121869532Y-97605335D01*
X119822079Y-93532079D02*
X119596759Y-93532079D01*
X120250000Y-94810000D02*
X120250000Y-93960000D01*
X120250000Y-93960000D02*
X119822079Y-93532079D01*
X113284000Y-93218000D02*
X113284000Y-92343002D01*
X113284000Y-92343002D02*
X114409001Y-91218001D01*
X114409001Y-91218001D02*
X114409001Y-89263001D01*
X114409001Y-89263001D02*
X114083999Y-88937999D01*
X114083999Y-88937999D02*
X113284000Y-88138000D01*
X121031000Y-79675000D02*
X121031000Y-80772000D01*
X123444000Y-77262000D02*
X121031000Y-79675000D01*
X123444000Y-76962000D02*
X123444000Y-77262000D01*
X123444000Y-76962000D02*
X128132000Y-76962000D01*
X128132000Y-76962000D02*
X130080000Y-78910000D01*
X130080000Y-78910000D02*
X130080000Y-80010000D01*
X122610989Y-93043380D02*
X122210990Y-92643381D01*
X122650000Y-94810000D02*
X122650000Y-93082391D01*
X122650000Y-93082391D02*
X122610989Y-93043380D01*
X97180990Y-117896837D02*
X97180990Y-116799163D01*
X97180990Y-116799163D02*
X98806000Y-115174153D01*
X97957163Y-118673010D02*
X97180990Y-117896837D01*
X104775000Y-119220000D02*
X104225000Y-119220000D01*
X98806000Y-115174153D02*
X98806000Y-114808000D01*
X104225000Y-119220000D02*
X103678010Y-118673010D01*
X103678010Y-118673010D02*
X97957163Y-118673010D01*
X98806000Y-113558000D02*
X98806000Y-114808000D01*
X98806000Y-113538000D02*
X98806000Y-113558000D01*
X106483989Y-105860011D02*
X98806000Y-113538000D01*
X116400000Y-101860000D02*
X115386411Y-101860000D01*
X111386400Y-105860011D02*
X106483989Y-105860011D01*
X115386411Y-101860000D02*
X111386400Y-105860011D01*
X107206341Y-116098000D02*
X100356000Y-116098000D01*
X108585000Y-117476659D02*
X107206341Y-116098000D01*
X108585000Y-119220000D02*
X108585000Y-117476659D01*
X100356000Y-116098000D02*
X99106000Y-117348000D01*
X99106000Y-117348000D02*
X98806000Y-117348000D01*
X100431001Y-116022999D02*
X99106000Y-117348000D01*
X100431001Y-112549409D02*
X100431001Y-116022999D01*
X106670388Y-106310022D02*
X100431001Y-112549409D01*
X111572800Y-106310022D02*
X106670388Y-106310022D01*
X114572822Y-103310000D02*
X111572800Y-106310022D01*
X117850000Y-103310000D02*
X114572822Y-103310000D01*
X122029001Y-82771999D02*
X122029001Y-87100001D01*
X124871156Y-92385391D02*
X124871156Y-92951076D01*
X117044134Y-82186999D02*
X121444001Y-82186999D01*
X116090123Y-81232988D02*
X117044134Y-82186999D01*
X124808001Y-92322236D02*
X124871156Y-92385391D01*
X121444001Y-82186999D02*
X122029001Y-82771999D01*
X115476988Y-81232988D02*
X116090123Y-81232988D01*
X111506000Y-76962000D02*
X111506000Y-77262000D01*
X124808001Y-89879001D02*
X124808001Y-92322236D01*
X111506000Y-77262000D02*
X115476988Y-81232988D01*
X122029001Y-87100001D02*
X124808001Y-89879001D01*
X124900000Y-96260000D02*
X124900000Y-95182000D01*
X124900000Y-95182000D02*
X124841000Y-95123000D01*
X124900000Y-97060000D02*
X125750000Y-97060000D01*
X125984000Y-96826000D02*
X125984000Y-95123000D01*
X125750000Y-97060000D02*
X125984000Y-96826000D01*
X98806000Y-122428000D02*
X105513002Y-122428000D01*
X105513002Y-122428000D02*
X107140010Y-124055008D01*
X107140010Y-124055008D02*
X107140010Y-125184992D01*
X107140010Y-125184992D02*
X107315000Y-125010002D01*
X107315000Y-125010002D02*
X107315000Y-124620000D01*
X108680000Y-129540000D02*
X108680000Y-128440000D01*
X108680000Y-128440000D02*
X107315000Y-127075000D01*
X107315000Y-127075000D02*
X107315000Y-125645000D01*
X107315000Y-125645000D02*
X107315000Y-124620000D01*
X98806000Y-124968000D02*
X99106000Y-124968000D01*
X103678000Y-129540000D02*
X104680000Y-129540000D01*
X99106000Y-124968000D02*
X103678000Y-129540000D01*
X106045000Y-125645000D02*
X106045000Y-124620000D01*
X104680000Y-128440000D02*
X106045000Y-127075000D01*
X106045000Y-127075000D02*
X106045000Y-125645000D01*
X104680000Y-129540000D02*
X104680000Y-128440000D01*
X125603000Y-88646000D02*
X127032078Y-88646000D01*
X127032078Y-88646000D02*
X127053012Y-88625066D01*
X116400000Y-97860000D02*
X117532000Y-97860000D01*
X117532000Y-97860000D02*
X117729000Y-97663000D01*
X124000000Y-94810000D02*
X124850000Y-93960000D01*
X124850000Y-93960000D02*
X128667636Y-93960000D01*
X128667636Y-93960000D02*
X130568000Y-95860364D01*
X130568000Y-95860364D02*
X130568000Y-99230000D01*
X130568000Y-99230000D02*
X129468000Y-100330000D01*
X129468000Y-100330000D02*
X129318000Y-100330000D01*
X123450000Y-94810000D02*
X124000000Y-94810000D01*
X126390000Y-124700000D02*
X124160000Y-124700000D01*
X124160000Y-124700000D02*
X123900000Y-124440000D01*
X123900000Y-124440000D02*
X123900000Y-124290000D01*
X123900000Y-124290000D02*
X122800000Y-123190000D01*
X122800000Y-123190000D02*
X122650000Y-123190000D01*
X118650000Y-125730000D02*
X120110000Y-125730000D01*
X120110000Y-125730000D02*
X121400000Y-124440000D01*
X121400000Y-124440000D02*
X121400000Y-124290000D01*
X121400000Y-124290000D02*
X122500000Y-123190000D01*
X122500000Y-123190000D02*
X122650000Y-123190000D01*
X126390000Y-113270000D02*
X124160000Y-113270000D01*
X124160000Y-113270000D02*
X123900000Y-113010000D01*
X123900000Y-113010000D02*
X123900000Y-112860000D01*
X123900000Y-112860000D02*
X122800000Y-111760000D01*
X122800000Y-111760000D02*
X122650000Y-111760000D01*
X122650000Y-111760000D02*
X121190000Y-111760000D01*
X121190000Y-111760000D02*
X119900000Y-113050000D01*
X119900000Y-113050000D02*
X119900000Y-113200000D01*
X119900000Y-113200000D02*
X118800000Y-114300000D01*
X118800000Y-114300000D02*
X118650000Y-114300000D01*
X109760001Y-106824999D02*
X108679999Y-106824999D01*
X110769988Y-107275010D02*
X110210012Y-107275010D01*
X113573598Y-106374990D02*
X112711795Y-107236793D01*
X116885021Y-105924979D02*
X115321431Y-105924979D01*
X108094999Y-108046410D02*
X106776410Y-108046410D01*
X118650000Y-103310000D02*
X118650000Y-104160000D01*
X111219999Y-106824999D02*
X110769988Y-107275010D01*
X108679999Y-106824999D02*
X108094999Y-107409999D01*
X112300001Y-106824999D02*
X111219999Y-106824999D01*
X108094999Y-107409999D02*
X108094999Y-108046410D01*
X114871421Y-106374989D02*
X113573598Y-106374990D01*
X112711795Y-107236793D02*
X112300001Y-106824999D01*
X106776410Y-108046410D02*
X106680000Y-107950000D01*
X110210012Y-107275010D02*
X109760001Y-106824999D01*
X115321431Y-105924979D02*
X114871421Y-106374989D01*
X118650000Y-104160000D02*
X116885021Y-105924979D01*
X115057823Y-106824999D02*
X115507834Y-106374988D01*
X115507834Y-106374988D02*
X117235012Y-106374988D01*
X113759999Y-106824999D02*
X115057823Y-106824999D01*
X111760000Y-107950000D02*
X112634998Y-107950000D01*
X117235012Y-106374988D02*
X119450000Y-104160000D01*
X112634998Y-107950000D02*
X113759999Y-106824999D01*
X119450000Y-104160000D02*
X119450000Y-103310000D01*
X114300000Y-107950000D02*
X115174998Y-107950000D01*
X115174998Y-107950000D02*
X116299999Y-106824999D01*
X116299999Y-106824999D02*
X117585001Y-106824999D01*
X117585001Y-106824999D02*
X120250000Y-104160000D01*
X120250000Y-104160000D02*
X120250000Y-103310000D01*
X116840000Y-107950000D02*
X117260000Y-107950000D01*
X117260000Y-107950000D02*
X121050000Y-104160000D01*
X121050000Y-104160000D02*
X121050000Y-103310000D01*
X119380000Y-107950000D02*
X121850000Y-105480000D01*
X121850000Y-105480000D02*
X121850000Y-103310000D01*
X121920000Y-107950000D02*
X121920000Y-106818630D01*
X121920000Y-106818630D02*
X122650000Y-106088630D01*
X122650000Y-106088630D02*
X122650000Y-104160000D01*
X122650000Y-104160000D02*
X122650000Y-103310000D01*
X133604000Y-84362000D02*
X133604000Y-83312000D01*
X132278990Y-85687010D02*
X133604000Y-84362000D01*
X130578001Y-101505001D02*
X131992999Y-100090003D01*
X125750000Y-101060000D02*
X126195001Y-101505001D01*
X132278990Y-91480838D02*
X132278990Y-85687010D01*
X131992999Y-91766829D02*
X132278990Y-91480838D01*
X124900000Y-101060000D02*
X125750000Y-101060000D01*
X126195001Y-101505001D02*
X130578001Y-101505001D01*
X131992999Y-100090003D02*
X131992999Y-91766829D01*
X123390563Y-101060000D02*
X123315573Y-100985010D01*
X124900000Y-101060000D02*
X123390563Y-101060000D01*
X116770685Y-95250000D02*
X116205000Y-95250000D01*
X116875002Y-95250000D02*
X116770685Y-95250000D01*
X117872193Y-95735001D02*
X117360003Y-95735001D01*
X121048036Y-100260000D02*
X119154013Y-98365977D01*
X119154013Y-97016821D02*
X117872193Y-95735001D01*
X119154013Y-98365977D02*
X119154013Y-97016821D01*
X117360003Y-95735001D02*
X116875002Y-95250000D01*
X124900000Y-100260000D02*
X121048036Y-100260000D01*
X121811999Y-96538999D02*
X121412000Y-96139000D01*
X122319543Y-97046543D02*
X121811999Y-96538999D01*
X124900000Y-99460000D02*
X123429355Y-99460000D01*
X122319543Y-98350188D02*
X122319543Y-97046543D01*
X123429355Y-99460000D02*
X122319543Y-98350188D01*
X124900000Y-98660000D02*
X123806000Y-98660000D01*
X123806000Y-98660000D02*
X123571000Y-98425000D01*
X125825001Y-97935001D02*
X125825001Y-99307401D01*
X125825001Y-99307401D02*
X126542800Y-100025200D01*
X124900000Y-97860000D02*
X125750000Y-97860000D01*
X125750000Y-97860000D02*
X125825001Y-97935001D01*
X117606573Y-81736988D02*
X116915375Y-81045790D01*
X129488988Y-81736988D02*
X117606573Y-81736988D01*
X131064000Y-83312000D02*
X129488988Y-81736988D01*
X116915375Y-81045790D02*
X116515376Y-80645791D01*
X111379000Y-88265000D02*
X113284000Y-90170000D01*
X113284000Y-90170000D02*
X113284000Y-90678000D01*
D36*
X126390000Y-117870000D02*
X129390000Y-117870000D01*
X129390000Y-117870000D02*
X134890001Y-123370001D01*
X134890001Y-123370001D02*
X134890001Y-129860001D01*
X134890001Y-129860001D02*
X134650001Y-130100001D01*
X134650001Y-130100001D02*
X130190001Y-130100001D01*
X130190001Y-130100001D02*
X129390000Y-129300000D01*
X129390000Y-129300000D02*
X126390000Y-129300000D01*
X134620000Y-107950000D02*
X134620000Y-111743423D01*
X134620000Y-111743423D02*
X134890001Y-112013424D01*
X134890001Y-112013424D02*
X134890001Y-118430001D01*
X134890001Y-118430001D02*
X134650001Y-118670001D01*
X134650001Y-118670001D02*
X130190001Y-118670001D01*
X130190001Y-118670001D02*
X129390000Y-117870000D01*
X139192000Y-88900000D02*
X139192000Y-97888000D01*
X139192000Y-97888000D02*
X138020000Y-99060000D01*
X138843000Y-76454000D02*
X138843000Y-88551000D01*
X138843000Y-88551000D02*
X139192000Y-88900000D01*
X138843000Y-79121000D02*
X138843000Y-76454000D01*
X138343000Y-82169000D02*
X138343000Y-79621000D01*
X138343000Y-79621000D02*
X138843000Y-79121000D01*
X134620000Y-107950000D02*
X138020000Y-104550000D01*
X138020000Y-104550000D02*
X138020000Y-99060000D01*
D37*
G36*
X119747880Y-72505880D02*
X119393457Y-73036312D01*
X119268999Y-73662000D01*
X119269000Y-73662005D01*
X119269000Y-75325520D01*
X118872355Y-75102856D01*
X118744434Y-75071876D01*
X118491000Y-75191223D01*
X118491000Y-76835000D01*
X118511000Y-76835000D01*
X118511000Y-77089000D01*
X118491000Y-77089000D01*
X118491000Y-78732777D01*
X118744434Y-78852124D01*
X118872355Y-78821144D01*
X119430317Y-78507922D01*
X119620781Y-78265812D01*
X119747880Y-78456029D01*
X120278313Y-78810452D01*
X120730751Y-78900447D01*
X120493599Y-79137599D01*
X120328852Y-79384161D01*
X120271000Y-79675000D01*
X120271000Y-80068239D01*
X120154081Y-80184954D01*
X119996180Y-80565223D01*
X119995821Y-80976971D01*
X119995828Y-80976988D01*
X117921375Y-80976988D01*
X117550411Y-80606024D01*
X117550555Y-80440820D01*
X117393318Y-80060276D01*
X117102422Y-79768872D01*
X116722153Y-79610971D01*
X116310405Y-79610612D01*
X115929861Y-79767849D01*
X115638457Y-80058745D01*
X115561905Y-80243103D01*
X114219249Y-78900447D01*
X114671687Y-78810452D01*
X115202120Y-78456029D01*
X115556543Y-77925596D01*
X115681000Y-77299909D01*
X115681000Y-77089000D01*
X116729000Y-77089000D01*
X116729000Y-77389000D01*
X116902058Y-78005020D01*
X117297683Y-78507922D01*
X117855645Y-78821144D01*
X117983566Y-78852124D01*
X118237000Y-78732777D01*
X118237000Y-77089000D01*
X116729000Y-77089000D01*
X115681000Y-77089000D01*
X115681000Y-76624091D01*
X115663279Y-76535000D01*
X116729000Y-76535000D01*
X116729000Y-76835000D01*
X118237000Y-76835000D01*
X118237000Y-75191223D01*
X117983566Y-75071876D01*
X117855645Y-75102856D01*
X117297683Y-75416078D01*
X116902058Y-75918980D01*
X116729000Y-76535000D01*
X115663279Y-76535000D01*
X115556543Y-75998404D01*
X115202120Y-75467971D01*
X114671687Y-75113548D01*
X114046000Y-74989091D01*
X113420313Y-75113548D01*
X112889880Y-75467971D01*
X112776000Y-75638405D01*
X112662120Y-75467971D01*
X112131687Y-75113548D01*
X111506000Y-74989091D01*
X110880313Y-75113548D01*
X110349880Y-75467971D01*
X110236000Y-75638405D01*
X110122120Y-75467971D01*
X109591687Y-75113548D01*
X108966000Y-74989091D01*
X108340313Y-75113548D01*
X107984594Y-75351231D01*
X107964327Y-75302301D01*
X107785698Y-75123673D01*
X107552309Y-75027000D01*
X106711750Y-75027000D01*
X106553000Y-75185750D01*
X106553000Y-76835000D01*
X106573000Y-76835000D01*
X106573000Y-77089000D01*
X106553000Y-77089000D01*
X106553000Y-78738250D01*
X106711750Y-78897000D01*
X107552309Y-78897000D01*
X107785698Y-78800327D01*
X107964327Y-78621699D01*
X107984594Y-78572769D01*
X108340313Y-78810452D01*
X108966000Y-78934909D01*
X109464875Y-78835677D01*
X112500775Y-81871577D01*
X112428866Y-81905611D01*
X112052959Y-82320577D01*
X111892096Y-82708961D01*
X112014085Y-82931000D01*
X113157000Y-82931000D01*
X113157000Y-82911000D01*
X113411000Y-82911000D01*
X113411000Y-82931000D01*
X114553915Y-82931000D01*
X114670943Y-82717990D01*
X115038360Y-82717990D01*
X115155075Y-82834909D01*
X115535344Y-82992810D01*
X115947092Y-82993169D01*
X116327636Y-82835932D01*
X116473077Y-82690744D01*
X116506733Y-82724400D01*
X116753294Y-82889147D01*
X116985189Y-82935274D01*
X116972086Y-82962959D01*
X117093371Y-83185000D01*
X118237000Y-83185000D01*
X118237000Y-83165000D01*
X118491000Y-83165000D01*
X118491000Y-83185000D01*
X118511000Y-83185000D01*
X118511000Y-83439000D01*
X118491000Y-83439000D01*
X118491000Y-83459000D01*
X118237000Y-83459000D01*
X118237000Y-83439000D01*
X117093371Y-83439000D01*
X116972086Y-83661041D01*
X116996677Y-83712999D01*
X114549180Y-83712999D01*
X114675904Y-83407039D01*
X114553915Y-83185000D01*
X113411000Y-83185000D01*
X113411000Y-83205000D01*
X113157000Y-83205000D01*
X113157000Y-83185000D01*
X112014085Y-83185000D01*
X111892096Y-83407039D01*
X112018820Y-83712999D01*
X106947155Y-83712999D01*
X107017880Y-83607151D01*
X107127113Y-83058000D01*
X107017880Y-82508849D01*
X106706811Y-82043302D01*
X106241264Y-81732233D01*
X105692113Y-81623000D01*
X105635887Y-81623000D01*
X105086736Y-81732233D01*
X104621189Y-82043302D01*
X104310120Y-82508849D01*
X104200887Y-83058000D01*
X104310120Y-83607151D01*
X104380845Y-83712999D01*
X100753440Y-83712999D01*
X100753440Y-83582000D01*
X100709162Y-83346683D01*
X100570090Y-83130559D01*
X100415671Y-83025049D01*
X100654452Y-82667687D01*
X100778909Y-82042000D01*
X100654452Y-81416313D01*
X100300029Y-80885880D01*
X99769596Y-80531457D01*
X99143909Y-80407000D01*
X98468091Y-80407000D01*
X97842404Y-80531457D01*
X97311971Y-80885880D01*
X96957548Y-81416313D01*
X96833091Y-82042000D01*
X96957548Y-82667687D01*
X97197093Y-83026192D01*
X97054559Y-83117910D01*
X96909569Y-83330110D01*
X96858560Y-83582000D01*
X96858560Y-85582000D01*
X96902838Y-85817317D01*
X97041910Y-86033441D01*
X97254110Y-86178431D01*
X97506000Y-86229440D01*
X100106000Y-86229440D01*
X100341317Y-86185162D01*
X100557441Y-86046090D01*
X100702431Y-85833890D01*
X100753440Y-85582000D01*
X100753440Y-85232999D01*
X104273490Y-85232999D01*
X104200887Y-85598000D01*
X104310120Y-86147151D01*
X104621189Y-86612698D01*
X105003275Y-86868000D01*
X104621189Y-87123302D01*
X104310120Y-87588849D01*
X104200887Y-88138000D01*
X104310120Y-88687151D01*
X104621189Y-89152698D01*
X105003275Y-89408000D01*
X104621189Y-89663302D01*
X104310120Y-90128849D01*
X104200887Y-90678000D01*
X104310120Y-91227151D01*
X104621189Y-91692698D01*
X105003275Y-91948000D01*
X104621189Y-92203302D01*
X104310120Y-92668849D01*
X104200887Y-93218000D01*
X104278186Y-93606607D01*
X101231790Y-90560210D01*
X101194062Y-90535001D01*
X100944675Y-90368367D01*
X100876148Y-90354736D01*
X100606000Y-90300999D01*
X100605995Y-90301000D01*
X100481185Y-90301000D01*
X100414907Y-90201808D01*
X100557441Y-90110090D01*
X100702431Y-89897890D01*
X100753440Y-89646000D01*
X100753440Y-87646000D01*
X100709162Y-87410683D01*
X100570090Y-87194559D01*
X100357890Y-87049569D01*
X100106000Y-86998560D01*
X97506000Y-86998560D01*
X97270683Y-87042838D01*
X97054559Y-87181910D01*
X96909569Y-87394110D01*
X96858560Y-87646000D01*
X96858560Y-89646000D01*
X96902838Y-89881317D01*
X97041910Y-90097441D01*
X97196329Y-90202951D01*
X96957548Y-90560313D01*
X96833091Y-91186000D01*
X96957548Y-91811687D01*
X97311971Y-92342120D01*
X97842404Y-92696543D01*
X98468091Y-92821000D01*
X99143909Y-92821000D01*
X99769596Y-92696543D01*
X100300029Y-92342120D01*
X100384348Y-92215928D01*
X103302207Y-95133786D01*
X103302209Y-95133789D01*
X103589324Y-95325632D01*
X103618166Y-95331369D01*
X103927999Y-95393000D01*
X103928004Y-95392999D01*
X104273490Y-95392999D01*
X104200887Y-95758000D01*
X104310120Y-96307151D01*
X104547891Y-96663000D01*
X102616005Y-96663000D01*
X102616000Y-96662999D01*
X101997231Y-96786081D01*
X101990313Y-96787457D01*
X101459880Y-97141880D01*
X101459878Y-97141883D01*
X100753440Y-97848321D01*
X100753440Y-96790000D01*
X100709162Y-96554683D01*
X100570090Y-96338559D01*
X100415671Y-96233049D01*
X100654452Y-95875687D01*
X100778909Y-95250000D01*
X100654452Y-94624313D01*
X100300029Y-94093880D01*
X99769596Y-93739457D01*
X99143909Y-93615000D01*
X98468091Y-93615000D01*
X97842404Y-93739457D01*
X97311971Y-94093880D01*
X96957548Y-94624313D01*
X96833091Y-95250000D01*
X96957548Y-95875687D01*
X97197093Y-96234192D01*
X97054559Y-96325910D01*
X96909569Y-96538110D01*
X96858560Y-96790000D01*
X96858560Y-98790000D01*
X96902838Y-99025317D01*
X97041910Y-99241441D01*
X97254110Y-99386431D01*
X97506000Y-99437440D01*
X99164320Y-99437440D01*
X98141200Y-100460560D01*
X97506000Y-100460560D01*
X97270683Y-100504838D01*
X97054559Y-100643910D01*
X96909569Y-100856110D01*
X96858560Y-101108000D01*
X96858560Y-103108000D01*
X96902838Y-103343317D01*
X97041910Y-103559441D01*
X97196329Y-103664951D01*
X96957548Y-104022313D01*
X96833091Y-104648000D01*
X96957548Y-105273687D01*
X97311971Y-105804120D01*
X97502188Y-105931219D01*
X97260078Y-106121683D01*
X96946856Y-106679645D01*
X96915876Y-106807566D01*
X97035223Y-107061000D01*
X98679000Y-107061000D01*
X98679000Y-107041000D01*
X98933000Y-107041000D01*
X98933000Y-107061000D01*
X100576777Y-107061000D01*
X100696124Y-106807566D01*
X100665144Y-106679645D01*
X100351922Y-106121683D01*
X100109812Y-105931219D01*
X100300029Y-105804120D01*
X100564707Y-105408000D01*
X104333198Y-105408000D01*
X104872599Y-105947401D01*
X105119161Y-106112148D01*
X105150764Y-106118434D01*
X98268599Y-113000599D01*
X98161717Y-113160560D01*
X97506000Y-113160560D01*
X97270683Y-113204838D01*
X97054559Y-113343910D01*
X96909569Y-113556110D01*
X96858560Y-113808000D01*
X96858560Y-115808000D01*
X96896376Y-116008975D01*
X96643589Y-116261762D01*
X96478842Y-116508324D01*
X96420990Y-116799163D01*
X96420990Y-117896837D01*
X96478842Y-118187676D01*
X96643589Y-118434238D01*
X97419762Y-119210411D01*
X97666323Y-119375158D01*
X97957163Y-119433010D01*
X103363208Y-119433010D01*
X103687599Y-119757401D01*
X103827560Y-119850920D01*
X103827560Y-119995000D01*
X103871838Y-120230317D01*
X104010910Y-120446441D01*
X104223110Y-120591431D01*
X104475000Y-120642440D01*
X104910000Y-120642440D01*
X104910000Y-120995000D01*
X104996397Y-121429346D01*
X105155861Y-121668000D01*
X100753440Y-121668000D01*
X100753440Y-121428000D01*
X100709162Y-121192683D01*
X100570090Y-120976559D01*
X100357890Y-120831569D01*
X100106000Y-120780560D01*
X97506000Y-120780560D01*
X97270683Y-120824838D01*
X97054559Y-120963910D01*
X96909569Y-121176110D01*
X96858560Y-121428000D01*
X96858560Y-123428000D01*
X96902838Y-123663317D01*
X97041910Y-123879441D01*
X97196329Y-123984951D01*
X96957548Y-124342313D01*
X96833091Y-124968000D01*
X96957548Y-125593687D01*
X97311971Y-126124120D01*
X97842404Y-126478543D01*
X98468091Y-126603000D01*
X99143909Y-126603000D01*
X99579545Y-126516347D01*
X103032560Y-129969362D01*
X103032560Y-130390000D01*
X103076838Y-130625317D01*
X103215910Y-130841441D01*
X103428110Y-130986431D01*
X103680000Y-131037440D01*
X105680000Y-131037440D01*
X105915317Y-130993162D01*
X106131441Y-130854090D01*
X106276431Y-130641890D01*
X106327440Y-130390000D01*
X106327440Y-128690000D01*
X106283162Y-128454683D01*
X106144090Y-128238559D01*
X106032494Y-128162308D01*
X106582401Y-127612401D01*
X106680000Y-127466333D01*
X106777599Y-127612401D01*
X107327464Y-128162266D01*
X107228559Y-128225910D01*
X107083569Y-128438110D01*
X107032560Y-128690000D01*
X107032560Y-130390000D01*
X107076838Y-130625317D01*
X107215910Y-130841441D01*
X107428110Y-130986431D01*
X107680000Y-131037440D01*
X109680000Y-131037440D01*
X109915317Y-130993162D01*
X110131441Y-130854090D01*
X110276431Y-130641890D01*
X110327440Y-130390000D01*
X110327440Y-128690000D01*
X110283162Y-128454683D01*
X110144090Y-128238559D01*
X109931890Y-128093569D01*
X109680000Y-128042560D01*
X109310920Y-128042560D01*
X109217401Y-127902599D01*
X108075000Y-126760198D01*
X108075000Y-125995334D01*
X108158690Y-126030000D01*
X108299250Y-126030000D01*
X108458000Y-125871250D01*
X108458000Y-124747000D01*
X108712000Y-124747000D01*
X108712000Y-125871250D01*
X108870750Y-126030000D01*
X109011310Y-126030000D01*
X109244699Y-125933327D01*
X109423327Y-125754698D01*
X109520000Y-125521309D01*
X109520000Y-124905750D01*
X109361250Y-124747000D01*
X108712000Y-124747000D01*
X108458000Y-124747000D01*
X108438000Y-124747000D01*
X108438000Y-124493000D01*
X108458000Y-124493000D01*
X108458000Y-124473000D01*
X108712000Y-124473000D01*
X108712000Y-124493000D01*
X109361250Y-124493000D01*
X109520000Y-124334250D01*
X109520000Y-124227000D01*
X112814796Y-124227000D01*
X113111369Y-126006438D01*
X113146838Y-126135317D01*
X113285910Y-126351441D01*
X113498110Y-126496431D01*
X113750000Y-126547440D01*
X114173000Y-126547440D01*
X114173000Y-124227000D01*
X114427000Y-124227000D01*
X114427000Y-126547440D01*
X114850000Y-126547440D01*
X114982956Y-126533641D01*
X115219003Y-126431992D01*
X115396905Y-126246516D01*
X115488631Y-126006438D01*
X115785204Y-124227000D01*
X114427000Y-124227000D01*
X114173000Y-124227000D01*
X112814796Y-124227000D01*
X109520000Y-124227000D01*
X109520000Y-123718691D01*
X109423327Y-123485302D01*
X109329435Y-123391409D01*
X109580664Y-123391409D01*
X110015010Y-123305012D01*
X110383230Y-123058975D01*
X110753744Y-122688461D01*
X112558373Y-122688461D01*
X112772463Y-123973000D01*
X114173000Y-123973000D01*
X114173000Y-123953000D01*
X114427000Y-123953000D01*
X114427000Y-123973000D01*
X115827537Y-123973000D01*
X116041627Y-122688461D01*
X117015000Y-122688461D01*
X117015000Y-122904250D01*
X117173750Y-123063000D01*
X118523000Y-123063000D01*
X118523000Y-123043000D01*
X118777000Y-123043000D01*
X118777000Y-123063000D01*
X120126250Y-123063000D01*
X120285000Y-122904250D01*
X120285000Y-122688461D01*
X120326539Y-122688461D01*
X120760885Y-122602064D01*
X121002560Y-122440582D01*
X121002560Y-123612638D01*
X120862599Y-123752599D01*
X120697852Y-123999161D01*
X120680921Y-124084276D01*
X120201226Y-124563972D01*
X120131857Y-124456169D01*
X120188327Y-124399699D01*
X120285000Y-124166310D01*
X120285000Y-123475750D01*
X120126250Y-123317000D01*
X118777000Y-123317000D01*
X118777000Y-123337000D01*
X118523000Y-123337000D01*
X118523000Y-123317000D01*
X117173750Y-123317000D01*
X117015000Y-123475750D01*
X117015000Y-124166310D01*
X117111673Y-124399699D01*
X117169871Y-124457897D01*
X117053569Y-124628110D01*
X117002560Y-124880000D01*
X117002560Y-126580000D01*
X117046838Y-126815317D01*
X117185910Y-127031441D01*
X117188657Y-127033318D01*
X117111673Y-127110301D01*
X117015000Y-127343690D01*
X117015000Y-127984250D01*
X117173750Y-128143000D01*
X118523000Y-128143000D01*
X118523000Y-128123000D01*
X118777000Y-128123000D01*
X118777000Y-128143000D01*
X120126250Y-128143000D01*
X120285000Y-127984250D01*
X120285000Y-127343690D01*
X120188327Y-127110301D01*
X120109833Y-127031808D01*
X120160192Y-126958105D01*
X120189954Y-126987919D01*
X120570223Y-127145820D01*
X120981971Y-127146179D01*
X121150216Y-127076662D01*
X121053569Y-127218110D01*
X121002560Y-127470000D01*
X121002560Y-129070000D01*
X121046838Y-129305317D01*
X121183584Y-129517826D01*
X121053569Y-129708110D01*
X121002560Y-129960000D01*
X121002560Y-131660000D01*
X121046838Y-131895317D01*
X121185910Y-132111441D01*
X121398110Y-132256431D01*
X121650000Y-132307440D01*
X123650000Y-132307440D01*
X123885317Y-132263162D01*
X124101441Y-132124090D01*
X124246431Y-131911890D01*
X124297440Y-131660000D01*
X124297440Y-129960000D01*
X124253162Y-129724683D01*
X124116416Y-129512174D01*
X124246431Y-129321890D01*
X124297440Y-129070000D01*
X124297440Y-127885000D01*
X124767962Y-127885000D01*
X124786838Y-127985317D01*
X124893759Y-128151477D01*
X124793569Y-128298110D01*
X124742560Y-128550000D01*
X124742560Y-130050000D01*
X124786838Y-130285317D01*
X124925910Y-130501441D01*
X125138110Y-130646431D01*
X125390000Y-130697440D01*
X125595042Y-130697440D01*
X125764313Y-130810543D01*
X126390000Y-130935000D01*
X128712761Y-130935000D01*
X129033879Y-131256118D01*
X129033881Y-131256121D01*
X129351852Y-131468582D01*
X129564313Y-131610544D01*
X130190001Y-131735001D01*
X134649996Y-131735001D01*
X134650001Y-131735002D01*
X135275689Y-131610544D01*
X135806121Y-131256121D01*
X136046118Y-131016123D01*
X136046121Y-131016121D01*
X136293139Y-130646431D01*
X136400544Y-130485689D01*
X136525001Y-129860001D01*
X136525001Y-128761952D01*
X136720000Y-128801440D01*
X136835000Y-128801440D01*
X136835000Y-130055995D01*
X136834999Y-130056000D01*
X136959457Y-130681688D01*
X137313880Y-131212120D01*
X137322560Y-131220800D01*
X137322560Y-131356000D01*
X137366838Y-131591317D01*
X137505910Y-131807441D01*
X137718110Y-131952431D01*
X137970000Y-132003440D01*
X138249872Y-132003440D01*
X138344312Y-132066543D01*
X138970000Y-132191001D01*
X139595688Y-132066543D01*
X139690128Y-132003440D01*
X139970000Y-132003440D01*
X140205317Y-131959162D01*
X140421441Y-131820090D01*
X140566431Y-131607890D01*
X140617440Y-131356000D01*
X140617440Y-130841750D01*
X141335000Y-130841750D01*
X141335000Y-131482310D01*
X141431673Y-131715699D01*
X141610302Y-131894327D01*
X141843691Y-131991000D01*
X142684250Y-131991000D01*
X142843000Y-131832250D01*
X142843000Y-130683000D01*
X143097000Y-130683000D01*
X143097000Y-131832250D01*
X143255750Y-131991000D01*
X144096309Y-131991000D01*
X144329698Y-131894327D01*
X144508327Y-131715699D01*
X144605000Y-131482310D01*
X144605000Y-130841750D01*
X144446250Y-130683000D01*
X143097000Y-130683000D01*
X142843000Y-130683000D01*
X141493750Y-130683000D01*
X141335000Y-130841750D01*
X140617440Y-130841750D01*
X140617440Y-129756000D01*
X140593674Y-129629690D01*
X141335000Y-129629690D01*
X141335000Y-130270250D01*
X141493750Y-130429000D01*
X142843000Y-130429000D01*
X142843000Y-129279750D01*
X143097000Y-129279750D01*
X143097000Y-130429000D01*
X144446250Y-130429000D01*
X144605000Y-130270250D01*
X144605000Y-129799012D01*
X156618881Y-129799012D01*
X156627287Y-130847247D01*
X157012257Y-131776647D01*
X157382978Y-131997416D01*
X159078395Y-130302000D01*
X159437605Y-130302000D01*
X161133022Y-131997416D01*
X161503743Y-131776647D01*
X161897119Y-130804988D01*
X161888713Y-129756753D01*
X161503743Y-128827353D01*
X161133022Y-128606584D01*
X159437605Y-130302000D01*
X159078395Y-130302000D01*
X157382978Y-128606584D01*
X157012257Y-128827353D01*
X156618881Y-129799012D01*
X144605000Y-129799012D01*
X144605000Y-129629690D01*
X144508327Y-129396301D01*
X144329698Y-129217673D01*
X144096309Y-129121000D01*
X143255750Y-129121000D01*
X143097000Y-129279750D01*
X142843000Y-129279750D01*
X142684250Y-129121000D01*
X141843691Y-129121000D01*
X141610302Y-129217673D01*
X141431673Y-129396301D01*
X141335000Y-129629690D01*
X140593674Y-129629690D01*
X140573162Y-129520683D01*
X140434090Y-129304559D01*
X140221890Y-129159569D01*
X140105000Y-129135898D01*
X140105000Y-128801440D01*
X140220000Y-128801440D01*
X140455317Y-128757162D01*
X140671441Y-128618090D01*
X140816431Y-128405890D01*
X140867440Y-128154000D01*
X140867440Y-127539750D01*
X141085000Y-127539750D01*
X141085000Y-128280310D01*
X141181673Y-128513699D01*
X141360302Y-128692327D01*
X141593691Y-128789000D01*
X143184250Y-128789000D01*
X143343000Y-128630250D01*
X143343000Y-127381000D01*
X143597000Y-127381000D01*
X143597000Y-128630250D01*
X143755750Y-128789000D01*
X145346309Y-128789000D01*
X145579698Y-128692327D01*
X145758327Y-128513699D01*
X145794248Y-128426978D01*
X157562584Y-128426978D01*
X159258000Y-130122395D01*
X160953416Y-128426978D01*
X160732647Y-128056257D01*
X159760988Y-127662881D01*
X158712753Y-127671287D01*
X157783353Y-128056257D01*
X157562584Y-128426978D01*
X145794248Y-128426978D01*
X145855000Y-128280310D01*
X145855000Y-127539750D01*
X145696250Y-127381000D01*
X143597000Y-127381000D01*
X143343000Y-127381000D01*
X141243750Y-127381000D01*
X141085000Y-127539750D01*
X140867440Y-127539750D01*
X140867440Y-126354000D01*
X140843674Y-126227690D01*
X141085000Y-126227690D01*
X141085000Y-126968250D01*
X141243750Y-127127000D01*
X143343000Y-127127000D01*
X143343000Y-125877750D01*
X143597000Y-125877750D01*
X143597000Y-127127000D01*
X145696250Y-127127000D01*
X145855000Y-126968250D01*
X145855000Y-126227690D01*
X145758327Y-125994301D01*
X145579698Y-125815673D01*
X145346309Y-125719000D01*
X143755750Y-125719000D01*
X143597000Y-125877750D01*
X143343000Y-125877750D01*
X143184250Y-125719000D01*
X141593691Y-125719000D01*
X141360302Y-125815673D01*
X141181673Y-125994301D01*
X141085000Y-126227690D01*
X140843674Y-126227690D01*
X140827000Y-126139080D01*
X140827000Y-121657745D01*
X141863861Y-121657745D01*
X141937995Y-121903864D01*
X142475223Y-122096965D01*
X143045454Y-122069778D01*
X143446005Y-121903864D01*
X143520139Y-121657745D01*
X142692000Y-120829605D01*
X141863861Y-121657745D01*
X140827000Y-121657745D01*
X140827000Y-120650000D01*
X140783881Y-120433223D01*
X141245035Y-120433223D01*
X141272222Y-121003454D01*
X141438136Y-121404005D01*
X141684255Y-121478139D01*
X142512395Y-120650000D01*
X142871605Y-120650000D01*
X143699745Y-121478139D01*
X143945864Y-121404005D01*
X144138965Y-120866777D01*
X144111778Y-120296546D01*
X143945864Y-119895995D01*
X143699745Y-119821861D01*
X142871605Y-120650000D01*
X142512395Y-120650000D01*
X141684255Y-119821861D01*
X141438136Y-119895995D01*
X141245035Y-120433223D01*
X140783881Y-120433223D01*
X140743457Y-120230000D01*
X140702543Y-120024312D01*
X140639440Y-119929872D01*
X140639440Y-119850000D01*
X140600351Y-119642255D01*
X141863861Y-119642255D01*
X142692000Y-120470395D01*
X143520139Y-119642255D01*
X143446005Y-119396136D01*
X142908777Y-119203035D01*
X142338546Y-119230222D01*
X141937995Y-119396136D01*
X141863861Y-119642255D01*
X140600351Y-119642255D01*
X140595162Y-119614683D01*
X140456090Y-119398559D01*
X140243890Y-119253569D01*
X140073253Y-119219014D01*
X139655000Y-118800760D01*
X139655000Y-112156664D01*
X139702389Y-112125000D01*
X152804832Y-112125000D01*
X152804837Y-112125001D01*
X153430525Y-112000543D01*
X153468776Y-111974984D01*
X148236317Y-117207443D01*
X148006722Y-117436637D01*
X147757284Y-118037352D01*
X147756716Y-118687795D01*
X148005106Y-119288943D01*
X148464637Y-119749278D01*
X149065352Y-119998716D01*
X149715795Y-119999284D01*
X150316943Y-119750894D01*
X150551715Y-119516532D01*
X153419073Y-119516532D01*
X153517736Y-119783387D01*
X154127461Y-120009908D01*
X154777460Y-119985856D01*
X155266264Y-119783387D01*
X155364927Y-119516532D01*
X154392000Y-118543605D01*
X153419073Y-119516532D01*
X150551715Y-119516532D01*
X150777278Y-119291363D01*
X150777563Y-119290677D01*
X151968778Y-118099461D01*
X152746092Y-118099461D01*
X152770144Y-118749460D01*
X152972613Y-119238264D01*
X153239468Y-119336927D01*
X154212395Y-118364000D01*
X154571605Y-118364000D01*
X155544532Y-119336927D01*
X155811387Y-119238264D01*
X156037908Y-118628539D01*
X156013856Y-117978540D01*
X155811387Y-117489736D01*
X155544532Y-117391073D01*
X154571605Y-118364000D01*
X154212395Y-118364000D01*
X153239468Y-117391073D01*
X152972613Y-117489736D01*
X152746092Y-118099461D01*
X151968778Y-118099461D01*
X152856771Y-117211468D01*
X153419073Y-117211468D01*
X154392000Y-118184395D01*
X155364927Y-117211468D01*
X155266264Y-116944613D01*
X154656539Y-116718092D01*
X154006540Y-116742144D01*
X153517736Y-116944613D01*
X153419073Y-117211468D01*
X152856771Y-117211468D01*
X157943239Y-112125000D01*
X158337611Y-112125000D01*
X158497019Y-112231513D01*
X159218377Y-112375000D01*
X160821623Y-112375000D01*
X161542981Y-112231513D01*
X162154519Y-111822896D01*
X162563136Y-111211358D01*
X162706623Y-110490000D01*
X162563136Y-109768642D01*
X162154519Y-109157104D01*
X161542981Y-108748487D01*
X160821623Y-108605000D01*
X159218377Y-108605000D01*
X158497019Y-108748487D01*
X158337611Y-108855000D01*
X157266005Y-108855000D01*
X157266000Y-108854999D01*
X156749466Y-108957745D01*
X156640313Y-108979457D01*
X156602061Y-109005016D01*
X163628000Y-101979077D01*
X163628000Y-132894000D01*
X159896708Y-132894000D01*
X160732647Y-132547743D01*
X160953416Y-132177022D01*
X159258000Y-130481605D01*
X157562584Y-132177022D01*
X157783353Y-132547743D01*
X158638626Y-132894000D01*
X93420000Y-132894000D01*
X93420000Y-131415022D01*
X96856584Y-131415022D01*
X97077353Y-131785743D01*
X98049012Y-132179119D01*
X99097247Y-132170713D01*
X100026647Y-131785743D01*
X100141093Y-131593562D01*
X112511369Y-131593562D01*
X112546838Y-131935317D01*
X112685910Y-132151441D01*
X112898110Y-132296431D01*
X113150000Y-132347440D01*
X115450000Y-132347440D01*
X115781274Y-132256270D01*
X115971595Y-132083559D01*
X116079726Y-131850411D01*
X116088631Y-131593562D01*
X116084704Y-131570000D01*
X117002560Y-131570000D01*
X117002560Y-131660000D01*
X117046838Y-131895317D01*
X117185910Y-132111441D01*
X117398110Y-132256431D01*
X117650000Y-132307440D01*
X119650000Y-132307440D01*
X119885317Y-132263162D01*
X120101441Y-132124090D01*
X120246431Y-131911890D01*
X120297440Y-131660000D01*
X120297440Y-129960000D01*
X120253162Y-129724683D01*
X120114090Y-129508559D01*
X120111343Y-129506682D01*
X120188327Y-129429699D01*
X120285000Y-129196310D01*
X120285000Y-128555750D01*
X120126250Y-128397000D01*
X118777000Y-128397000D01*
X118777000Y-128417000D01*
X118523000Y-128417000D01*
X118523000Y-128397000D01*
X117173750Y-128397000D01*
X117015000Y-128555750D01*
X117015000Y-129196310D01*
X117111673Y-129429699D01*
X117190167Y-129508192D01*
X117053569Y-129708110D01*
X117002560Y-129960000D01*
X117002560Y-130050000D01*
X115831371Y-130050000D01*
X115488631Y-127993562D01*
X115453162Y-127864683D01*
X115314090Y-127648559D01*
X115101890Y-127503569D01*
X114850000Y-127452560D01*
X113750000Y-127452560D01*
X113617044Y-127466359D01*
X113380997Y-127568008D01*
X113203095Y-127753484D01*
X113111369Y-127993562D01*
X112511369Y-131593562D01*
X100141093Y-131593562D01*
X100247416Y-131415022D01*
X98552000Y-129719605D01*
X96856584Y-131415022D01*
X93420000Y-131415022D01*
X93420000Y-129037012D01*
X95912881Y-129037012D01*
X95921287Y-130085247D01*
X96306257Y-131014647D01*
X96676978Y-131235416D01*
X98372395Y-129540000D01*
X98731605Y-129540000D01*
X100427022Y-131235416D01*
X100797743Y-131014647D01*
X101191119Y-130042988D01*
X101182713Y-128994753D01*
X100797743Y-128065353D01*
X100427022Y-127844584D01*
X98731605Y-129540000D01*
X98372395Y-129540000D01*
X96676978Y-127844584D01*
X96306257Y-128065353D01*
X95912881Y-129037012D01*
X93420000Y-129037012D01*
X93420000Y-127664978D01*
X96856584Y-127664978D01*
X98552000Y-129360395D01*
X100247416Y-127664978D01*
X100026647Y-127294257D01*
X99054988Y-126900881D01*
X98006753Y-126909287D01*
X97077353Y-127294257D01*
X96856584Y-127664978D01*
X93420000Y-127664978D01*
X93420000Y-109728000D01*
X96833091Y-109728000D01*
X96957548Y-110353687D01*
X97311971Y-110884120D01*
X97842404Y-111238543D01*
X98468091Y-111363000D01*
X99143909Y-111363000D01*
X99769596Y-111238543D01*
X100300029Y-110884120D01*
X100654452Y-110353687D01*
X100778909Y-109728000D01*
X100654452Y-109102313D01*
X100300029Y-108571880D01*
X100109812Y-108444781D01*
X100351922Y-108254317D01*
X100665144Y-107696355D01*
X100696124Y-107568434D01*
X100576777Y-107315000D01*
X98933000Y-107315000D01*
X98933000Y-107335000D01*
X98679000Y-107335000D01*
X98679000Y-107315000D01*
X97035223Y-107315000D01*
X96915876Y-107568434D01*
X96946856Y-107696355D01*
X97260078Y-108254317D01*
X97502188Y-108444781D01*
X97311971Y-108571880D01*
X96957548Y-109102313D01*
X96833091Y-109728000D01*
X93420000Y-109728000D01*
X93420000Y-78075022D01*
X97618584Y-78075022D01*
X97839353Y-78445743D01*
X98811012Y-78839119D01*
X99859247Y-78830713D01*
X100788647Y-78445743D01*
X101009416Y-78075022D01*
X99314000Y-76379605D01*
X97618584Y-78075022D01*
X93420000Y-78075022D01*
X93420000Y-75697012D01*
X96674881Y-75697012D01*
X96683287Y-76745247D01*
X97068257Y-77674647D01*
X97438978Y-77895416D01*
X99134395Y-76200000D01*
X99493605Y-76200000D01*
X101189022Y-77895416D01*
X101559743Y-77674647D01*
X101732572Y-77247750D01*
X104791000Y-77247750D01*
X104791000Y-78388310D01*
X104887673Y-78621699D01*
X105066302Y-78800327D01*
X105299691Y-78897000D01*
X106140250Y-78897000D01*
X106299000Y-78738250D01*
X106299000Y-77089000D01*
X104949750Y-77089000D01*
X104791000Y-77247750D01*
X101732572Y-77247750D01*
X101953119Y-76702988D01*
X101944713Y-75654753D01*
X101895396Y-75535690D01*
X104791000Y-75535690D01*
X104791000Y-76676250D01*
X104949750Y-76835000D01*
X106299000Y-76835000D01*
X106299000Y-75185750D01*
X106140250Y-75027000D01*
X105299691Y-75027000D01*
X105066302Y-75123673D01*
X104887673Y-75302301D01*
X104791000Y-75535690D01*
X101895396Y-75535690D01*
X101559743Y-74725353D01*
X101189022Y-74504584D01*
X99493605Y-76200000D01*
X99134395Y-76200000D01*
X97438978Y-74504584D01*
X97068257Y-74725353D01*
X96674881Y-75697012D01*
X93420000Y-75697012D01*
X93420000Y-74324978D01*
X97618584Y-74324978D01*
X99314000Y-76020395D01*
X101009416Y-74324978D01*
X100788647Y-73954257D01*
X99816988Y-73560881D01*
X98768753Y-73569287D01*
X97839353Y-73954257D01*
X97618584Y-74324978D01*
X93420000Y-74324978D01*
X93420000Y-71576000D01*
X120677761Y-71576000D01*
X119747880Y-72505880D01*
X119747880Y-72505880D01*
G37*
X119747880Y-72505880D02*
X119393457Y-73036312D01*
X119268999Y-73662000D01*
X119269000Y-73662005D01*
X119269000Y-75325520D01*
X118872355Y-75102856D01*
X118744434Y-75071876D01*
X118491000Y-75191223D01*
X118491000Y-76835000D01*
X118511000Y-76835000D01*
X118511000Y-77089000D01*
X118491000Y-77089000D01*
X118491000Y-78732777D01*
X118744434Y-78852124D01*
X118872355Y-78821144D01*
X119430317Y-78507922D01*
X119620781Y-78265812D01*
X119747880Y-78456029D01*
X120278313Y-78810452D01*
X120730751Y-78900447D01*
X120493599Y-79137599D01*
X120328852Y-79384161D01*
X120271000Y-79675000D01*
X120271000Y-80068239D01*
X120154081Y-80184954D01*
X119996180Y-80565223D01*
X119995821Y-80976971D01*
X119995828Y-80976988D01*
X117921375Y-80976988D01*
X117550411Y-80606024D01*
X117550555Y-80440820D01*
X117393318Y-80060276D01*
X117102422Y-79768872D01*
X116722153Y-79610971D01*
X116310405Y-79610612D01*
X115929861Y-79767849D01*
X115638457Y-80058745D01*
X115561905Y-80243103D01*
X114219249Y-78900447D01*
X114671687Y-78810452D01*
X115202120Y-78456029D01*
X115556543Y-77925596D01*
X115681000Y-77299909D01*
X115681000Y-77089000D01*
X116729000Y-77089000D01*
X116729000Y-77389000D01*
X116902058Y-78005020D01*
X117297683Y-78507922D01*
X117855645Y-78821144D01*
X117983566Y-78852124D01*
X118237000Y-78732777D01*
X118237000Y-77089000D01*
X116729000Y-77089000D01*
X115681000Y-77089000D01*
X115681000Y-76624091D01*
X115663279Y-76535000D01*
X116729000Y-76535000D01*
X116729000Y-76835000D01*
X118237000Y-76835000D01*
X118237000Y-75191223D01*
X117983566Y-75071876D01*
X117855645Y-75102856D01*
X117297683Y-75416078D01*
X116902058Y-75918980D01*
X116729000Y-76535000D01*
X115663279Y-76535000D01*
X115556543Y-75998404D01*
X115202120Y-75467971D01*
X114671687Y-75113548D01*
X114046000Y-74989091D01*
X113420313Y-75113548D01*
X112889880Y-75467971D01*
X112776000Y-75638405D01*
X112662120Y-75467971D01*
X112131687Y-75113548D01*
X111506000Y-74989091D01*
X110880313Y-75113548D01*
X110349880Y-75467971D01*
X110236000Y-75638405D01*
X110122120Y-75467971D01*
X109591687Y-75113548D01*
X108966000Y-74989091D01*
X108340313Y-75113548D01*
X107984594Y-75351231D01*
X107964327Y-75302301D01*
X107785698Y-75123673D01*
X107552309Y-75027000D01*
X106711750Y-75027000D01*
X106553000Y-75185750D01*
X106553000Y-76835000D01*
X106573000Y-76835000D01*
X106573000Y-77089000D01*
X106553000Y-77089000D01*
X106553000Y-78738250D01*
X106711750Y-78897000D01*
X107552309Y-78897000D01*
X107785698Y-78800327D01*
X107964327Y-78621699D01*
X107984594Y-78572769D01*
X108340313Y-78810452D01*
X108966000Y-78934909D01*
X109464875Y-78835677D01*
X112500775Y-81871577D01*
X112428866Y-81905611D01*
X112052959Y-82320577D01*
X111892096Y-82708961D01*
X112014085Y-82931000D01*
X113157000Y-82931000D01*
X113157000Y-82911000D01*
X113411000Y-82911000D01*
X113411000Y-82931000D01*
X114553915Y-82931000D01*
X114670943Y-82717990D01*
X115038360Y-82717990D01*
X115155075Y-82834909D01*
X115535344Y-82992810D01*
X115947092Y-82993169D01*
X116327636Y-82835932D01*
X116473077Y-82690744D01*
X116506733Y-82724400D01*
X116753294Y-82889147D01*
X116985189Y-82935274D01*
X116972086Y-82962959D01*
X117093371Y-83185000D01*
X118237000Y-83185000D01*
X118237000Y-83165000D01*
X118491000Y-83165000D01*
X118491000Y-83185000D01*
X118511000Y-83185000D01*
X118511000Y-83439000D01*
X118491000Y-83439000D01*
X118491000Y-83459000D01*
X118237000Y-83459000D01*
X118237000Y-83439000D01*
X117093371Y-83439000D01*
X116972086Y-83661041D01*
X116996677Y-83712999D01*
X114549180Y-83712999D01*
X114675904Y-83407039D01*
X114553915Y-83185000D01*
X113411000Y-83185000D01*
X113411000Y-83205000D01*
X113157000Y-83205000D01*
X113157000Y-83185000D01*
X112014085Y-83185000D01*
X111892096Y-83407039D01*
X112018820Y-83712999D01*
X106947155Y-83712999D01*
X107017880Y-83607151D01*
X107127113Y-83058000D01*
X107017880Y-82508849D01*
X106706811Y-82043302D01*
X106241264Y-81732233D01*
X105692113Y-81623000D01*
X105635887Y-81623000D01*
X105086736Y-81732233D01*
X104621189Y-82043302D01*
X104310120Y-82508849D01*
X104200887Y-83058000D01*
X104310120Y-83607151D01*
X104380845Y-83712999D01*
X100753440Y-83712999D01*
X100753440Y-83582000D01*
X100709162Y-83346683D01*
X100570090Y-83130559D01*
X100415671Y-83025049D01*
X100654452Y-82667687D01*
X100778909Y-82042000D01*
X100654452Y-81416313D01*
X100300029Y-80885880D01*
X99769596Y-80531457D01*
X99143909Y-80407000D01*
X98468091Y-80407000D01*
X97842404Y-80531457D01*
X97311971Y-80885880D01*
X96957548Y-81416313D01*
X96833091Y-82042000D01*
X96957548Y-82667687D01*
X97197093Y-83026192D01*
X97054559Y-83117910D01*
X96909569Y-83330110D01*
X96858560Y-83582000D01*
X96858560Y-85582000D01*
X96902838Y-85817317D01*
X97041910Y-86033441D01*
X97254110Y-86178431D01*
X97506000Y-86229440D01*
X100106000Y-86229440D01*
X100341317Y-86185162D01*
X100557441Y-86046090D01*
X100702431Y-85833890D01*
X100753440Y-85582000D01*
X100753440Y-85232999D01*
X104273490Y-85232999D01*
X104200887Y-85598000D01*
X104310120Y-86147151D01*
X104621189Y-86612698D01*
X105003275Y-86868000D01*
X104621189Y-87123302D01*
X104310120Y-87588849D01*
X104200887Y-88138000D01*
X104310120Y-88687151D01*
X104621189Y-89152698D01*
X105003275Y-89408000D01*
X104621189Y-89663302D01*
X104310120Y-90128849D01*
X104200887Y-90678000D01*
X104310120Y-91227151D01*
X104621189Y-91692698D01*
X105003275Y-91948000D01*
X104621189Y-92203302D01*
X104310120Y-92668849D01*
X104200887Y-93218000D01*
X104278186Y-93606607D01*
X101231790Y-90560210D01*
X101194062Y-90535001D01*
X100944675Y-90368367D01*
X100876148Y-90354736D01*
X100606000Y-90300999D01*
X100605995Y-90301000D01*
X100481185Y-90301000D01*
X100414907Y-90201808D01*
X100557441Y-90110090D01*
X100702431Y-89897890D01*
X100753440Y-89646000D01*
X100753440Y-87646000D01*
X100709162Y-87410683D01*
X100570090Y-87194559D01*
X100357890Y-87049569D01*
X100106000Y-86998560D01*
X97506000Y-86998560D01*
X97270683Y-87042838D01*
X97054559Y-87181910D01*
X96909569Y-87394110D01*
X96858560Y-87646000D01*
X96858560Y-89646000D01*
X96902838Y-89881317D01*
X97041910Y-90097441D01*
X97196329Y-90202951D01*
X96957548Y-90560313D01*
X96833091Y-91186000D01*
X96957548Y-91811687D01*
X97311971Y-92342120D01*
X97842404Y-92696543D01*
X98468091Y-92821000D01*
X99143909Y-92821000D01*
X99769596Y-92696543D01*
X100300029Y-92342120D01*
X100384348Y-92215928D01*
X103302207Y-95133786D01*
X103302209Y-95133789D01*
X103589324Y-95325632D01*
X103618166Y-95331369D01*
X103927999Y-95393000D01*
X103928004Y-95392999D01*
X104273490Y-95392999D01*
X104200887Y-95758000D01*
X104310120Y-96307151D01*
X104547891Y-96663000D01*
X102616005Y-96663000D01*
X102616000Y-96662999D01*
X101997231Y-96786081D01*
X101990313Y-96787457D01*
X101459880Y-97141880D01*
X101459878Y-97141883D01*
X100753440Y-97848321D01*
X100753440Y-96790000D01*
X100709162Y-96554683D01*
X100570090Y-96338559D01*
X100415671Y-96233049D01*
X100654452Y-95875687D01*
X100778909Y-95250000D01*
X100654452Y-94624313D01*
X100300029Y-94093880D01*
X99769596Y-93739457D01*
X99143909Y-93615000D01*
X98468091Y-93615000D01*
X97842404Y-93739457D01*
X97311971Y-94093880D01*
X96957548Y-94624313D01*
X96833091Y-95250000D01*
X96957548Y-95875687D01*
X97197093Y-96234192D01*
X97054559Y-96325910D01*
X96909569Y-96538110D01*
X96858560Y-96790000D01*
X96858560Y-98790000D01*
X96902838Y-99025317D01*
X97041910Y-99241441D01*
X97254110Y-99386431D01*
X97506000Y-99437440D01*
X99164320Y-99437440D01*
X98141200Y-100460560D01*
X97506000Y-100460560D01*
X97270683Y-100504838D01*
X97054559Y-100643910D01*
X96909569Y-100856110D01*
X96858560Y-101108000D01*
X96858560Y-103108000D01*
X96902838Y-103343317D01*
X97041910Y-103559441D01*
X97196329Y-103664951D01*
X96957548Y-104022313D01*
X96833091Y-104648000D01*
X96957548Y-105273687D01*
X97311971Y-105804120D01*
X97502188Y-105931219D01*
X97260078Y-106121683D01*
X96946856Y-106679645D01*
X96915876Y-106807566D01*
X97035223Y-107061000D01*
X98679000Y-107061000D01*
X98679000Y-107041000D01*
X98933000Y-107041000D01*
X98933000Y-107061000D01*
X100576777Y-107061000D01*
X100696124Y-106807566D01*
X100665144Y-106679645D01*
X100351922Y-106121683D01*
X100109812Y-105931219D01*
X100300029Y-105804120D01*
X100564707Y-105408000D01*
X104333198Y-105408000D01*
X104872599Y-105947401D01*
X105119161Y-106112148D01*
X105150764Y-106118434D01*
X98268599Y-113000599D01*
X98161717Y-113160560D01*
X97506000Y-113160560D01*
X97270683Y-113204838D01*
X97054559Y-113343910D01*
X96909569Y-113556110D01*
X96858560Y-113808000D01*
X96858560Y-115808000D01*
X96896376Y-116008975D01*
X96643589Y-116261762D01*
X96478842Y-116508324D01*
X96420990Y-116799163D01*
X96420990Y-117896837D01*
X96478842Y-118187676D01*
X96643589Y-118434238D01*
X97419762Y-119210411D01*
X97666323Y-119375158D01*
X97957163Y-119433010D01*
X103363208Y-119433010D01*
X103687599Y-119757401D01*
X103827560Y-119850920D01*
X103827560Y-119995000D01*
X103871838Y-120230317D01*
X104010910Y-120446441D01*
X104223110Y-120591431D01*
X104475000Y-120642440D01*
X104910000Y-120642440D01*
X104910000Y-120995000D01*
X104996397Y-121429346D01*
X105155861Y-121668000D01*
X100753440Y-121668000D01*
X100753440Y-121428000D01*
X100709162Y-121192683D01*
X100570090Y-120976559D01*
X100357890Y-120831569D01*
X100106000Y-120780560D01*
X97506000Y-120780560D01*
X97270683Y-120824838D01*
X97054559Y-120963910D01*
X96909569Y-121176110D01*
X96858560Y-121428000D01*
X96858560Y-123428000D01*
X96902838Y-123663317D01*
X97041910Y-123879441D01*
X97196329Y-123984951D01*
X96957548Y-124342313D01*
X96833091Y-124968000D01*
X96957548Y-125593687D01*
X97311971Y-126124120D01*
X97842404Y-126478543D01*
X98468091Y-126603000D01*
X99143909Y-126603000D01*
X99579545Y-126516347D01*
X103032560Y-129969362D01*
X103032560Y-130390000D01*
X103076838Y-130625317D01*
X103215910Y-130841441D01*
X103428110Y-130986431D01*
X103680000Y-131037440D01*
X105680000Y-131037440D01*
X105915317Y-130993162D01*
X106131441Y-130854090D01*
X106276431Y-130641890D01*
X106327440Y-130390000D01*
X106327440Y-128690000D01*
X106283162Y-128454683D01*
X106144090Y-128238559D01*
X106032494Y-128162308D01*
X106582401Y-127612401D01*
X106680000Y-127466333D01*
X106777599Y-127612401D01*
X107327464Y-128162266D01*
X107228559Y-128225910D01*
X107083569Y-128438110D01*
X107032560Y-128690000D01*
X107032560Y-130390000D01*
X107076838Y-130625317D01*
X107215910Y-130841441D01*
X107428110Y-130986431D01*
X107680000Y-131037440D01*
X109680000Y-131037440D01*
X109915317Y-130993162D01*
X110131441Y-130854090D01*
X110276431Y-130641890D01*
X110327440Y-130390000D01*
X110327440Y-128690000D01*
X110283162Y-128454683D01*
X110144090Y-128238559D01*
X109931890Y-128093569D01*
X109680000Y-128042560D01*
X109310920Y-128042560D01*
X109217401Y-127902599D01*
X108075000Y-126760198D01*
X108075000Y-125995334D01*
X108158690Y-126030000D01*
X108299250Y-126030000D01*
X108458000Y-125871250D01*
X108458000Y-124747000D01*
X108712000Y-124747000D01*
X108712000Y-125871250D01*
X108870750Y-126030000D01*
X109011310Y-126030000D01*
X109244699Y-125933327D01*
X109423327Y-125754698D01*
X109520000Y-125521309D01*
X109520000Y-124905750D01*
X109361250Y-124747000D01*
X108712000Y-124747000D01*
X108458000Y-124747000D01*
X108438000Y-124747000D01*
X108438000Y-124493000D01*
X108458000Y-124493000D01*
X108458000Y-124473000D01*
X108712000Y-124473000D01*
X108712000Y-124493000D01*
X109361250Y-124493000D01*
X109520000Y-124334250D01*
X109520000Y-124227000D01*
X112814796Y-124227000D01*
X113111369Y-126006438D01*
X113146838Y-126135317D01*
X113285910Y-126351441D01*
X113498110Y-126496431D01*
X113750000Y-126547440D01*
X114173000Y-126547440D01*
X114173000Y-124227000D01*
X114427000Y-124227000D01*
X114427000Y-126547440D01*
X114850000Y-126547440D01*
X114982956Y-126533641D01*
X115219003Y-126431992D01*
X115396905Y-126246516D01*
X115488631Y-126006438D01*
X115785204Y-124227000D01*
X114427000Y-124227000D01*
X114173000Y-124227000D01*
X112814796Y-124227000D01*
X109520000Y-124227000D01*
X109520000Y-123718691D01*
X109423327Y-123485302D01*
X109329435Y-123391409D01*
X109580664Y-123391409D01*
X110015010Y-123305012D01*
X110383230Y-123058975D01*
X110753744Y-122688461D01*
X112558373Y-122688461D01*
X112772463Y-123973000D01*
X114173000Y-123973000D01*
X114173000Y-123953000D01*
X114427000Y-123953000D01*
X114427000Y-123973000D01*
X115827537Y-123973000D01*
X116041627Y-122688461D01*
X117015000Y-122688461D01*
X117015000Y-122904250D01*
X117173750Y-123063000D01*
X118523000Y-123063000D01*
X118523000Y-123043000D01*
X118777000Y-123043000D01*
X118777000Y-123063000D01*
X120126250Y-123063000D01*
X120285000Y-122904250D01*
X120285000Y-122688461D01*
X120326539Y-122688461D01*
X120760885Y-122602064D01*
X121002560Y-122440582D01*
X121002560Y-123612638D01*
X120862599Y-123752599D01*
X120697852Y-123999161D01*
X120680921Y-124084276D01*
X120201226Y-124563972D01*
X120131857Y-124456169D01*
X120188327Y-124399699D01*
X120285000Y-124166310D01*
X120285000Y-123475750D01*
X120126250Y-123317000D01*
X118777000Y-123317000D01*
X118777000Y-123337000D01*
X118523000Y-123337000D01*
X118523000Y-123317000D01*
X117173750Y-123317000D01*
X117015000Y-123475750D01*
X117015000Y-124166310D01*
X117111673Y-124399699D01*
X117169871Y-124457897D01*
X117053569Y-124628110D01*
X117002560Y-124880000D01*
X117002560Y-126580000D01*
X117046838Y-126815317D01*
X117185910Y-127031441D01*
X117188657Y-127033318D01*
X117111673Y-127110301D01*
X117015000Y-127343690D01*
X117015000Y-127984250D01*
X117173750Y-128143000D01*
X118523000Y-128143000D01*
X118523000Y-128123000D01*
X118777000Y-128123000D01*
X118777000Y-128143000D01*
X120126250Y-128143000D01*
X120285000Y-127984250D01*
X120285000Y-127343690D01*
X120188327Y-127110301D01*
X120109833Y-127031808D01*
X120160192Y-126958105D01*
X120189954Y-126987919D01*
X120570223Y-127145820D01*
X120981971Y-127146179D01*
X121150216Y-127076662D01*
X121053569Y-127218110D01*
X121002560Y-127470000D01*
X121002560Y-129070000D01*
X121046838Y-129305317D01*
X121183584Y-129517826D01*
X121053569Y-129708110D01*
X121002560Y-129960000D01*
X121002560Y-131660000D01*
X121046838Y-131895317D01*
X121185910Y-132111441D01*
X121398110Y-132256431D01*
X121650000Y-132307440D01*
X123650000Y-132307440D01*
X123885317Y-132263162D01*
X124101441Y-132124090D01*
X124246431Y-131911890D01*
X124297440Y-131660000D01*
X124297440Y-129960000D01*
X124253162Y-129724683D01*
X124116416Y-129512174D01*
X124246431Y-129321890D01*
X124297440Y-129070000D01*
X124297440Y-127885000D01*
X124767962Y-127885000D01*
X124786838Y-127985317D01*
X124893759Y-128151477D01*
X124793569Y-128298110D01*
X124742560Y-128550000D01*
X124742560Y-130050000D01*
X124786838Y-130285317D01*
X124925910Y-130501441D01*
X125138110Y-130646431D01*
X125390000Y-130697440D01*
X125595042Y-130697440D01*
X125764313Y-130810543D01*
X126390000Y-130935000D01*
X128712761Y-130935000D01*
X129033879Y-131256118D01*
X129033881Y-131256121D01*
X129351852Y-131468582D01*
X129564313Y-131610544D01*
X130190001Y-131735001D01*
X134649996Y-131735001D01*
X134650001Y-131735002D01*
X135275689Y-131610544D01*
X135806121Y-131256121D01*
X136046118Y-131016123D01*
X136046121Y-131016121D01*
X136293139Y-130646431D01*
X136400544Y-130485689D01*
X136525001Y-129860001D01*
X136525001Y-128761952D01*
X136720000Y-128801440D01*
X136835000Y-128801440D01*
X136835000Y-130055995D01*
X136834999Y-130056000D01*
X136959457Y-130681688D01*
X137313880Y-131212120D01*
X137322560Y-131220800D01*
X137322560Y-131356000D01*
X137366838Y-131591317D01*
X137505910Y-131807441D01*
X137718110Y-131952431D01*
X137970000Y-132003440D01*
X138249872Y-132003440D01*
X138344312Y-132066543D01*
X138970000Y-132191001D01*
X139595688Y-132066543D01*
X139690128Y-132003440D01*
X139970000Y-132003440D01*
X140205317Y-131959162D01*
X140421441Y-131820090D01*
X140566431Y-131607890D01*
X140617440Y-131356000D01*
X140617440Y-130841750D01*
X141335000Y-130841750D01*
X141335000Y-131482310D01*
X141431673Y-131715699D01*
X141610302Y-131894327D01*
X141843691Y-131991000D01*
X142684250Y-131991000D01*
X142843000Y-131832250D01*
X142843000Y-130683000D01*
X143097000Y-130683000D01*
X143097000Y-131832250D01*
X143255750Y-131991000D01*
X144096309Y-131991000D01*
X144329698Y-131894327D01*
X144508327Y-131715699D01*
X144605000Y-131482310D01*
X144605000Y-130841750D01*
X144446250Y-130683000D01*
X143097000Y-130683000D01*
X142843000Y-130683000D01*
X141493750Y-130683000D01*
X141335000Y-130841750D01*
X140617440Y-130841750D01*
X140617440Y-129756000D01*
X140593674Y-129629690D01*
X141335000Y-129629690D01*
X141335000Y-130270250D01*
X141493750Y-130429000D01*
X142843000Y-130429000D01*
X142843000Y-129279750D01*
X143097000Y-129279750D01*
X143097000Y-130429000D01*
X144446250Y-130429000D01*
X144605000Y-130270250D01*
X144605000Y-129799012D01*
X156618881Y-129799012D01*
X156627287Y-130847247D01*
X157012257Y-131776647D01*
X157382978Y-131997416D01*
X159078395Y-130302000D01*
X159437605Y-130302000D01*
X161133022Y-131997416D01*
X161503743Y-131776647D01*
X161897119Y-130804988D01*
X161888713Y-129756753D01*
X161503743Y-128827353D01*
X161133022Y-128606584D01*
X159437605Y-130302000D01*
X159078395Y-130302000D01*
X157382978Y-128606584D01*
X157012257Y-128827353D01*
X156618881Y-129799012D01*
X144605000Y-129799012D01*
X144605000Y-129629690D01*
X144508327Y-129396301D01*
X144329698Y-129217673D01*
X144096309Y-129121000D01*
X143255750Y-129121000D01*
X143097000Y-129279750D01*
X142843000Y-129279750D01*
X142684250Y-129121000D01*
X141843691Y-129121000D01*
X141610302Y-129217673D01*
X141431673Y-129396301D01*
X141335000Y-129629690D01*
X140593674Y-129629690D01*
X140573162Y-129520683D01*
X140434090Y-129304559D01*
X140221890Y-129159569D01*
X140105000Y-129135898D01*
X140105000Y-128801440D01*
X140220000Y-128801440D01*
X140455317Y-128757162D01*
X140671441Y-128618090D01*
X140816431Y-128405890D01*
X140867440Y-128154000D01*
X140867440Y-127539750D01*
X141085000Y-127539750D01*
X141085000Y-128280310D01*
X141181673Y-128513699D01*
X141360302Y-128692327D01*
X141593691Y-128789000D01*
X143184250Y-128789000D01*
X143343000Y-128630250D01*
X143343000Y-127381000D01*
X143597000Y-127381000D01*
X143597000Y-128630250D01*
X143755750Y-128789000D01*
X145346309Y-128789000D01*
X145579698Y-128692327D01*
X145758327Y-128513699D01*
X145794248Y-128426978D01*
X157562584Y-128426978D01*
X159258000Y-130122395D01*
X160953416Y-128426978D01*
X160732647Y-128056257D01*
X159760988Y-127662881D01*
X158712753Y-127671287D01*
X157783353Y-128056257D01*
X157562584Y-128426978D01*
X145794248Y-128426978D01*
X145855000Y-128280310D01*
X145855000Y-127539750D01*
X145696250Y-127381000D01*
X143597000Y-127381000D01*
X143343000Y-127381000D01*
X141243750Y-127381000D01*
X141085000Y-127539750D01*
X140867440Y-127539750D01*
X140867440Y-126354000D01*
X140843674Y-126227690D01*
X141085000Y-126227690D01*
X141085000Y-126968250D01*
X141243750Y-127127000D01*
X143343000Y-127127000D01*
X143343000Y-125877750D01*
X143597000Y-125877750D01*
X143597000Y-127127000D01*
X145696250Y-127127000D01*
X145855000Y-126968250D01*
X145855000Y-126227690D01*
X145758327Y-125994301D01*
X145579698Y-125815673D01*
X145346309Y-125719000D01*
X143755750Y-125719000D01*
X143597000Y-125877750D01*
X143343000Y-125877750D01*
X143184250Y-125719000D01*
X141593691Y-125719000D01*
X141360302Y-125815673D01*
X141181673Y-125994301D01*
X141085000Y-126227690D01*
X140843674Y-126227690D01*
X140827000Y-126139080D01*
X140827000Y-121657745D01*
X141863861Y-121657745D01*
X141937995Y-121903864D01*
X142475223Y-122096965D01*
X143045454Y-122069778D01*
X143446005Y-121903864D01*
X143520139Y-121657745D01*
X142692000Y-120829605D01*
X141863861Y-121657745D01*
X140827000Y-121657745D01*
X140827000Y-120650000D01*
X140783881Y-120433223D01*
X141245035Y-120433223D01*
X141272222Y-121003454D01*
X141438136Y-121404005D01*
X141684255Y-121478139D01*
X142512395Y-120650000D01*
X142871605Y-120650000D01*
X143699745Y-121478139D01*
X143945864Y-121404005D01*
X144138965Y-120866777D01*
X144111778Y-120296546D01*
X143945864Y-119895995D01*
X143699745Y-119821861D01*
X142871605Y-120650000D01*
X142512395Y-120650000D01*
X141684255Y-119821861D01*
X141438136Y-119895995D01*
X141245035Y-120433223D01*
X140783881Y-120433223D01*
X140743457Y-120230000D01*
X140702543Y-120024312D01*
X140639440Y-119929872D01*
X140639440Y-119850000D01*
X140600351Y-119642255D01*
X141863861Y-119642255D01*
X142692000Y-120470395D01*
X143520139Y-119642255D01*
X143446005Y-119396136D01*
X142908777Y-119203035D01*
X142338546Y-119230222D01*
X141937995Y-119396136D01*
X141863861Y-119642255D01*
X140600351Y-119642255D01*
X140595162Y-119614683D01*
X140456090Y-119398559D01*
X140243890Y-119253569D01*
X140073253Y-119219014D01*
X139655000Y-118800760D01*
X139655000Y-112156664D01*
X139702389Y-112125000D01*
X152804832Y-112125000D01*
X152804837Y-112125001D01*
X153430525Y-112000543D01*
X153468776Y-111974984D01*
X148236317Y-117207443D01*
X148006722Y-117436637D01*
X147757284Y-118037352D01*
X147756716Y-118687795D01*
X148005106Y-119288943D01*
X148464637Y-119749278D01*
X149065352Y-119998716D01*
X149715795Y-119999284D01*
X150316943Y-119750894D01*
X150551715Y-119516532D01*
X153419073Y-119516532D01*
X153517736Y-119783387D01*
X154127461Y-120009908D01*
X154777460Y-119985856D01*
X155266264Y-119783387D01*
X155364927Y-119516532D01*
X154392000Y-118543605D01*
X153419073Y-119516532D01*
X150551715Y-119516532D01*
X150777278Y-119291363D01*
X150777563Y-119290677D01*
X151968778Y-118099461D01*
X152746092Y-118099461D01*
X152770144Y-118749460D01*
X152972613Y-119238264D01*
X153239468Y-119336927D01*
X154212395Y-118364000D01*
X154571605Y-118364000D01*
X155544532Y-119336927D01*
X155811387Y-119238264D01*
X156037908Y-118628539D01*
X156013856Y-117978540D01*
X155811387Y-117489736D01*
X155544532Y-117391073D01*
X154571605Y-118364000D01*
X154212395Y-118364000D01*
X153239468Y-117391073D01*
X152972613Y-117489736D01*
X152746092Y-118099461D01*
X151968778Y-118099461D01*
X152856771Y-117211468D01*
X153419073Y-117211468D01*
X154392000Y-118184395D01*
X155364927Y-117211468D01*
X155266264Y-116944613D01*
X154656539Y-116718092D01*
X154006540Y-116742144D01*
X153517736Y-116944613D01*
X153419073Y-117211468D01*
X152856771Y-117211468D01*
X157943239Y-112125000D01*
X158337611Y-112125000D01*
X158497019Y-112231513D01*
X159218377Y-112375000D01*
X160821623Y-112375000D01*
X161542981Y-112231513D01*
X162154519Y-111822896D01*
X162563136Y-111211358D01*
X162706623Y-110490000D01*
X162563136Y-109768642D01*
X162154519Y-109157104D01*
X161542981Y-108748487D01*
X160821623Y-108605000D01*
X159218377Y-108605000D01*
X158497019Y-108748487D01*
X158337611Y-108855000D01*
X157266005Y-108855000D01*
X157266000Y-108854999D01*
X156749466Y-108957745D01*
X156640313Y-108979457D01*
X156602061Y-109005016D01*
X163628000Y-101979077D01*
X163628000Y-132894000D01*
X159896708Y-132894000D01*
X160732647Y-132547743D01*
X160953416Y-132177022D01*
X159258000Y-130481605D01*
X157562584Y-132177022D01*
X157783353Y-132547743D01*
X158638626Y-132894000D01*
X93420000Y-132894000D01*
X93420000Y-131415022D01*
X96856584Y-131415022D01*
X97077353Y-131785743D01*
X98049012Y-132179119D01*
X99097247Y-132170713D01*
X100026647Y-131785743D01*
X100141093Y-131593562D01*
X112511369Y-131593562D01*
X112546838Y-131935317D01*
X112685910Y-132151441D01*
X112898110Y-132296431D01*
X113150000Y-132347440D01*
X115450000Y-132347440D01*
X115781274Y-132256270D01*
X115971595Y-132083559D01*
X116079726Y-131850411D01*
X116088631Y-131593562D01*
X116084704Y-131570000D01*
X117002560Y-131570000D01*
X117002560Y-131660000D01*
X117046838Y-131895317D01*
X117185910Y-132111441D01*
X117398110Y-132256431D01*
X117650000Y-132307440D01*
X119650000Y-132307440D01*
X119885317Y-132263162D01*
X120101441Y-132124090D01*
X120246431Y-131911890D01*
X120297440Y-131660000D01*
X120297440Y-129960000D01*
X120253162Y-129724683D01*
X120114090Y-129508559D01*
X120111343Y-129506682D01*
X120188327Y-129429699D01*
X120285000Y-129196310D01*
X120285000Y-128555750D01*
X120126250Y-128397000D01*
X118777000Y-128397000D01*
X118777000Y-128417000D01*
X118523000Y-128417000D01*
X118523000Y-128397000D01*
X117173750Y-128397000D01*
X117015000Y-128555750D01*
X117015000Y-129196310D01*
X117111673Y-129429699D01*
X117190167Y-129508192D01*
X117053569Y-129708110D01*
X117002560Y-129960000D01*
X117002560Y-130050000D01*
X115831371Y-130050000D01*
X115488631Y-127993562D01*
X115453162Y-127864683D01*
X115314090Y-127648559D01*
X115101890Y-127503569D01*
X114850000Y-127452560D01*
X113750000Y-127452560D01*
X113617044Y-127466359D01*
X113380997Y-127568008D01*
X113203095Y-127753484D01*
X113111369Y-127993562D01*
X112511369Y-131593562D01*
X100141093Y-131593562D01*
X100247416Y-131415022D01*
X98552000Y-129719605D01*
X96856584Y-131415022D01*
X93420000Y-131415022D01*
X93420000Y-129037012D01*
X95912881Y-129037012D01*
X95921287Y-130085247D01*
X96306257Y-131014647D01*
X96676978Y-131235416D01*
X98372395Y-129540000D01*
X98731605Y-129540000D01*
X100427022Y-131235416D01*
X100797743Y-131014647D01*
X101191119Y-130042988D01*
X101182713Y-128994753D01*
X100797743Y-128065353D01*
X100427022Y-127844584D01*
X98731605Y-129540000D01*
X98372395Y-129540000D01*
X96676978Y-127844584D01*
X96306257Y-128065353D01*
X95912881Y-129037012D01*
X93420000Y-129037012D01*
X93420000Y-127664978D01*
X96856584Y-127664978D01*
X98552000Y-129360395D01*
X100247416Y-127664978D01*
X100026647Y-127294257D01*
X99054988Y-126900881D01*
X98006753Y-126909287D01*
X97077353Y-127294257D01*
X96856584Y-127664978D01*
X93420000Y-127664978D01*
X93420000Y-109728000D01*
X96833091Y-109728000D01*
X96957548Y-110353687D01*
X97311971Y-110884120D01*
X97842404Y-111238543D01*
X98468091Y-111363000D01*
X99143909Y-111363000D01*
X99769596Y-111238543D01*
X100300029Y-110884120D01*
X100654452Y-110353687D01*
X100778909Y-109728000D01*
X100654452Y-109102313D01*
X100300029Y-108571880D01*
X100109812Y-108444781D01*
X100351922Y-108254317D01*
X100665144Y-107696355D01*
X100696124Y-107568434D01*
X100576777Y-107315000D01*
X98933000Y-107315000D01*
X98933000Y-107335000D01*
X98679000Y-107335000D01*
X98679000Y-107315000D01*
X97035223Y-107315000D01*
X96915876Y-107568434D01*
X96946856Y-107696355D01*
X97260078Y-108254317D01*
X97502188Y-108444781D01*
X97311971Y-108571880D01*
X96957548Y-109102313D01*
X96833091Y-109728000D01*
X93420000Y-109728000D01*
X93420000Y-78075022D01*
X97618584Y-78075022D01*
X97839353Y-78445743D01*
X98811012Y-78839119D01*
X99859247Y-78830713D01*
X100788647Y-78445743D01*
X101009416Y-78075022D01*
X99314000Y-76379605D01*
X97618584Y-78075022D01*
X93420000Y-78075022D01*
X93420000Y-75697012D01*
X96674881Y-75697012D01*
X96683287Y-76745247D01*
X97068257Y-77674647D01*
X97438978Y-77895416D01*
X99134395Y-76200000D01*
X99493605Y-76200000D01*
X101189022Y-77895416D01*
X101559743Y-77674647D01*
X101732572Y-77247750D01*
X104791000Y-77247750D01*
X104791000Y-78388310D01*
X104887673Y-78621699D01*
X105066302Y-78800327D01*
X105299691Y-78897000D01*
X106140250Y-78897000D01*
X106299000Y-78738250D01*
X106299000Y-77089000D01*
X104949750Y-77089000D01*
X104791000Y-77247750D01*
X101732572Y-77247750D01*
X101953119Y-76702988D01*
X101944713Y-75654753D01*
X101895396Y-75535690D01*
X104791000Y-75535690D01*
X104791000Y-76676250D01*
X104949750Y-76835000D01*
X106299000Y-76835000D01*
X106299000Y-75185750D01*
X106140250Y-75027000D01*
X105299691Y-75027000D01*
X105066302Y-75123673D01*
X104887673Y-75302301D01*
X104791000Y-75535690D01*
X101895396Y-75535690D01*
X101559743Y-74725353D01*
X101189022Y-74504584D01*
X99493605Y-76200000D01*
X99134395Y-76200000D01*
X97438978Y-74504584D01*
X97068257Y-74725353D01*
X96674881Y-75697012D01*
X93420000Y-75697012D01*
X93420000Y-74324978D01*
X97618584Y-74324978D01*
X99314000Y-76020395D01*
X101009416Y-74324978D01*
X100788647Y-73954257D01*
X99816988Y-73560881D01*
X98768753Y-73569287D01*
X97839353Y-73954257D01*
X97618584Y-74324978D01*
X93420000Y-74324978D01*
X93420000Y-71576000D01*
X120677761Y-71576000D01*
X119747880Y-72505880D01*
G36*
X135538466Y-98246448D02*
X135476864Y-98338642D01*
X135333377Y-99060000D01*
X135476864Y-99781358D01*
X135885481Y-100392896D01*
X136385000Y-100726664D01*
X136385000Y-103872760D01*
X135343000Y-104914760D01*
X135343000Y-104425750D01*
X135184250Y-104267000D01*
X133985000Y-104267000D01*
X133985000Y-105466250D01*
X134143750Y-105625000D01*
X134632760Y-105625000D01*
X133463880Y-106793880D01*
X133218429Y-107161224D01*
X133087745Y-107121861D01*
X132259605Y-107950000D01*
X132273748Y-107964142D01*
X132094142Y-108143748D01*
X132080000Y-108129605D01*
X131251861Y-108957745D01*
X131325995Y-109203864D01*
X131863223Y-109396965D01*
X132433454Y-109369778D01*
X132834005Y-109203864D01*
X132908139Y-108957747D01*
X132985000Y-109034608D01*
X132985000Y-111449775D01*
X132610854Y-111524197D01*
X132242634Y-111770234D01*
X131996597Y-112138454D01*
X131910200Y-112572800D01*
X131910200Y-113022560D01*
X131690000Y-113022560D01*
X131454683Y-113066838D01*
X131238559Y-113205910D01*
X131093569Y-113418110D01*
X131042560Y-113670000D01*
X131042560Y-113935000D01*
X128037440Y-113935000D01*
X128037440Y-112520000D01*
X127993162Y-112284683D01*
X127854090Y-112068559D01*
X127641890Y-111923569D01*
X127390000Y-111872560D01*
X125390000Y-111872560D01*
X125154683Y-111916838D01*
X124938559Y-112055910D01*
X124793569Y-112268110D01*
X124744585Y-112510000D01*
X124562618Y-112510000D01*
X124437401Y-112322599D01*
X124297440Y-112182638D01*
X124297440Y-110910000D01*
X124253162Y-110674683D01*
X124114090Y-110458559D01*
X123901890Y-110313569D01*
X123650000Y-110262560D01*
X121650000Y-110262560D01*
X121414683Y-110306838D01*
X121198559Y-110445910D01*
X121053569Y-110658110D01*
X121002560Y-110910000D01*
X121002560Y-111037284D01*
X120899161Y-111057852D01*
X120899159Y-111057853D01*
X120899160Y-111057853D01*
X120652598Y-111222599D01*
X120242200Y-111632998D01*
X120126252Y-111632998D01*
X120285000Y-111474250D01*
X120285000Y-110783690D01*
X120188327Y-110550301D01*
X120009698Y-110371673D01*
X119776309Y-110275000D01*
X118935750Y-110275000D01*
X118777000Y-110433750D01*
X118777000Y-111633000D01*
X118797000Y-111633000D01*
X118797000Y-111887000D01*
X118777000Y-111887000D01*
X118777000Y-111907000D01*
X118523000Y-111907000D01*
X118523000Y-111887000D01*
X117173750Y-111887000D01*
X117015000Y-112045750D01*
X117015000Y-112736310D01*
X117111673Y-112969699D01*
X117169871Y-113027897D01*
X117053569Y-113198110D01*
X117002560Y-113450000D01*
X117002560Y-115150000D01*
X117046838Y-115385317D01*
X117185910Y-115601441D01*
X117188657Y-115603318D01*
X117111673Y-115680301D01*
X117015000Y-115913690D01*
X117015000Y-116554250D01*
X117173750Y-116713000D01*
X118523000Y-116713000D01*
X118523000Y-116693000D01*
X118777000Y-116693000D01*
X118777000Y-116713000D01*
X120126250Y-116713000D01*
X120285000Y-116554250D01*
X120285000Y-115913690D01*
X120188327Y-115680301D01*
X120109833Y-115601808D01*
X120246431Y-115401890D01*
X120297440Y-115150000D01*
X120297440Y-113877362D01*
X120437401Y-113737401D01*
X120602148Y-113490839D01*
X120619079Y-113405723D01*
X121098774Y-112926028D01*
X121167015Y-113032077D01*
X121053569Y-113198110D01*
X121002560Y-113450000D01*
X121002560Y-115150000D01*
X121015000Y-115216113D01*
X121015000Y-115978569D01*
X121002560Y-116040000D01*
X121002560Y-117640000D01*
X121015000Y-117706113D01*
X121015000Y-118468569D01*
X121002560Y-118530000D01*
X121002560Y-119272308D01*
X120297440Y-119977428D01*
X120297440Y-118530000D01*
X120253162Y-118294683D01*
X120114090Y-118078559D01*
X120111343Y-118076682D01*
X120188327Y-117999699D01*
X120285000Y-117766310D01*
X120285000Y-117125750D01*
X120126250Y-116967000D01*
X118777000Y-116967000D01*
X118777000Y-116987000D01*
X118523000Y-116987000D01*
X118523000Y-116967000D01*
X117173750Y-116967000D01*
X117015000Y-117125750D01*
X117015000Y-117766310D01*
X117111673Y-117999699D01*
X117190167Y-118078192D01*
X117053569Y-118278110D01*
X117002560Y-118530000D01*
X117002560Y-118620000D01*
X115831371Y-118620000D01*
X115488631Y-116563562D01*
X115453162Y-116434683D01*
X115314090Y-116218559D01*
X115101890Y-116073569D01*
X114850000Y-116022560D01*
X113750000Y-116022560D01*
X113617044Y-116036359D01*
X113380997Y-116138008D01*
X113203095Y-116323484D01*
X113111369Y-116563562D01*
X112511369Y-120163562D01*
X112537824Y-120418461D01*
X110283612Y-120418461D01*
X109849267Y-120504857D01*
X109481046Y-120750895D01*
X109110532Y-121121409D01*
X107776541Y-121121409D01*
X107180000Y-120524868D01*
X107180000Y-120479250D01*
X107188000Y-120471250D01*
X107188000Y-119347000D01*
X107180000Y-119347000D01*
X107180000Y-119220000D01*
X107168000Y-119159672D01*
X107168000Y-119093000D01*
X107188000Y-119093000D01*
X107188000Y-117968750D01*
X107029250Y-117810000D01*
X106966032Y-117810000D01*
X107072010Y-117554777D01*
X107072369Y-117143029D01*
X106998999Y-116965460D01*
X107825000Y-117791461D01*
X107825000Y-117844666D01*
X107741310Y-117810000D01*
X107600750Y-117810000D01*
X107442000Y-117968750D01*
X107442000Y-119093000D01*
X107462000Y-119093000D01*
X107462000Y-119347000D01*
X107442000Y-119347000D01*
X107442000Y-120471250D01*
X107600750Y-120630000D01*
X107741310Y-120630000D01*
X107958122Y-120540194D01*
X108033110Y-120591431D01*
X108285000Y-120642440D01*
X108885000Y-120642440D01*
X109120317Y-120598162D01*
X109336441Y-120459090D01*
X109481431Y-120246890D01*
X109532440Y-119995000D01*
X109532440Y-118445000D01*
X109488162Y-118209683D01*
X109349090Y-117993559D01*
X109345000Y-117990764D01*
X109345000Y-117476659D01*
X109321683Y-117359436D01*
X109287148Y-117185819D01*
X109122401Y-116939258D01*
X107743742Y-115560599D01*
X107497180Y-115395852D01*
X107206341Y-115338000D01*
X101191001Y-115338000D01*
X101191001Y-112864211D01*
X101258212Y-112797000D01*
X112814796Y-112797000D01*
X113111369Y-114576438D01*
X113146838Y-114705317D01*
X113285910Y-114921441D01*
X113498110Y-115066431D01*
X113750000Y-115117440D01*
X114173000Y-115117440D01*
X114173000Y-112797000D01*
X114427000Y-112797000D01*
X114427000Y-115117440D01*
X114850000Y-115117440D01*
X114982956Y-115103641D01*
X115219003Y-115001992D01*
X115396905Y-114816516D01*
X115488631Y-114576438D01*
X115785204Y-112797000D01*
X114427000Y-112797000D01*
X114173000Y-112797000D01*
X112814796Y-112797000D01*
X101258212Y-112797000D01*
X103078774Y-110976438D01*
X112511369Y-110976438D01*
X112772463Y-112543000D01*
X114173000Y-112543000D01*
X114173000Y-110222560D01*
X114427000Y-110222560D01*
X114427000Y-112543000D01*
X115827537Y-112543000D01*
X116088631Y-110976438D01*
X116068627Y-110783690D01*
X117015000Y-110783690D01*
X117015000Y-111474250D01*
X117173750Y-111633000D01*
X118523000Y-111633000D01*
X118523000Y-110433750D01*
X118364250Y-110275000D01*
X117523691Y-110275000D01*
X117290302Y-110371673D01*
X117111673Y-110550301D01*
X117015000Y-110783690D01*
X116068627Y-110783690D01*
X116053162Y-110634683D01*
X115914090Y-110418559D01*
X115701890Y-110273569D01*
X115450000Y-110222560D01*
X114427000Y-110222560D01*
X114173000Y-110222560D01*
X113150000Y-110222560D01*
X112818726Y-110313730D01*
X112628405Y-110486441D01*
X112520274Y-110719589D01*
X112511369Y-110976438D01*
X103078774Y-110976438D01*
X105413244Y-108641968D01*
X105462757Y-108761800D01*
X105866077Y-109165824D01*
X106393309Y-109384750D01*
X106964187Y-109385248D01*
X107491800Y-109167243D01*
X107853263Y-108806410D01*
X108047289Y-108806410D01*
X108406077Y-109165824D01*
X108933309Y-109384750D01*
X109504187Y-109385248D01*
X110031800Y-109167243D01*
X110435824Y-108763923D01*
X110489862Y-108633785D01*
X110542757Y-108761800D01*
X110946077Y-109165824D01*
X111473309Y-109384750D01*
X112044187Y-109385248D01*
X112571800Y-109167243D01*
X112975824Y-108763923D01*
X113029862Y-108633785D01*
X113082757Y-108761800D01*
X113486077Y-109165824D01*
X114013309Y-109384750D01*
X114584187Y-109385248D01*
X115111800Y-109167243D01*
X115515824Y-108763923D01*
X115569862Y-108633785D01*
X115622757Y-108761800D01*
X116026077Y-109165824D01*
X116553309Y-109384750D01*
X117124187Y-109385248D01*
X117651800Y-109167243D01*
X118055824Y-108763923D01*
X118109862Y-108633785D01*
X118162757Y-108761800D01*
X118566077Y-109165824D01*
X119093309Y-109384750D01*
X119664187Y-109385248D01*
X120191800Y-109167243D01*
X120595824Y-108763923D01*
X120649862Y-108633785D01*
X120702757Y-108761800D01*
X121106077Y-109165824D01*
X121633309Y-109384750D01*
X122204187Y-109385248D01*
X122731800Y-109167243D01*
X123135824Y-108763923D01*
X123189862Y-108633785D01*
X123242757Y-108761800D01*
X123646077Y-109165824D01*
X124173309Y-109384750D01*
X124744187Y-109385248D01*
X125271800Y-109167243D01*
X125675824Y-108763923D01*
X125729862Y-108633785D01*
X125782757Y-108761800D01*
X126186077Y-109165824D01*
X126713309Y-109384750D01*
X127284187Y-109385248D01*
X127811800Y-109167243D01*
X128215824Y-108763923D01*
X128269862Y-108633785D01*
X128322757Y-108761800D01*
X128726077Y-109165824D01*
X129253309Y-109384750D01*
X129824187Y-109385248D01*
X130351800Y-109167243D01*
X130755824Y-108763923D01*
X130803448Y-108649232D01*
X130826136Y-108704005D01*
X131072255Y-108778139D01*
X131900395Y-107950000D01*
X131072255Y-107121861D01*
X130826136Y-107195995D01*
X130805195Y-107254254D01*
X130757243Y-107138200D01*
X130561640Y-106942255D01*
X131251861Y-106942255D01*
X132080000Y-107770395D01*
X132908139Y-106942255D01*
X132834005Y-106696136D01*
X132296777Y-106503035D01*
X131726546Y-106530222D01*
X131325995Y-106696136D01*
X131251861Y-106942255D01*
X130561640Y-106942255D01*
X130425000Y-106805377D01*
X130425000Y-105324087D01*
X130749715Y-105541054D01*
X131318000Y-105654093D01*
X131886285Y-105541054D01*
X132368054Y-105219147D01*
X132397403Y-105175223D01*
X132469673Y-105349698D01*
X132648301Y-105528327D01*
X132881690Y-105625000D01*
X133572250Y-105625000D01*
X133731000Y-105466250D01*
X133731000Y-104267000D01*
X133711000Y-104267000D01*
X133711000Y-104013000D01*
X133731000Y-104013000D01*
X133731000Y-102813750D01*
X133985000Y-102813750D01*
X133985000Y-104013000D01*
X135184250Y-104013000D01*
X135343000Y-103854250D01*
X135343000Y-103163691D01*
X135246327Y-102930302D01*
X135067699Y-102751673D01*
X134834310Y-102655000D01*
X134143750Y-102655000D01*
X133985000Y-102813750D01*
X133731000Y-102813750D01*
X133572250Y-102655000D01*
X132881690Y-102655000D01*
X132648301Y-102751673D01*
X132469673Y-102930302D01*
X132397403Y-103104777D01*
X132368054Y-103060853D01*
X131886285Y-102738946D01*
X131318000Y-102625907D01*
X130749715Y-102738946D01*
X130267946Y-103060853D01*
X130048000Y-103390026D01*
X129828054Y-103060853D01*
X129346285Y-102738946D01*
X128778000Y-102625907D01*
X128559041Y-102669461D01*
X128553791Y-102664211D01*
X128540006Y-102655000D01*
X128266676Y-102472368D01*
X128194997Y-102458110D01*
X127928001Y-102405000D01*
X127927996Y-102405001D01*
X127125544Y-102405001D01*
X126985544Y-102265001D01*
X130578001Y-102265001D01*
X130868840Y-102207149D01*
X131115402Y-102042402D01*
X131725664Y-101432140D01*
X131853910Y-101631441D01*
X132066110Y-101776431D01*
X132318000Y-101827440D01*
X134318000Y-101827440D01*
X134553317Y-101783162D01*
X134769441Y-101644090D01*
X134914431Y-101431890D01*
X134965440Y-101180000D01*
X134965440Y-99480000D01*
X134921162Y-99244683D01*
X134782090Y-99028559D01*
X134569890Y-98883569D01*
X134318000Y-98832560D01*
X134078000Y-98832560D01*
X134078000Y-98003037D01*
X135538466Y-98246448D01*
X135538466Y-98246448D01*
G37*
X135538466Y-98246448D02*
X135476864Y-98338642D01*
X135333377Y-99060000D01*
X135476864Y-99781358D01*
X135885481Y-100392896D01*
X136385000Y-100726664D01*
X136385000Y-103872760D01*
X135343000Y-104914760D01*
X135343000Y-104425750D01*
X135184250Y-104267000D01*
X133985000Y-104267000D01*
X133985000Y-105466250D01*
X134143750Y-105625000D01*
X134632760Y-105625000D01*
X133463880Y-106793880D01*
X133218429Y-107161224D01*
X133087745Y-107121861D01*
X132259605Y-107950000D01*
X132273748Y-107964142D01*
X132094142Y-108143748D01*
X132080000Y-108129605D01*
X131251861Y-108957745D01*
X131325995Y-109203864D01*
X131863223Y-109396965D01*
X132433454Y-109369778D01*
X132834005Y-109203864D01*
X132908139Y-108957747D01*
X132985000Y-109034608D01*
X132985000Y-111449775D01*
X132610854Y-111524197D01*
X132242634Y-111770234D01*
X131996597Y-112138454D01*
X131910200Y-112572800D01*
X131910200Y-113022560D01*
X131690000Y-113022560D01*
X131454683Y-113066838D01*
X131238559Y-113205910D01*
X131093569Y-113418110D01*
X131042560Y-113670000D01*
X131042560Y-113935000D01*
X128037440Y-113935000D01*
X128037440Y-112520000D01*
X127993162Y-112284683D01*
X127854090Y-112068559D01*
X127641890Y-111923569D01*
X127390000Y-111872560D01*
X125390000Y-111872560D01*
X125154683Y-111916838D01*
X124938559Y-112055910D01*
X124793569Y-112268110D01*
X124744585Y-112510000D01*
X124562618Y-112510000D01*
X124437401Y-112322599D01*
X124297440Y-112182638D01*
X124297440Y-110910000D01*
X124253162Y-110674683D01*
X124114090Y-110458559D01*
X123901890Y-110313569D01*
X123650000Y-110262560D01*
X121650000Y-110262560D01*
X121414683Y-110306838D01*
X121198559Y-110445910D01*
X121053569Y-110658110D01*
X121002560Y-110910000D01*
X121002560Y-111037284D01*
X120899161Y-111057852D01*
X120899159Y-111057853D01*
X120899160Y-111057853D01*
X120652598Y-111222599D01*
X120242200Y-111632998D01*
X120126252Y-111632998D01*
X120285000Y-111474250D01*
X120285000Y-110783690D01*
X120188327Y-110550301D01*
X120009698Y-110371673D01*
X119776309Y-110275000D01*
X118935750Y-110275000D01*
X118777000Y-110433750D01*
X118777000Y-111633000D01*
X118797000Y-111633000D01*
X118797000Y-111887000D01*
X118777000Y-111887000D01*
X118777000Y-111907000D01*
X118523000Y-111907000D01*
X118523000Y-111887000D01*
X117173750Y-111887000D01*
X117015000Y-112045750D01*
X117015000Y-112736310D01*
X117111673Y-112969699D01*
X117169871Y-113027897D01*
X117053569Y-113198110D01*
X117002560Y-113450000D01*
X117002560Y-115150000D01*
X117046838Y-115385317D01*
X117185910Y-115601441D01*
X117188657Y-115603318D01*
X117111673Y-115680301D01*
X117015000Y-115913690D01*
X117015000Y-116554250D01*
X117173750Y-116713000D01*
X118523000Y-116713000D01*
X118523000Y-116693000D01*
X118777000Y-116693000D01*
X118777000Y-116713000D01*
X120126250Y-116713000D01*
X120285000Y-116554250D01*
X120285000Y-115913690D01*
X120188327Y-115680301D01*
X120109833Y-115601808D01*
X120246431Y-115401890D01*
X120297440Y-115150000D01*
X120297440Y-113877362D01*
X120437401Y-113737401D01*
X120602148Y-113490839D01*
X120619079Y-113405723D01*
X121098774Y-112926028D01*
X121167015Y-113032077D01*
X121053569Y-113198110D01*
X121002560Y-113450000D01*
X121002560Y-115150000D01*
X121015000Y-115216113D01*
X121015000Y-115978569D01*
X121002560Y-116040000D01*
X121002560Y-117640000D01*
X121015000Y-117706113D01*
X121015000Y-118468569D01*
X121002560Y-118530000D01*
X121002560Y-119272308D01*
X120297440Y-119977428D01*
X120297440Y-118530000D01*
X120253162Y-118294683D01*
X120114090Y-118078559D01*
X120111343Y-118076682D01*
X120188327Y-117999699D01*
X120285000Y-117766310D01*
X120285000Y-117125750D01*
X120126250Y-116967000D01*
X118777000Y-116967000D01*
X118777000Y-116987000D01*
X118523000Y-116987000D01*
X118523000Y-116967000D01*
X117173750Y-116967000D01*
X117015000Y-117125750D01*
X117015000Y-117766310D01*
X117111673Y-117999699D01*
X117190167Y-118078192D01*
X117053569Y-118278110D01*
X117002560Y-118530000D01*
X117002560Y-118620000D01*
X115831371Y-118620000D01*
X115488631Y-116563562D01*
X115453162Y-116434683D01*
X115314090Y-116218559D01*
X115101890Y-116073569D01*
X114850000Y-116022560D01*
X113750000Y-116022560D01*
X113617044Y-116036359D01*
X113380997Y-116138008D01*
X113203095Y-116323484D01*
X113111369Y-116563562D01*
X112511369Y-120163562D01*
X112537824Y-120418461D01*
X110283612Y-120418461D01*
X109849267Y-120504857D01*
X109481046Y-120750895D01*
X109110532Y-121121409D01*
X107776541Y-121121409D01*
X107180000Y-120524868D01*
X107180000Y-120479250D01*
X107188000Y-120471250D01*
X107188000Y-119347000D01*
X107180000Y-119347000D01*
X107180000Y-119220000D01*
X107168000Y-119159672D01*
X107168000Y-119093000D01*
X107188000Y-119093000D01*
X107188000Y-117968750D01*
X107029250Y-117810000D01*
X106966032Y-117810000D01*
X107072010Y-117554777D01*
X107072369Y-117143029D01*
X106998999Y-116965460D01*
X107825000Y-117791461D01*
X107825000Y-117844666D01*
X107741310Y-117810000D01*
X107600750Y-117810000D01*
X107442000Y-117968750D01*
X107442000Y-119093000D01*
X107462000Y-119093000D01*
X107462000Y-119347000D01*
X107442000Y-119347000D01*
X107442000Y-120471250D01*
X107600750Y-120630000D01*
X107741310Y-120630000D01*
X107958122Y-120540194D01*
X108033110Y-120591431D01*
X108285000Y-120642440D01*
X108885000Y-120642440D01*
X109120317Y-120598162D01*
X109336441Y-120459090D01*
X109481431Y-120246890D01*
X109532440Y-119995000D01*
X109532440Y-118445000D01*
X109488162Y-118209683D01*
X109349090Y-117993559D01*
X109345000Y-117990764D01*
X109345000Y-117476659D01*
X109321683Y-117359436D01*
X109287148Y-117185819D01*
X109122401Y-116939258D01*
X107743742Y-115560599D01*
X107497180Y-115395852D01*
X107206341Y-115338000D01*
X101191001Y-115338000D01*
X101191001Y-112864211D01*
X101258212Y-112797000D01*
X112814796Y-112797000D01*
X113111369Y-114576438D01*
X113146838Y-114705317D01*
X113285910Y-114921441D01*
X113498110Y-115066431D01*
X113750000Y-115117440D01*
X114173000Y-115117440D01*
X114173000Y-112797000D01*
X114427000Y-112797000D01*
X114427000Y-115117440D01*
X114850000Y-115117440D01*
X114982956Y-115103641D01*
X115219003Y-115001992D01*
X115396905Y-114816516D01*
X115488631Y-114576438D01*
X115785204Y-112797000D01*
X114427000Y-112797000D01*
X114173000Y-112797000D01*
X112814796Y-112797000D01*
X101258212Y-112797000D01*
X103078774Y-110976438D01*
X112511369Y-110976438D01*
X112772463Y-112543000D01*
X114173000Y-112543000D01*
X114173000Y-110222560D01*
X114427000Y-110222560D01*
X114427000Y-112543000D01*
X115827537Y-112543000D01*
X116088631Y-110976438D01*
X116068627Y-110783690D01*
X117015000Y-110783690D01*
X117015000Y-111474250D01*
X117173750Y-111633000D01*
X118523000Y-111633000D01*
X118523000Y-110433750D01*
X118364250Y-110275000D01*
X117523691Y-110275000D01*
X117290302Y-110371673D01*
X117111673Y-110550301D01*
X117015000Y-110783690D01*
X116068627Y-110783690D01*
X116053162Y-110634683D01*
X115914090Y-110418559D01*
X115701890Y-110273569D01*
X115450000Y-110222560D01*
X114427000Y-110222560D01*
X114173000Y-110222560D01*
X113150000Y-110222560D01*
X112818726Y-110313730D01*
X112628405Y-110486441D01*
X112520274Y-110719589D01*
X112511369Y-110976438D01*
X103078774Y-110976438D01*
X105413244Y-108641968D01*
X105462757Y-108761800D01*
X105866077Y-109165824D01*
X106393309Y-109384750D01*
X106964187Y-109385248D01*
X107491800Y-109167243D01*
X107853263Y-108806410D01*
X108047289Y-108806410D01*
X108406077Y-109165824D01*
X108933309Y-109384750D01*
X109504187Y-109385248D01*
X110031800Y-109167243D01*
X110435824Y-108763923D01*
X110489862Y-108633785D01*
X110542757Y-108761800D01*
X110946077Y-109165824D01*
X111473309Y-109384750D01*
X112044187Y-109385248D01*
X112571800Y-109167243D01*
X112975824Y-108763923D01*
X113029862Y-108633785D01*
X113082757Y-108761800D01*
X113486077Y-109165824D01*
X114013309Y-109384750D01*
X114584187Y-109385248D01*
X115111800Y-109167243D01*
X115515824Y-108763923D01*
X115569862Y-108633785D01*
X115622757Y-108761800D01*
X116026077Y-109165824D01*
X116553309Y-109384750D01*
X117124187Y-109385248D01*
X117651800Y-109167243D01*
X118055824Y-108763923D01*
X118109862Y-108633785D01*
X118162757Y-108761800D01*
X118566077Y-109165824D01*
X119093309Y-109384750D01*
X119664187Y-109385248D01*
X120191800Y-109167243D01*
X120595824Y-108763923D01*
X120649862Y-108633785D01*
X120702757Y-108761800D01*
X121106077Y-109165824D01*
X121633309Y-109384750D01*
X122204187Y-109385248D01*
X122731800Y-109167243D01*
X123135824Y-108763923D01*
X123189862Y-108633785D01*
X123242757Y-108761800D01*
X123646077Y-109165824D01*
X124173309Y-109384750D01*
X124744187Y-109385248D01*
X125271800Y-109167243D01*
X125675824Y-108763923D01*
X125729862Y-108633785D01*
X125782757Y-108761800D01*
X126186077Y-109165824D01*
X126713309Y-109384750D01*
X127284187Y-109385248D01*
X127811800Y-109167243D01*
X128215824Y-108763923D01*
X128269862Y-108633785D01*
X128322757Y-108761800D01*
X128726077Y-109165824D01*
X129253309Y-109384750D01*
X129824187Y-109385248D01*
X130351800Y-109167243D01*
X130755824Y-108763923D01*
X130803448Y-108649232D01*
X130826136Y-108704005D01*
X131072255Y-108778139D01*
X131900395Y-107950000D01*
X131072255Y-107121861D01*
X130826136Y-107195995D01*
X130805195Y-107254254D01*
X130757243Y-107138200D01*
X130561640Y-106942255D01*
X131251861Y-106942255D01*
X132080000Y-107770395D01*
X132908139Y-106942255D01*
X132834005Y-106696136D01*
X132296777Y-106503035D01*
X131726546Y-106530222D01*
X131325995Y-106696136D01*
X131251861Y-106942255D01*
X130561640Y-106942255D01*
X130425000Y-106805377D01*
X130425000Y-105324087D01*
X130749715Y-105541054D01*
X131318000Y-105654093D01*
X131886285Y-105541054D01*
X132368054Y-105219147D01*
X132397403Y-105175223D01*
X132469673Y-105349698D01*
X132648301Y-105528327D01*
X132881690Y-105625000D01*
X133572250Y-105625000D01*
X133731000Y-105466250D01*
X133731000Y-104267000D01*
X133711000Y-104267000D01*
X133711000Y-104013000D01*
X133731000Y-104013000D01*
X133731000Y-102813750D01*
X133985000Y-102813750D01*
X133985000Y-104013000D01*
X135184250Y-104013000D01*
X135343000Y-103854250D01*
X135343000Y-103163691D01*
X135246327Y-102930302D01*
X135067699Y-102751673D01*
X134834310Y-102655000D01*
X134143750Y-102655000D01*
X133985000Y-102813750D01*
X133731000Y-102813750D01*
X133572250Y-102655000D01*
X132881690Y-102655000D01*
X132648301Y-102751673D01*
X132469673Y-102930302D01*
X132397403Y-103104777D01*
X132368054Y-103060853D01*
X131886285Y-102738946D01*
X131318000Y-102625907D01*
X130749715Y-102738946D01*
X130267946Y-103060853D01*
X130048000Y-103390026D01*
X129828054Y-103060853D01*
X129346285Y-102738946D01*
X128778000Y-102625907D01*
X128559041Y-102669461D01*
X128553791Y-102664211D01*
X128540006Y-102655000D01*
X128266676Y-102472368D01*
X128194997Y-102458110D01*
X127928001Y-102405000D01*
X127927996Y-102405001D01*
X127125544Y-102405001D01*
X126985544Y-102265001D01*
X130578001Y-102265001D01*
X130868840Y-102207149D01*
X131115402Y-102042402D01*
X131725664Y-101432140D01*
X131853910Y-101631441D01*
X132066110Y-101776431D01*
X132318000Y-101827440D01*
X134318000Y-101827440D01*
X134553317Y-101783162D01*
X134769441Y-101644090D01*
X134914431Y-101431890D01*
X134965440Y-101180000D01*
X134965440Y-99480000D01*
X134921162Y-99244683D01*
X134782090Y-99028559D01*
X134569890Y-98883569D01*
X134318000Y-98832560D01*
X134078000Y-98832560D01*
X134078000Y-98003037D01*
X135538466Y-98246448D01*
G36*
X155996257Y-73709353D02*
X155602881Y-74681012D01*
X155611287Y-75729247D01*
X155996257Y-76658647D01*
X156366978Y-76879416D01*
X158062395Y-75184000D01*
X158048252Y-75169858D01*
X158227858Y-74990252D01*
X158242000Y-75004395D01*
X158256142Y-74990252D01*
X158435748Y-75169858D01*
X158421605Y-75184000D01*
X160117022Y-76879416D01*
X160487743Y-76658647D01*
X160881119Y-75686988D01*
X160878794Y-75397031D01*
X161585010Y-76103247D01*
X161585010Y-97224135D01*
X161530543Y-96950313D01*
X161505317Y-96912560D01*
X161176120Y-96419880D01*
X161176117Y-96419878D01*
X156471802Y-91715562D01*
X157469369Y-91715562D01*
X157504838Y-92057317D01*
X157643910Y-92273441D01*
X157856110Y-92418431D01*
X158108000Y-92469440D01*
X159131000Y-92469440D01*
X159131000Y-90149000D01*
X159385000Y-90149000D01*
X159385000Y-92469440D01*
X160408000Y-92469440D01*
X160739274Y-92378270D01*
X160929595Y-92205559D01*
X161037726Y-91972411D01*
X161046631Y-91715562D01*
X160785537Y-90149000D01*
X159385000Y-90149000D01*
X159131000Y-90149000D01*
X157730463Y-90149000D01*
X157469369Y-91715562D01*
X156471802Y-91715562D01*
X154786557Y-90030317D01*
X154651477Y-89895000D01*
X157772796Y-89895000D01*
X159131000Y-89895000D01*
X159131000Y-87574560D01*
X159385000Y-87574560D01*
X159385000Y-89895000D01*
X160743204Y-89895000D01*
X160446631Y-88115562D01*
X160411162Y-87986683D01*
X160272090Y-87770559D01*
X160059890Y-87625569D01*
X159808000Y-87574560D01*
X159385000Y-87574560D01*
X159131000Y-87574560D01*
X158708000Y-87574560D01*
X158575044Y-87588359D01*
X158338997Y-87690008D01*
X158161095Y-87875484D01*
X158069369Y-88115562D01*
X157772796Y-89895000D01*
X154651477Y-89895000D01*
X154557363Y-89800722D01*
X153956648Y-89551284D01*
X153306205Y-89550716D01*
X152705057Y-89799106D01*
X152244722Y-90258637D01*
X151995284Y-90859352D01*
X151994716Y-91509795D01*
X152243106Y-92110943D01*
X152702637Y-92571278D01*
X152703323Y-92571563D01*
X157874820Y-97743059D01*
X157476864Y-98338642D01*
X157333377Y-99060000D01*
X157476864Y-99781358D01*
X157885481Y-100392896D01*
X158497019Y-100801513D01*
X159218377Y-100945000D01*
X160037597Y-100945000D01*
X152127597Y-108855000D01*
X139702389Y-108855000D01*
X139542981Y-108748487D01*
X138821623Y-108605000D01*
X137218377Y-108605000D01*
X136497019Y-108748487D01*
X136255000Y-108910199D01*
X136255000Y-108627240D01*
X139176120Y-105706120D01*
X139530543Y-105175688D01*
X139655001Y-104550000D01*
X139655000Y-104549995D01*
X139655000Y-100726664D01*
X140154519Y-100392896D01*
X140563136Y-99781358D01*
X140706623Y-99060000D01*
X140621948Y-98634307D01*
X140702543Y-98513688D01*
X140827000Y-97888000D01*
X140827000Y-92338532D01*
X147657073Y-92338532D01*
X147755736Y-92605387D01*
X148365461Y-92831908D01*
X149015460Y-92807856D01*
X149504264Y-92605387D01*
X149602927Y-92338532D01*
X148630000Y-91365605D01*
X147657073Y-92338532D01*
X140827000Y-92338532D01*
X140827000Y-90921461D01*
X146984092Y-90921461D01*
X147008144Y-91571460D01*
X147210613Y-92060264D01*
X147477468Y-92158927D01*
X148450395Y-91186000D01*
X148809605Y-91186000D01*
X149782532Y-92158927D01*
X150049387Y-92060264D01*
X150275908Y-91450539D01*
X150251856Y-90800540D01*
X150049387Y-90311736D01*
X149782532Y-90213073D01*
X148809605Y-91186000D01*
X148450395Y-91186000D01*
X147477468Y-90213073D01*
X147210613Y-90311736D01*
X146984092Y-90921461D01*
X140827000Y-90921461D01*
X140827000Y-89907745D01*
X141863861Y-89907745D01*
X141937995Y-90153864D01*
X142475223Y-90346965D01*
X143045454Y-90319778D01*
X143446005Y-90153864D01*
X143482269Y-90033468D01*
X147657073Y-90033468D01*
X148630000Y-91006395D01*
X149602927Y-90033468D01*
X149504264Y-89766613D01*
X148894539Y-89540092D01*
X148244540Y-89564144D01*
X147755736Y-89766613D01*
X147657073Y-90033468D01*
X143482269Y-90033468D01*
X143520139Y-89907745D01*
X142692000Y-89079605D01*
X141863861Y-89907745D01*
X140827000Y-89907745D01*
X140827000Y-88900005D01*
X140827001Y-88900000D01*
X140783881Y-88683223D01*
X141245035Y-88683223D01*
X141272222Y-89253454D01*
X141438136Y-89654005D01*
X141684255Y-89728139D01*
X142512395Y-88900000D01*
X142871605Y-88900000D01*
X143699745Y-89728139D01*
X143945864Y-89654005D01*
X144138965Y-89116777D01*
X144111778Y-88546546D01*
X143945864Y-88145995D01*
X143699745Y-88071861D01*
X142871605Y-88900000D01*
X142512395Y-88900000D01*
X141684255Y-88071861D01*
X141438136Y-88145995D01*
X141245035Y-88683223D01*
X140783881Y-88683223D01*
X140702543Y-88274313D01*
X140652245Y-88199037D01*
X140639440Y-88179872D01*
X140639440Y-88100000D01*
X140600351Y-87892255D01*
X141863861Y-87892255D01*
X142692000Y-88720395D01*
X143520139Y-87892255D01*
X143446005Y-87646136D01*
X142908777Y-87453035D01*
X142338546Y-87480222D01*
X141937995Y-87646136D01*
X141863861Y-87892255D01*
X140600351Y-87892255D01*
X140595162Y-87864683D01*
X140478000Y-87682608D01*
X140478000Y-83575844D01*
X140544441Y-83533090D01*
X140689431Y-83320890D01*
X140740440Y-83069000D01*
X140740440Y-82454750D01*
X140958000Y-82454750D01*
X140958000Y-83195310D01*
X141054673Y-83428699D01*
X141233302Y-83607327D01*
X141466691Y-83704000D01*
X143057250Y-83704000D01*
X143216000Y-83545250D01*
X143216000Y-82296000D01*
X143470000Y-82296000D01*
X143470000Y-83545250D01*
X143628750Y-83704000D01*
X145219309Y-83704000D01*
X145452698Y-83607327D01*
X145631327Y-83428699D01*
X145728000Y-83195310D01*
X145728000Y-82454750D01*
X145569250Y-82296000D01*
X143470000Y-82296000D01*
X143216000Y-82296000D01*
X141116750Y-82296000D01*
X140958000Y-82454750D01*
X140740440Y-82454750D01*
X140740440Y-81269000D01*
X140716674Y-81142690D01*
X140958000Y-81142690D01*
X140958000Y-81883250D01*
X141116750Y-82042000D01*
X143216000Y-82042000D01*
X143216000Y-80792750D01*
X143470000Y-80792750D01*
X143470000Y-82042000D01*
X145569250Y-82042000D01*
X145728000Y-81883250D01*
X145728000Y-81142690D01*
X145631327Y-80909301D01*
X145452698Y-80730673D01*
X145219309Y-80634000D01*
X143628750Y-80634000D01*
X143470000Y-80792750D01*
X143216000Y-80792750D01*
X143057250Y-80634000D01*
X141466691Y-80634000D01*
X141233302Y-80730673D01*
X141054673Y-80909301D01*
X140958000Y-81142690D01*
X140716674Y-81142690D01*
X140696162Y-81033683D01*
X140557090Y-80817559D01*
X140478000Y-80763519D01*
X140478000Y-79982431D01*
X140490440Y-79921000D01*
X140490440Y-79406750D01*
X141208000Y-79406750D01*
X141208000Y-80047310D01*
X141304673Y-80280699D01*
X141483302Y-80459327D01*
X141716691Y-80556000D01*
X142557250Y-80556000D01*
X142716000Y-80397250D01*
X142716000Y-79248000D01*
X142970000Y-79248000D01*
X142970000Y-80397250D01*
X143128750Y-80556000D01*
X143969309Y-80556000D01*
X144202698Y-80459327D01*
X144381327Y-80280699D01*
X144478000Y-80047310D01*
X144478000Y-79406750D01*
X144319250Y-79248000D01*
X142970000Y-79248000D01*
X142716000Y-79248000D01*
X141366750Y-79248000D01*
X141208000Y-79406750D01*
X140490440Y-79406750D01*
X140490440Y-78321000D01*
X140478000Y-78254887D01*
X140478000Y-77365431D01*
X140490440Y-77304000D01*
X140490440Y-75604000D01*
X141195560Y-75604000D01*
X141195560Y-77304000D01*
X141239838Y-77539317D01*
X141378910Y-77755441D01*
X141457105Y-77808870D01*
X141304673Y-77961301D01*
X141208000Y-78194690D01*
X141208000Y-78835250D01*
X141366750Y-78994000D01*
X142716000Y-78994000D01*
X142716000Y-78974000D01*
X142970000Y-78974000D01*
X142970000Y-78994000D01*
X144319250Y-78994000D01*
X144478000Y-78835250D01*
X144478000Y-78194690D01*
X144381327Y-77961301D01*
X144229746Y-77809720D01*
X144294441Y-77768090D01*
X144439431Y-77555890D01*
X144490440Y-77304000D01*
X144490440Y-77214000D01*
X151175198Y-77214000D01*
X157665316Y-83704118D01*
X158069369Y-86128438D01*
X158104838Y-86257317D01*
X158243910Y-86473441D01*
X158456110Y-86618431D01*
X158708000Y-86669440D01*
X159808000Y-86669440D01*
X159940956Y-86655641D01*
X160177003Y-86553992D01*
X160354905Y-86368516D01*
X160446631Y-86128438D01*
X161046631Y-82528438D01*
X161011162Y-82186683D01*
X160872090Y-81970559D01*
X160659890Y-81825569D01*
X160408000Y-81774560D01*
X158108000Y-81774560D01*
X157933411Y-81822609D01*
X153169824Y-77059022D01*
X156546584Y-77059022D01*
X156767353Y-77429743D01*
X157739012Y-77823119D01*
X158787247Y-77814713D01*
X159716647Y-77429743D01*
X159937416Y-77059022D01*
X158242000Y-75363605D01*
X156546584Y-77059022D01*
X153169824Y-77059022D01*
X152027401Y-75916599D01*
X151780839Y-75751852D01*
X151490000Y-75694000D01*
X144490440Y-75694000D01*
X144490440Y-75604000D01*
X144446162Y-75368683D01*
X144307090Y-75152559D01*
X144094890Y-75007569D01*
X143843000Y-74956560D01*
X141843000Y-74956560D01*
X141607683Y-75000838D01*
X141391559Y-75139910D01*
X141246569Y-75352110D01*
X141195560Y-75604000D01*
X140490440Y-75604000D01*
X140446162Y-75368683D01*
X140307090Y-75152559D01*
X140094890Y-75007569D01*
X139843000Y-74956560D01*
X139488297Y-74956560D01*
X139468687Y-74943457D01*
X138843000Y-74819000D01*
X138217313Y-74943457D01*
X138197703Y-74956560D01*
X137843000Y-74956560D01*
X137607683Y-75000838D01*
X137391559Y-75139910D01*
X137246569Y-75352110D01*
X137195560Y-75604000D01*
X137195560Y-77304000D01*
X137208000Y-77370113D01*
X137208000Y-78259569D01*
X137195560Y-78321000D01*
X137195560Y-78456200D01*
X137186880Y-78464880D01*
X136832457Y-78995312D01*
X136707999Y-79621000D01*
X136708000Y-79621005D01*
X136708000Y-80621560D01*
X136593000Y-80621560D01*
X136357683Y-80665838D01*
X136187546Y-80775318D01*
X136152604Y-80599655D01*
X135906567Y-80231435D01*
X135727440Y-80052308D01*
X135727440Y-79160000D01*
X135683162Y-78924683D01*
X135544090Y-78708559D01*
X135331890Y-78563569D01*
X135080000Y-78512560D01*
X133080000Y-78512560D01*
X132844683Y-78556838D01*
X132628559Y-78695910D01*
X132483569Y-78908110D01*
X132432560Y-79160000D01*
X132432560Y-80860000D01*
X132476838Y-81095317D01*
X132615910Y-81311441D01*
X132828110Y-81456431D01*
X133080000Y-81507440D01*
X133969001Y-81507440D01*
X133969001Y-81864560D01*
X132804000Y-81864560D01*
X132568683Y-81908838D01*
X132352559Y-82047910D01*
X132207569Y-82260110D01*
X132176185Y-82415089D01*
X132078698Y-82269189D01*
X131613151Y-81958120D01*
X131064000Y-81848887D01*
X130740114Y-81913312D01*
X130334242Y-81507440D01*
X131080000Y-81507440D01*
X131315317Y-81463162D01*
X131531441Y-81324090D01*
X131676431Y-81111890D01*
X131727440Y-80860000D01*
X131727440Y-79160000D01*
X131683162Y-78924683D01*
X131544090Y-78708559D01*
X131331890Y-78563569D01*
X131080000Y-78512560D01*
X130710920Y-78512560D01*
X130617401Y-78372599D01*
X128669401Y-76424599D01*
X128422839Y-76259852D01*
X128132000Y-76202000D01*
X125091440Y-76202000D01*
X125091440Y-75662000D01*
X125047162Y-75426683D01*
X124908090Y-75210559D01*
X124695890Y-75065569D01*
X124444000Y-75014560D01*
X122539000Y-75014560D01*
X122539000Y-74339240D01*
X123259240Y-73618999D01*
X156147982Y-73618999D01*
X155996257Y-73709353D01*
X155996257Y-73709353D01*
G37*
X155996257Y-73709353D02*
X155602881Y-74681012D01*
X155611287Y-75729247D01*
X155996257Y-76658647D01*
X156366978Y-76879416D01*
X158062395Y-75184000D01*
X158048252Y-75169858D01*
X158227858Y-74990252D01*
X158242000Y-75004395D01*
X158256142Y-74990252D01*
X158435748Y-75169858D01*
X158421605Y-75184000D01*
X160117022Y-76879416D01*
X160487743Y-76658647D01*
X160881119Y-75686988D01*
X160878794Y-75397031D01*
X161585010Y-76103247D01*
X161585010Y-97224135D01*
X161530543Y-96950313D01*
X161505317Y-96912560D01*
X161176120Y-96419880D01*
X161176117Y-96419878D01*
X156471802Y-91715562D01*
X157469369Y-91715562D01*
X157504838Y-92057317D01*
X157643910Y-92273441D01*
X157856110Y-92418431D01*
X158108000Y-92469440D01*
X159131000Y-92469440D01*
X159131000Y-90149000D01*
X159385000Y-90149000D01*
X159385000Y-92469440D01*
X160408000Y-92469440D01*
X160739274Y-92378270D01*
X160929595Y-92205559D01*
X161037726Y-91972411D01*
X161046631Y-91715562D01*
X160785537Y-90149000D01*
X159385000Y-90149000D01*
X159131000Y-90149000D01*
X157730463Y-90149000D01*
X157469369Y-91715562D01*
X156471802Y-91715562D01*
X154786557Y-90030317D01*
X154651477Y-89895000D01*
X157772796Y-89895000D01*
X159131000Y-89895000D01*
X159131000Y-87574560D01*
X159385000Y-87574560D01*
X159385000Y-89895000D01*
X160743204Y-89895000D01*
X160446631Y-88115562D01*
X160411162Y-87986683D01*
X160272090Y-87770559D01*
X160059890Y-87625569D01*
X159808000Y-87574560D01*
X159385000Y-87574560D01*
X159131000Y-87574560D01*
X158708000Y-87574560D01*
X158575044Y-87588359D01*
X158338997Y-87690008D01*
X158161095Y-87875484D01*
X158069369Y-88115562D01*
X157772796Y-89895000D01*
X154651477Y-89895000D01*
X154557363Y-89800722D01*
X153956648Y-89551284D01*
X153306205Y-89550716D01*
X152705057Y-89799106D01*
X152244722Y-90258637D01*
X151995284Y-90859352D01*
X151994716Y-91509795D01*
X152243106Y-92110943D01*
X152702637Y-92571278D01*
X152703323Y-92571563D01*
X157874820Y-97743059D01*
X157476864Y-98338642D01*
X157333377Y-99060000D01*
X157476864Y-99781358D01*
X157885481Y-100392896D01*
X158497019Y-100801513D01*
X159218377Y-100945000D01*
X160037597Y-100945000D01*
X152127597Y-108855000D01*
X139702389Y-108855000D01*
X139542981Y-108748487D01*
X138821623Y-108605000D01*
X137218377Y-108605000D01*
X136497019Y-108748487D01*
X136255000Y-108910199D01*
X136255000Y-108627240D01*
X139176120Y-105706120D01*
X139530543Y-105175688D01*
X139655001Y-104550000D01*
X139655000Y-104549995D01*
X139655000Y-100726664D01*
X140154519Y-100392896D01*
X140563136Y-99781358D01*
X140706623Y-99060000D01*
X140621948Y-98634307D01*
X140702543Y-98513688D01*
X140827000Y-97888000D01*
X140827000Y-92338532D01*
X147657073Y-92338532D01*
X147755736Y-92605387D01*
X148365461Y-92831908D01*
X149015460Y-92807856D01*
X149504264Y-92605387D01*
X149602927Y-92338532D01*
X148630000Y-91365605D01*
X147657073Y-92338532D01*
X140827000Y-92338532D01*
X140827000Y-90921461D01*
X146984092Y-90921461D01*
X147008144Y-91571460D01*
X147210613Y-92060264D01*
X147477468Y-92158927D01*
X148450395Y-91186000D01*
X148809605Y-91186000D01*
X149782532Y-92158927D01*
X150049387Y-92060264D01*
X150275908Y-91450539D01*
X150251856Y-90800540D01*
X150049387Y-90311736D01*
X149782532Y-90213073D01*
X148809605Y-91186000D01*
X148450395Y-91186000D01*
X147477468Y-90213073D01*
X147210613Y-90311736D01*
X146984092Y-90921461D01*
X140827000Y-90921461D01*
X140827000Y-89907745D01*
X141863861Y-89907745D01*
X141937995Y-90153864D01*
X142475223Y-90346965D01*
X143045454Y-90319778D01*
X143446005Y-90153864D01*
X143482269Y-90033468D01*
X147657073Y-90033468D01*
X148630000Y-91006395D01*
X149602927Y-90033468D01*
X149504264Y-89766613D01*
X148894539Y-89540092D01*
X148244540Y-89564144D01*
X147755736Y-89766613D01*
X147657073Y-90033468D01*
X143482269Y-90033468D01*
X143520139Y-89907745D01*
X142692000Y-89079605D01*
X141863861Y-89907745D01*
X140827000Y-89907745D01*
X140827000Y-88900005D01*
X140827001Y-88900000D01*
X140783881Y-88683223D01*
X141245035Y-88683223D01*
X141272222Y-89253454D01*
X141438136Y-89654005D01*
X141684255Y-89728139D01*
X142512395Y-88900000D01*
X142871605Y-88900000D01*
X143699745Y-89728139D01*
X143945864Y-89654005D01*
X144138965Y-89116777D01*
X144111778Y-88546546D01*
X143945864Y-88145995D01*
X143699745Y-88071861D01*
X142871605Y-88900000D01*
X142512395Y-88900000D01*
X141684255Y-88071861D01*
X141438136Y-88145995D01*
X141245035Y-88683223D01*
X140783881Y-88683223D01*
X140702543Y-88274313D01*
X140652245Y-88199037D01*
X140639440Y-88179872D01*
X140639440Y-88100000D01*
X140600351Y-87892255D01*
X141863861Y-87892255D01*
X142692000Y-88720395D01*
X143520139Y-87892255D01*
X143446005Y-87646136D01*
X142908777Y-87453035D01*
X142338546Y-87480222D01*
X141937995Y-87646136D01*
X141863861Y-87892255D01*
X140600351Y-87892255D01*
X140595162Y-87864683D01*
X140478000Y-87682608D01*
X140478000Y-83575844D01*
X140544441Y-83533090D01*
X140689431Y-83320890D01*
X140740440Y-83069000D01*
X140740440Y-82454750D01*
X140958000Y-82454750D01*
X140958000Y-83195310D01*
X141054673Y-83428699D01*
X141233302Y-83607327D01*
X141466691Y-83704000D01*
X143057250Y-83704000D01*
X143216000Y-83545250D01*
X143216000Y-82296000D01*
X143470000Y-82296000D01*
X143470000Y-83545250D01*
X143628750Y-83704000D01*
X145219309Y-83704000D01*
X145452698Y-83607327D01*
X145631327Y-83428699D01*
X145728000Y-83195310D01*
X145728000Y-82454750D01*
X145569250Y-82296000D01*
X143470000Y-82296000D01*
X143216000Y-82296000D01*
X141116750Y-82296000D01*
X140958000Y-82454750D01*
X140740440Y-82454750D01*
X140740440Y-81269000D01*
X140716674Y-81142690D01*
X140958000Y-81142690D01*
X140958000Y-81883250D01*
X141116750Y-82042000D01*
X143216000Y-82042000D01*
X143216000Y-80792750D01*
X143470000Y-80792750D01*
X143470000Y-82042000D01*
X145569250Y-82042000D01*
X145728000Y-81883250D01*
X145728000Y-81142690D01*
X145631327Y-80909301D01*
X145452698Y-80730673D01*
X145219309Y-80634000D01*
X143628750Y-80634000D01*
X143470000Y-80792750D01*
X143216000Y-80792750D01*
X143057250Y-80634000D01*
X141466691Y-80634000D01*
X141233302Y-80730673D01*
X141054673Y-80909301D01*
X140958000Y-81142690D01*
X140716674Y-81142690D01*
X140696162Y-81033683D01*
X140557090Y-80817559D01*
X140478000Y-80763519D01*
X140478000Y-79982431D01*
X140490440Y-79921000D01*
X140490440Y-79406750D01*
X141208000Y-79406750D01*
X141208000Y-80047310D01*
X141304673Y-80280699D01*
X141483302Y-80459327D01*
X141716691Y-80556000D01*
X142557250Y-80556000D01*
X142716000Y-80397250D01*
X142716000Y-79248000D01*
X142970000Y-79248000D01*
X142970000Y-80397250D01*
X143128750Y-80556000D01*
X143969309Y-80556000D01*
X144202698Y-80459327D01*
X144381327Y-80280699D01*
X144478000Y-80047310D01*
X144478000Y-79406750D01*
X144319250Y-79248000D01*
X142970000Y-79248000D01*
X142716000Y-79248000D01*
X141366750Y-79248000D01*
X141208000Y-79406750D01*
X140490440Y-79406750D01*
X140490440Y-78321000D01*
X140478000Y-78254887D01*
X140478000Y-77365431D01*
X140490440Y-77304000D01*
X140490440Y-75604000D01*
X141195560Y-75604000D01*
X141195560Y-77304000D01*
X141239838Y-77539317D01*
X141378910Y-77755441D01*
X141457105Y-77808870D01*
X141304673Y-77961301D01*
X141208000Y-78194690D01*
X141208000Y-78835250D01*
X141366750Y-78994000D01*
X142716000Y-78994000D01*
X142716000Y-78974000D01*
X142970000Y-78974000D01*
X142970000Y-78994000D01*
X144319250Y-78994000D01*
X144478000Y-78835250D01*
X144478000Y-78194690D01*
X144381327Y-77961301D01*
X144229746Y-77809720D01*
X144294441Y-77768090D01*
X144439431Y-77555890D01*
X144490440Y-77304000D01*
X144490440Y-77214000D01*
X151175198Y-77214000D01*
X157665316Y-83704118D01*
X158069369Y-86128438D01*
X158104838Y-86257317D01*
X158243910Y-86473441D01*
X158456110Y-86618431D01*
X158708000Y-86669440D01*
X159808000Y-86669440D01*
X159940956Y-86655641D01*
X160177003Y-86553992D01*
X160354905Y-86368516D01*
X160446631Y-86128438D01*
X161046631Y-82528438D01*
X161011162Y-82186683D01*
X160872090Y-81970559D01*
X160659890Y-81825569D01*
X160408000Y-81774560D01*
X158108000Y-81774560D01*
X157933411Y-81822609D01*
X153169824Y-77059022D01*
X156546584Y-77059022D01*
X156767353Y-77429743D01*
X157739012Y-77823119D01*
X158787247Y-77814713D01*
X159716647Y-77429743D01*
X159937416Y-77059022D01*
X158242000Y-75363605D01*
X156546584Y-77059022D01*
X153169824Y-77059022D01*
X152027401Y-75916599D01*
X151780839Y-75751852D01*
X151490000Y-75694000D01*
X144490440Y-75694000D01*
X144490440Y-75604000D01*
X144446162Y-75368683D01*
X144307090Y-75152559D01*
X144094890Y-75007569D01*
X143843000Y-74956560D01*
X141843000Y-74956560D01*
X141607683Y-75000838D01*
X141391559Y-75139910D01*
X141246569Y-75352110D01*
X141195560Y-75604000D01*
X140490440Y-75604000D01*
X140446162Y-75368683D01*
X140307090Y-75152559D01*
X140094890Y-75007569D01*
X139843000Y-74956560D01*
X139488297Y-74956560D01*
X139468687Y-74943457D01*
X138843000Y-74819000D01*
X138217313Y-74943457D01*
X138197703Y-74956560D01*
X137843000Y-74956560D01*
X137607683Y-75000838D01*
X137391559Y-75139910D01*
X137246569Y-75352110D01*
X137195560Y-75604000D01*
X137195560Y-77304000D01*
X137208000Y-77370113D01*
X137208000Y-78259569D01*
X137195560Y-78321000D01*
X137195560Y-78456200D01*
X137186880Y-78464880D01*
X136832457Y-78995312D01*
X136707999Y-79621000D01*
X136708000Y-79621005D01*
X136708000Y-80621560D01*
X136593000Y-80621560D01*
X136357683Y-80665838D01*
X136187546Y-80775318D01*
X136152604Y-80599655D01*
X135906567Y-80231435D01*
X135727440Y-80052308D01*
X135727440Y-79160000D01*
X135683162Y-78924683D01*
X135544090Y-78708559D01*
X135331890Y-78563569D01*
X135080000Y-78512560D01*
X133080000Y-78512560D01*
X132844683Y-78556838D01*
X132628559Y-78695910D01*
X132483569Y-78908110D01*
X132432560Y-79160000D01*
X132432560Y-80860000D01*
X132476838Y-81095317D01*
X132615910Y-81311441D01*
X132828110Y-81456431D01*
X133080000Y-81507440D01*
X133969001Y-81507440D01*
X133969001Y-81864560D01*
X132804000Y-81864560D01*
X132568683Y-81908838D01*
X132352559Y-82047910D01*
X132207569Y-82260110D01*
X132176185Y-82415089D01*
X132078698Y-82269189D01*
X131613151Y-81958120D01*
X131064000Y-81848887D01*
X130740114Y-81913312D01*
X130334242Y-81507440D01*
X131080000Y-81507440D01*
X131315317Y-81463162D01*
X131531441Y-81324090D01*
X131676431Y-81111890D01*
X131727440Y-80860000D01*
X131727440Y-79160000D01*
X131683162Y-78924683D01*
X131544090Y-78708559D01*
X131331890Y-78563569D01*
X131080000Y-78512560D01*
X130710920Y-78512560D01*
X130617401Y-78372599D01*
X128669401Y-76424599D01*
X128422839Y-76259852D01*
X128132000Y-76202000D01*
X125091440Y-76202000D01*
X125091440Y-75662000D01*
X125047162Y-75426683D01*
X124908090Y-75210559D01*
X124695890Y-75065569D01*
X124444000Y-75014560D01*
X122539000Y-75014560D01*
X122539000Y-74339240D01*
X123259240Y-73618999D01*
X156147982Y-73618999D01*
X155996257Y-73709353D01*
G36*
X126133173Y-103915788D02*
X126133175Y-103915791D01*
X126420290Y-104107634D01*
X126476481Y-104118811D01*
X126758965Y-104175002D01*
X126758970Y-104175001D01*
X127294175Y-104175001D01*
X127406039Y-104737378D01*
X127727946Y-105219147D01*
X128209715Y-105541054D01*
X128655000Y-105629627D01*
X128655000Y-106805829D01*
X128324176Y-107136077D01*
X128270138Y-107266215D01*
X128217243Y-107138200D01*
X127813923Y-106734176D01*
X127286691Y-106515250D01*
X126715813Y-106514752D01*
X126188200Y-106732757D01*
X125784176Y-107136077D01*
X125730138Y-107266215D01*
X125677243Y-107138200D01*
X125273923Y-106734176D01*
X124746691Y-106515250D01*
X124175813Y-106514752D01*
X123648200Y-106732757D01*
X123244176Y-107136077D01*
X123190138Y-107266215D01*
X123137243Y-107138200D01*
X122906439Y-106906993D01*
X123187401Y-106626031D01*
X123352148Y-106379469D01*
X123410000Y-106088630D01*
X123410000Y-104361563D01*
X123546431Y-104161890D01*
X123577000Y-104010936D01*
X123577000Y-104386250D01*
X123735750Y-104545000D01*
X123876310Y-104545000D01*
X124109699Y-104448327D01*
X124288327Y-104269698D01*
X124385000Y-104036309D01*
X124385000Y-103595750D01*
X124226250Y-103437000D01*
X123597440Y-103437000D01*
X123597440Y-103183000D01*
X124226250Y-103183000D01*
X124385000Y-103024250D01*
X124385000Y-102807440D01*
X125024824Y-102807440D01*
X126133173Y-103915788D01*
X126133173Y-103915788D01*
G37*
X126133173Y-103915788D02*
X126133175Y-103915791D01*
X126420290Y-104107634D01*
X126476481Y-104118811D01*
X126758965Y-104175002D01*
X126758970Y-104175001D01*
X127294175Y-104175001D01*
X127406039Y-104737378D01*
X127727946Y-105219147D01*
X128209715Y-105541054D01*
X128655000Y-105629627D01*
X128655000Y-106805829D01*
X128324176Y-107136077D01*
X128270138Y-107266215D01*
X128217243Y-107138200D01*
X127813923Y-106734176D01*
X127286691Y-106515250D01*
X126715813Y-106514752D01*
X126188200Y-106732757D01*
X125784176Y-107136077D01*
X125730138Y-107266215D01*
X125677243Y-107138200D01*
X125273923Y-106734176D01*
X124746691Y-106515250D01*
X124175813Y-106514752D01*
X123648200Y-106732757D01*
X123244176Y-107136077D01*
X123190138Y-107266215D01*
X123137243Y-107138200D01*
X122906439Y-106906993D01*
X123187401Y-106626031D01*
X123352148Y-106379469D01*
X123410000Y-106088630D01*
X123410000Y-104361563D01*
X123546431Y-104161890D01*
X123577000Y-104010936D01*
X123577000Y-104386250D01*
X123735750Y-104545000D01*
X123876310Y-104545000D01*
X124109699Y-104448327D01*
X124288327Y-104269698D01*
X124385000Y-104036309D01*
X124385000Y-103595750D01*
X124226250Y-103437000D01*
X123597440Y-103437000D01*
X123597440Y-103183000D01*
X124226250Y-103183000D01*
X124385000Y-103024250D01*
X124385000Y-102807440D01*
X125024824Y-102807440D01*
X126133173Y-103915788D01*
G36*
X128692156Y-95059322D02*
X128545000Y-95034796D01*
X128545000Y-96393000D01*
X128565000Y-96393000D01*
X128565000Y-96647000D01*
X128545000Y-96647000D01*
X128545000Y-98005204D01*
X129808000Y-97794704D01*
X129808000Y-98832560D01*
X128318000Y-98832560D01*
X128082683Y-98876838D01*
X127866559Y-99015910D01*
X127721569Y-99228110D01*
X127670560Y-99480000D01*
X127670560Y-100745001D01*
X127286732Y-100745001D01*
X127419719Y-100612246D01*
X127577620Y-100231977D01*
X127577979Y-99820229D01*
X127420742Y-99439685D01*
X127129846Y-99148281D01*
X126749577Y-98990380D01*
X126585001Y-98990237D01*
X126585001Y-98303797D01*
X126724438Y-98308631D01*
X128291000Y-98047537D01*
X128291000Y-96647000D01*
X128271000Y-96647000D01*
X128271000Y-96393000D01*
X128291000Y-96393000D01*
X128291000Y-94992463D01*
X126958147Y-94770321D01*
X126937355Y-94720000D01*
X128352834Y-94720000D01*
X128692156Y-95059322D01*
X128692156Y-95059322D01*
G37*
X128692156Y-95059322D02*
X128545000Y-95034796D01*
X128545000Y-96393000D01*
X128565000Y-96393000D01*
X128565000Y-96647000D01*
X128545000Y-96647000D01*
X128545000Y-98005204D01*
X129808000Y-97794704D01*
X129808000Y-98832560D01*
X128318000Y-98832560D01*
X128082683Y-98876838D01*
X127866559Y-99015910D01*
X127721569Y-99228110D01*
X127670560Y-99480000D01*
X127670560Y-100745001D01*
X127286732Y-100745001D01*
X127419719Y-100612246D01*
X127577620Y-100231977D01*
X127577979Y-99820229D01*
X127420742Y-99439685D01*
X127129846Y-99148281D01*
X126749577Y-98990380D01*
X126585001Y-98990237D01*
X126585001Y-98303797D01*
X126724438Y-98308631D01*
X128291000Y-98047537D01*
X128291000Y-96647000D01*
X128271000Y-96647000D01*
X128271000Y-96393000D01*
X128291000Y-96393000D01*
X128291000Y-94992463D01*
X126958147Y-94770321D01*
X126937355Y-94720000D01*
X128352834Y-94720000D01*
X128692156Y-95059322D01*
G36*
X118316954Y-86728919D02*
X118697223Y-86886820D01*
X119108971Y-86887179D01*
X119341284Y-86791190D01*
X119421612Y-86911410D01*
X121269001Y-88758799D01*
X121269001Y-89541490D01*
X120904000Y-89468887D01*
X120354849Y-89578120D01*
X119889302Y-89889189D01*
X119634000Y-90271275D01*
X119378698Y-89889189D01*
X118913151Y-89578120D01*
X118364000Y-89468887D01*
X117814849Y-89578120D01*
X117349302Y-89889189D01*
X117038233Y-90354736D01*
X116929000Y-90903887D01*
X116929000Y-90960113D01*
X117038233Y-91509264D01*
X117349302Y-91974811D01*
X117814849Y-92285880D01*
X118364000Y-92395113D01*
X118913151Y-92285880D01*
X119378698Y-91974811D01*
X119634000Y-91592725D01*
X119889302Y-91974811D01*
X120308371Y-92254825D01*
X119988948Y-92574248D01*
X119803536Y-92497259D01*
X119391788Y-92496900D01*
X119011244Y-92654137D01*
X118719840Y-92945033D01*
X118561939Y-93325302D01*
X118561732Y-93562560D01*
X118350000Y-93562560D01*
X118278677Y-93575980D01*
X118276310Y-93575000D01*
X118135750Y-93575000D01*
X118084471Y-93626279D01*
X117898559Y-93745910D01*
X117753569Y-93958110D01*
X117723000Y-94109064D01*
X117723000Y-93733750D01*
X117564250Y-93575000D01*
X117423690Y-93575000D01*
X117190301Y-93671673D01*
X117011673Y-93850302D01*
X116915000Y-94083691D01*
X116915000Y-94496250D01*
X116792046Y-94373081D01*
X116411777Y-94215180D01*
X116371634Y-94215145D01*
X116615401Y-93971378D01*
X116780148Y-93724817D01*
X116801992Y-93615000D01*
X116838000Y-93433977D01*
X116838000Y-89476761D01*
X116954919Y-89360046D01*
X117112820Y-88979777D01*
X117113179Y-88568029D01*
X116955942Y-88187485D01*
X116665046Y-87896081D01*
X116284777Y-87738180D01*
X115873029Y-87737821D01*
X115619012Y-87842778D01*
X115619012Y-87811691D01*
X116593688Y-86837015D01*
X116758892Y-86837159D01*
X117139436Y-86679922D01*
X117257584Y-86561980D01*
X118150306Y-86561980D01*
X118316954Y-86728919D01*
X118316954Y-86728919D01*
G37*
X118316954Y-86728919D02*
X118697223Y-86886820D01*
X119108971Y-86887179D01*
X119341284Y-86791190D01*
X119421612Y-86911410D01*
X121269001Y-88758799D01*
X121269001Y-89541490D01*
X120904000Y-89468887D01*
X120354849Y-89578120D01*
X119889302Y-89889189D01*
X119634000Y-90271275D01*
X119378698Y-89889189D01*
X118913151Y-89578120D01*
X118364000Y-89468887D01*
X117814849Y-89578120D01*
X117349302Y-89889189D01*
X117038233Y-90354736D01*
X116929000Y-90903887D01*
X116929000Y-90960113D01*
X117038233Y-91509264D01*
X117349302Y-91974811D01*
X117814849Y-92285880D01*
X118364000Y-92395113D01*
X118913151Y-92285880D01*
X119378698Y-91974811D01*
X119634000Y-91592725D01*
X119889302Y-91974811D01*
X120308371Y-92254825D01*
X119988948Y-92574248D01*
X119803536Y-92497259D01*
X119391788Y-92496900D01*
X119011244Y-92654137D01*
X118719840Y-92945033D01*
X118561939Y-93325302D01*
X118561732Y-93562560D01*
X118350000Y-93562560D01*
X118278677Y-93575980D01*
X118276310Y-93575000D01*
X118135750Y-93575000D01*
X118084471Y-93626279D01*
X117898559Y-93745910D01*
X117753569Y-93958110D01*
X117723000Y-94109064D01*
X117723000Y-93733750D01*
X117564250Y-93575000D01*
X117423690Y-93575000D01*
X117190301Y-93671673D01*
X117011673Y-93850302D01*
X116915000Y-94083691D01*
X116915000Y-94496250D01*
X116792046Y-94373081D01*
X116411777Y-94215180D01*
X116371634Y-94215145D01*
X116615401Y-93971378D01*
X116780148Y-93724817D01*
X116801992Y-93615000D01*
X116838000Y-93433977D01*
X116838000Y-89476761D01*
X116954919Y-89360046D01*
X117112820Y-88979777D01*
X117113179Y-88568029D01*
X116955942Y-88187485D01*
X116665046Y-87896081D01*
X116284777Y-87738180D01*
X115873029Y-87737821D01*
X115619012Y-87842778D01*
X115619012Y-87811691D01*
X116593688Y-86837015D01*
X116758892Y-86837159D01*
X117139436Y-86679922D01*
X117257584Y-86561980D01*
X118150306Y-86561980D01*
X118316954Y-86728919D01*
G36*
X130049302Y-84354811D02*
X130514849Y-84665880D01*
X131064000Y-84775113D01*
X131613151Y-84665880D01*
X132078698Y-84354811D01*
X132175101Y-84210535D01*
X132200838Y-84347317D01*
X132335152Y-84556046D01*
X131741589Y-85149609D01*
X131576842Y-85396171D01*
X131518990Y-85687010D01*
X131518990Y-89559390D01*
X131064000Y-89468887D01*
X130514849Y-89578120D01*
X130049302Y-89889189D01*
X129794000Y-90271275D01*
X129538698Y-89889189D01*
X129073151Y-89578120D01*
X128524000Y-89468887D01*
X127974849Y-89578120D01*
X127509302Y-89889189D01*
X127254000Y-90271275D01*
X126998698Y-89889189D01*
X126533151Y-89578120D01*
X126200522Y-89511956D01*
X126306663Y-89406000D01*
X126370148Y-89406000D01*
X126465966Y-89501985D01*
X126846235Y-89659886D01*
X127257983Y-89660245D01*
X127638527Y-89503008D01*
X127929931Y-89212112D01*
X128087832Y-88831843D01*
X128088191Y-88420095D01*
X127930954Y-88039551D01*
X127640058Y-87748147D01*
X127259789Y-87590246D01*
X126848041Y-87589887D01*
X126467497Y-87747124D01*
X126328378Y-87886000D01*
X126306761Y-87886000D01*
X126190046Y-87769081D01*
X125809777Y-87611180D01*
X125398029Y-87610821D01*
X125017485Y-87768058D01*
X124726081Y-88058954D01*
X124568180Y-88439223D01*
X124568071Y-88564268D01*
X122789001Y-86785199D01*
X122789001Y-84595155D01*
X122894849Y-84665880D01*
X123444000Y-84775113D01*
X123993151Y-84665880D01*
X124458698Y-84354811D01*
X124714000Y-83972725D01*
X124969302Y-84354811D01*
X125434849Y-84665880D01*
X125984000Y-84775113D01*
X126533151Y-84665880D01*
X126998698Y-84354811D01*
X127254000Y-83972725D01*
X127509302Y-84354811D01*
X127974849Y-84665880D01*
X128524000Y-84775113D01*
X129073151Y-84665880D01*
X129538698Y-84354811D01*
X129794000Y-83972725D01*
X130049302Y-84354811D01*
X130049302Y-84354811D01*
G37*
X130049302Y-84354811D02*
X130514849Y-84665880D01*
X131064000Y-84775113D01*
X131613151Y-84665880D01*
X132078698Y-84354811D01*
X132175101Y-84210535D01*
X132200838Y-84347317D01*
X132335152Y-84556046D01*
X131741589Y-85149609D01*
X131576842Y-85396171D01*
X131518990Y-85687010D01*
X131518990Y-89559390D01*
X131064000Y-89468887D01*
X130514849Y-89578120D01*
X130049302Y-89889189D01*
X129794000Y-90271275D01*
X129538698Y-89889189D01*
X129073151Y-89578120D01*
X128524000Y-89468887D01*
X127974849Y-89578120D01*
X127509302Y-89889189D01*
X127254000Y-90271275D01*
X126998698Y-89889189D01*
X126533151Y-89578120D01*
X126200522Y-89511956D01*
X126306663Y-89406000D01*
X126370148Y-89406000D01*
X126465966Y-89501985D01*
X126846235Y-89659886D01*
X127257983Y-89660245D01*
X127638527Y-89503008D01*
X127929931Y-89212112D01*
X128087832Y-88831843D01*
X128088191Y-88420095D01*
X127930954Y-88039551D01*
X127640058Y-87748147D01*
X127259789Y-87590246D01*
X126848041Y-87589887D01*
X126467497Y-87747124D01*
X126328378Y-87886000D01*
X126306761Y-87886000D01*
X126190046Y-87769081D01*
X125809777Y-87611180D01*
X125398029Y-87610821D01*
X125017485Y-87768058D01*
X124726081Y-88058954D01*
X124568180Y-88439223D01*
X124568071Y-88564268D01*
X122789001Y-86785199D01*
X122789001Y-84595155D01*
X122894849Y-84665880D01*
X123444000Y-84775113D01*
X123993151Y-84665880D01*
X124458698Y-84354811D01*
X124714000Y-83972725D01*
X124969302Y-84354811D01*
X125434849Y-84665880D01*
X125984000Y-84775113D01*
X126533151Y-84665880D01*
X126998698Y-84354811D01*
X127254000Y-83972725D01*
X127509302Y-84354811D01*
X127974849Y-84665880D01*
X128524000Y-84775113D01*
X129073151Y-84665880D01*
X129538698Y-84354811D01*
X129794000Y-83972725D01*
X130049302Y-84354811D01*
M02*
