G04 #@! TF.FileFunction,Legend,Bot*
%FSLAX46Y46*%
G04 Gerber Fmt 4.6, Leading zero omitted, Abs format (unit mm)*
G04 Created by KiCad (PCBNEW 4.0.2+dfsg1-stable) date ven. 05 janv. 2018 23:18:11 CET*
%MOMM*%
G01*
G04 APERTURE LIST*
%ADD10C,0.100000*%
%ADD11C,0.120000*%
%ADD12C,0.150000*%
G04 APERTURE END LIST*
D10*
D11*
X121904000Y-86872000D02*
X119904000Y-86872000D01*
X119904000Y-84832000D02*
X121904000Y-84832000D01*
X131937000Y-87068000D02*
X129937000Y-87068000D01*
X129937000Y-89208000D02*
X131937000Y-89208000D01*
X130064000Y-84832000D02*
X132064000Y-84832000D01*
X132064000Y-86872000D02*
X130064000Y-86872000D01*
X121904000Y-89539000D02*
X119904000Y-89539000D01*
X119904000Y-87499000D02*
X121904000Y-87499000D01*
D12*
X121070666Y-87959143D02*
X121118285Y-88006762D01*
X121261142Y-88054381D01*
X121356380Y-88054381D01*
X121499238Y-88006762D01*
X121594476Y-87911524D01*
X121642095Y-87816286D01*
X121689714Y-87625810D01*
X121689714Y-87482952D01*
X121642095Y-87292476D01*
X121594476Y-87197238D01*
X121499238Y-87102000D01*
X121356380Y-87054381D01*
X121261142Y-87054381D01*
X121118285Y-87102000D01*
X121070666Y-87149619D01*
X120737333Y-87054381D02*
X120118285Y-87054381D01*
X120451619Y-87435333D01*
X120308761Y-87435333D01*
X120213523Y-87482952D01*
X120165904Y-87530571D01*
X120118285Y-87625810D01*
X120118285Y-87863905D01*
X120165904Y-87959143D01*
X120213523Y-88006762D01*
X120308761Y-88054381D01*
X120594476Y-88054381D01*
X120689714Y-88006762D01*
X120737333Y-87959143D01*
X131103666Y-90440381D02*
X131437000Y-89964190D01*
X131675095Y-90440381D02*
X131675095Y-89440381D01*
X131294142Y-89440381D01*
X131198904Y-89488000D01*
X131151285Y-89535619D01*
X131103666Y-89630857D01*
X131103666Y-89773714D01*
X131151285Y-89868952D01*
X131198904Y-89916571D01*
X131294142Y-89964190D01*
X131675095Y-89964190D01*
X130151285Y-90440381D02*
X130722714Y-90440381D01*
X130437000Y-90440381D02*
X130437000Y-89440381D01*
X130532238Y-89583238D01*
X130627476Y-89678476D01*
X130722714Y-89726095D01*
X131230666Y-84459143D02*
X131278285Y-84506762D01*
X131421142Y-84554381D01*
X131516380Y-84554381D01*
X131659238Y-84506762D01*
X131754476Y-84411524D01*
X131802095Y-84316286D01*
X131849714Y-84125810D01*
X131849714Y-83982952D01*
X131802095Y-83792476D01*
X131754476Y-83697238D01*
X131659238Y-83602000D01*
X131516380Y-83554381D01*
X131421142Y-83554381D01*
X131278285Y-83602000D01*
X131230666Y-83649619D01*
X130849714Y-83649619D02*
X130802095Y-83602000D01*
X130706857Y-83554381D01*
X130468761Y-83554381D01*
X130373523Y-83602000D01*
X130325904Y-83649619D01*
X130278285Y-83744857D01*
X130278285Y-83840095D01*
X130325904Y-83982952D01*
X130897333Y-84554381D01*
X130278285Y-84554381D01*
X121070666Y-90626143D02*
X121118285Y-90673762D01*
X121261142Y-90721381D01*
X121356380Y-90721381D01*
X121499238Y-90673762D01*
X121594476Y-90578524D01*
X121642095Y-90483286D01*
X121689714Y-90292810D01*
X121689714Y-90149952D01*
X121642095Y-89959476D01*
X121594476Y-89864238D01*
X121499238Y-89769000D01*
X121356380Y-89721381D01*
X121261142Y-89721381D01*
X121118285Y-89769000D01*
X121070666Y-89816619D01*
X120118285Y-90721381D02*
X120689714Y-90721381D01*
X120404000Y-90721381D02*
X120404000Y-89721381D01*
X120499238Y-89864238D01*
X120594476Y-89959476D01*
X120689714Y-90007095D01*
M02*
