G04 #@! TF.FileFunction,Copper,L2,Bot,Signal*
%FSLAX46Y46*%
G04 Gerber Fmt 4.6, Leading zero omitted, Abs format (unit mm)*
G04 Created by KiCad (PCBNEW 4.0.2+dfsg1-stable) date ven. 05 janv. 2018 23:18:11 CET*
%MOMM*%
G01*
G04 APERTURE LIST*
%ADD10C,0.100000*%
%ADD11R,2.000000X1.600000*%
%ADD12R,1.600000X1.600000*%
%ADD13C,1.600000*%
%ADD14O,4.000000X2.500000*%
%ADD15C,2.000000*%
%ADD16C,4.000000*%
%ADD17R,2.000000X1.700000*%
%ADD18R,1.700000X1.700000*%
%ADD19O,1.700000X1.700000*%
%ADD20O,1.600000X1.600000*%
%ADD21R,2.600000X2.000000*%
%ADD22O,2.600000X2.000000*%
%ADD23C,1.500000*%
%ADD24R,2.000000X2.600000*%
%ADD25O,2.000000X2.600000*%
%ADD26C,0.800000*%
%ADD27C,0.250000*%
%ADD28C,0.500000*%
%ADD29C,2.000000*%
%ADD30C,1.000000*%
%ADD31C,0.254000*%
G04 APERTURE END LIST*
D10*
D11*
X118904000Y-85852000D03*
X122904000Y-85852000D03*
D12*
X139192000Y-88900000D03*
D13*
X142692000Y-88900000D03*
D14*
X138020000Y-99060000D03*
X160020000Y-99060000D03*
D15*
X153630000Y-91186000D03*
X148630000Y-91186000D03*
D16*
X158242000Y-75184000D03*
D17*
X128937000Y-88138000D03*
X132937000Y-88138000D03*
D18*
X133858000Y-104140000D03*
D19*
X131318000Y-104140000D03*
X128778000Y-104140000D03*
D11*
X133064000Y-85852000D03*
X129064000Y-85852000D03*
D12*
X133604000Y-83312000D03*
D20*
X118364000Y-90932000D03*
X131064000Y-83312000D03*
X120904000Y-90932000D03*
X128524000Y-83312000D03*
X123444000Y-90932000D03*
X125984000Y-83312000D03*
X125984000Y-90932000D03*
X123444000Y-83312000D03*
X128524000Y-90932000D03*
X120904000Y-83312000D03*
X131064000Y-90932000D03*
X118364000Y-83312000D03*
X133604000Y-90932000D03*
D21*
X98806000Y-122428000D03*
D22*
X98806000Y-124968000D03*
D16*
X98552000Y-129540000D03*
D21*
X98806000Y-114808000D03*
D22*
X98806000Y-117348000D03*
D21*
X98806000Y-102108000D03*
D22*
X98806000Y-104648000D03*
X98806000Y-107188000D03*
X98806000Y-109728000D03*
D23*
X106680000Y-103378000D03*
X111580000Y-103378000D03*
D13*
X134620000Y-107950000D03*
X132080000Y-107950000D03*
X129540000Y-107950000D03*
X127000000Y-107950000D03*
X124460000Y-107950000D03*
X121920000Y-107950000D03*
X119380000Y-107950000D03*
X116840000Y-107950000D03*
X114300000Y-107950000D03*
X111760000Y-107950000D03*
X109220000Y-107950000D03*
X106680000Y-107950000D03*
D24*
X106426000Y-76962000D03*
D25*
X108966000Y-76962000D03*
X111506000Y-76962000D03*
X114046000Y-76962000D03*
D24*
X123444000Y-76962000D03*
D25*
X120904000Y-76962000D03*
X118364000Y-76962000D03*
D11*
X118904000Y-88519000D03*
X122904000Y-88519000D03*
D12*
X139192000Y-120650000D03*
D13*
X142692000Y-120650000D03*
D14*
X138020000Y-110490000D03*
X160020000Y-110490000D03*
D15*
X149392000Y-118364000D03*
X154392000Y-118364000D03*
D16*
X159258000Y-130302000D03*
X99314000Y-76200000D03*
D12*
X113284000Y-98298000D03*
D20*
X105664000Y-83058000D03*
X113284000Y-95758000D03*
X105664000Y-85598000D03*
X113284000Y-93218000D03*
X105664000Y-88138000D03*
X113284000Y-90678000D03*
X105664000Y-90678000D03*
X113284000Y-88138000D03*
X105664000Y-93218000D03*
X113284000Y-85598000D03*
X105664000Y-95758000D03*
X113284000Y-83058000D03*
X105664000Y-98298000D03*
D21*
X98806000Y-88646000D03*
D22*
X98806000Y-91186000D03*
D21*
X98806000Y-97790000D03*
D22*
X98806000Y-95250000D03*
D21*
X98806000Y-84582000D03*
D22*
X98806000Y-82042000D03*
D26*
X116078000Y-88773000D03*
X111662629Y-98068120D03*
X107289600Y-117348000D03*
X103073200Y-107848400D03*
X128422400Y-94945200D03*
X126847600Y-98450400D03*
X125222000Y-103378000D03*
X127203200Y-85394800D03*
X125120400Y-85852000D03*
X121005600Y-88493600D03*
X115742121Y-81957990D03*
X118904000Y-85852000D03*
X116553921Y-85801980D03*
X106037190Y-117348000D03*
X133045200Y-112572800D03*
X120777000Y-126111000D03*
X103378000Y-124587000D03*
X110744000Y-101473000D03*
X121144530Y-97988011D03*
X102997000Y-102235000D03*
X121629979Y-93457291D03*
X120705910Y-98886696D03*
X119596759Y-93532079D03*
X121031000Y-80772000D03*
X122210990Y-92643381D03*
X124871156Y-92951076D03*
X124841000Y-95123000D03*
X125984000Y-95123000D03*
X127053012Y-88625066D03*
X125603000Y-88646000D03*
X117729000Y-97663000D03*
X123315573Y-100985010D03*
X116205000Y-95250000D03*
X121412000Y-96139000D03*
X123571000Y-98425000D03*
X126542800Y-100025200D03*
X116515376Y-80645791D03*
X111379000Y-88265000D03*
D27*
X116078000Y-88773000D02*
X118650000Y-88773000D01*
X118650000Y-88773000D02*
X118904000Y-88519000D01*
X111662629Y-98395371D02*
X111662629Y-98068120D01*
X106680000Y-103378000D02*
X111662629Y-98395371D01*
D28*
X126281915Y-98450400D02*
X126847600Y-98450400D01*
X126231410Y-98450400D02*
X126281915Y-98450400D01*
D29*
X131345190Y-113276967D02*
X131345190Y-111252903D01*
D28*
X125222000Y-99459810D02*
X126231410Y-98450400D01*
X125222000Y-103378000D02*
X125222000Y-99459810D01*
D29*
X132341033Y-114272810D02*
X131345190Y-113276967D01*
X131345190Y-111252903D02*
X132341033Y-110257060D01*
X132341033Y-110257060D02*
X132341033Y-108211033D01*
X132341033Y-108211033D02*
X132280009Y-108150009D01*
X132280009Y-108150009D02*
X132080000Y-108150009D01*
X148630000Y-91186000D02*
X148630000Y-104094837D01*
X148630000Y-104094837D02*
X138452027Y-114272810D01*
X138452027Y-114272810D02*
X132341033Y-114272810D01*
X132341033Y-114272810D02*
X132165023Y-114096800D01*
X118364000Y-76962000D02*
X118364000Y-76090717D01*
X118364000Y-76090717D02*
X121270716Y-73184001D01*
X121270716Y-73184001D02*
X156242001Y-73184001D01*
X156242001Y-73184001D02*
X158242000Y-75184000D01*
D30*
X107289600Y-112064800D02*
X107289600Y-117348000D01*
X103073200Y-107848400D02*
X107289600Y-112064800D01*
D28*
X118364000Y-83312000D02*
X119614001Y-84562001D01*
X119614001Y-84562001D02*
X120114001Y-84562001D01*
X120114001Y-84562001D02*
X121404000Y-85852000D01*
X121404000Y-85852000D02*
X122904000Y-85852000D01*
X128422400Y-94945200D02*
X129774001Y-93593599D01*
X129774001Y-93593599D02*
X129774001Y-89961001D01*
X129774001Y-89961001D02*
X130387001Y-89348001D01*
X130387001Y-89348001D02*
X130387001Y-86927999D01*
X130387001Y-86927999D02*
X129311002Y-85852000D01*
X129311002Y-85852000D02*
X129064000Y-85852000D01*
D30*
X127203200Y-85394800D02*
X128606800Y-85394800D01*
X128606800Y-85394800D02*
X129064000Y-85852000D01*
X122904000Y-85852000D02*
X125120400Y-85852000D01*
X122904000Y-88519000D02*
X122904000Y-85852000D01*
D28*
X121005600Y-88493600D02*
X122878600Y-88493600D01*
X122878600Y-88493600D02*
X122904000Y-88519000D01*
X129264000Y-85852000D02*
X129064000Y-85852000D01*
X133858000Y-104140000D02*
X133858000Y-104013000D01*
D27*
X135033001Y-100747471D02*
X132478999Y-98193469D01*
X132478999Y-88596001D02*
X132937000Y-88138000D01*
X135033001Y-105250001D02*
X135033001Y-100747471D01*
X118839999Y-109075001D02*
X125289999Y-109075001D01*
X133458003Y-106824999D02*
X135033001Y-105250001D01*
X126092790Y-100648192D02*
X125817799Y-100373201D01*
X126992810Y-106824999D02*
X133458003Y-106824999D01*
X126992810Y-100648192D02*
X126992810Y-106824999D01*
X127267801Y-99677199D02*
X127267801Y-100373201D01*
X125817799Y-99677199D02*
X126194799Y-99300199D01*
X127267801Y-100373201D02*
X126992810Y-100648192D01*
X125817799Y-100373201D02*
X125817799Y-99677199D01*
X126092790Y-107192208D02*
X126092790Y-100648192D01*
X126890801Y-99300199D02*
X127267801Y-99677199D01*
X125874999Y-107409999D02*
X126092790Y-107192208D01*
X132478999Y-98193469D02*
X132478999Y-88596001D01*
X125874999Y-108490001D02*
X125874999Y-107409999D01*
X125289999Y-109075001D02*
X125874999Y-108490001D01*
X117965001Y-108200003D02*
X118839999Y-109075001D01*
X117965001Y-107409999D02*
X117965001Y-108200003D01*
X126194799Y-99300199D02*
X126890801Y-99300199D01*
X113933002Y-103378000D02*
X117965001Y-107409999D01*
X111580000Y-103378000D02*
X113933002Y-103378000D01*
X132937000Y-88138000D02*
X132937000Y-85979000D01*
X132937000Y-85979000D02*
X133064000Y-85852000D01*
X115742121Y-84990180D02*
X115742121Y-82523675D01*
X115742121Y-82523675D02*
X115742121Y-81957990D01*
X116553921Y-85801980D02*
X115742121Y-84990180D01*
D28*
X98506000Y-102108000D02*
X97006000Y-103608000D01*
X97006000Y-103608000D02*
X97006000Y-110278623D01*
X99867200Y-111178010D02*
X105637191Y-116948001D01*
X105637191Y-116948001D02*
X106037190Y-117348000D01*
X97006000Y-110278623D02*
X97905387Y-111178010D01*
X97905387Y-111178010D02*
X99867200Y-111178010D01*
X98806000Y-102108000D02*
X98506000Y-102108000D01*
D30*
X136245600Y-100793330D02*
X136245600Y-108756670D01*
X136245600Y-108756670D02*
X133045200Y-111957070D01*
X133045200Y-111957070D02*
X133045200Y-112572800D01*
X133604000Y-90932000D02*
X134403999Y-91731999D01*
X134403999Y-98951729D02*
X136245600Y-100793330D01*
X134403999Y-91731999D02*
X134403999Y-98951729D01*
D28*
X109220000Y-119310685D02*
X109220000Y-118745000D01*
X103943685Y-124587000D02*
X109220000Y-119310685D01*
X103378000Y-124587000D02*
X103943685Y-124587000D01*
X109220000Y-118745000D02*
X113411000Y-118745000D01*
X113411000Y-118745000D02*
X120777000Y-126111000D01*
X109220000Y-118745000D02*
X109220000Y-107950000D01*
X110744000Y-101473000D02*
X109220000Y-102997000D01*
X109220000Y-102997000D02*
X109220000Y-107950000D01*
D27*
X122358400Y-97988011D02*
X121710215Y-97988011D01*
X121710215Y-97988011D02*
X121144530Y-97988011D01*
X131318000Y-104140000D02*
X131318000Y-101542996D01*
X131318000Y-101542996D02*
X127246402Y-97471398D01*
X127246402Y-97471398D02*
X122875013Y-97471398D01*
X122875013Y-97471398D02*
X122358400Y-97988011D01*
X102997000Y-102235000D02*
X102997000Y-105837000D01*
X102997000Y-105837000D02*
X99106000Y-109728000D01*
X99106000Y-109728000D02*
X98806000Y-109728000D01*
X117637599Y-92507012D02*
X120679700Y-92507012D01*
X121229980Y-93057292D02*
X121629979Y-93457291D01*
X98806000Y-82042000D02*
X98506000Y-82042000D01*
X98506000Y-82042000D02*
X97180999Y-83367001D01*
X117223587Y-92092999D02*
X117637599Y-92507012D01*
X97180999Y-83367001D02*
X97180999Y-91734846D01*
X97957163Y-92511010D02*
X99654837Y-92511010D01*
X97180999Y-91734846D02*
X97957163Y-92511010D01*
X100072848Y-92092999D02*
X117223587Y-92092999D01*
X120679700Y-92507012D02*
X121229980Y-93057292D01*
X99654837Y-92511010D02*
X100072848Y-92092999D01*
X115674710Y-97172999D02*
X117388407Y-98886696D01*
X98806000Y-97790000D02*
X100356000Y-97790000D01*
X117388407Y-98886696D02*
X120140225Y-98886696D01*
X120140225Y-98886696D02*
X120705910Y-98886696D01*
X100356000Y-97790000D02*
X100973001Y-97172999D01*
X100973001Y-97172999D02*
X115674710Y-97172999D01*
X119196760Y-93932078D02*
X119596759Y-93532079D01*
X98806000Y-95250000D02*
X100356000Y-95250000D01*
X101262999Y-94343001D02*
X118785837Y-94343001D01*
X100356000Y-95250000D02*
X101262999Y-94343001D01*
X118785837Y-94343001D02*
X119196760Y-93932078D01*
X112484001Y-87338001D02*
X113284000Y-88138000D01*
X117238999Y-82771999D02*
X117238999Y-85431997D01*
X112158999Y-87012999D02*
X112484001Y-87338001D01*
X112743999Y-84472999D02*
X112158999Y-85057999D01*
X115877992Y-86526990D02*
X113824001Y-84472999D01*
X117283780Y-86295809D02*
X117052599Y-86526990D01*
X117283780Y-85476778D02*
X117283780Y-86295809D01*
X121031000Y-80772000D02*
X119238998Y-80772000D01*
X113824001Y-84472999D02*
X112743999Y-84472999D01*
X117052599Y-86526990D02*
X115877992Y-86526990D01*
X119238998Y-80772000D02*
X117238999Y-82771999D01*
X117238999Y-85431997D02*
X117283780Y-85476778D01*
X112158999Y-85057999D02*
X112158999Y-87012999D01*
X115029999Y-89263001D02*
X117823999Y-92057001D01*
X100973001Y-89263001D02*
X115029999Y-89263001D01*
X98806000Y-88646000D02*
X100356000Y-88646000D01*
X121624610Y-92057001D02*
X121810991Y-92243382D01*
X100356000Y-88646000D02*
X100973001Y-89263001D01*
X117823999Y-92057001D02*
X121624610Y-92057001D01*
X121810991Y-92243382D02*
X122210990Y-92643381D01*
X124841000Y-95123000D02*
X124841000Y-92981232D01*
X124841000Y-92981232D02*
X124871156Y-92951076D01*
X115296000Y-76962000D02*
X114046000Y-76962000D01*
X124858999Y-83061997D02*
X120384012Y-78587010D01*
X124858999Y-83852001D02*
X124858999Y-83061997D01*
X127292301Y-89958301D02*
X126328002Y-88994002D01*
X127292301Y-93814699D02*
X127292301Y-89958301D01*
X120384012Y-78587010D02*
X116921010Y-78587010D01*
X126328002Y-85321004D02*
X124858999Y-83852001D01*
X116921010Y-78587010D02*
X115296000Y-76962000D01*
X125984000Y-95123000D02*
X127292301Y-93814699D01*
X126328002Y-88994002D02*
X126328002Y-85321004D01*
X127540078Y-88138000D02*
X127453011Y-88225067D01*
X128937000Y-88138000D02*
X127540078Y-88138000D01*
X127453011Y-88225067D02*
X127053012Y-88625066D01*
X124858999Y-89390001D02*
X125603000Y-88646000D01*
X123952000Y-95758000D02*
X123952000Y-92089002D01*
X123952000Y-92089002D02*
X124858999Y-91182003D01*
X124858999Y-91182003D02*
X124858999Y-89390001D01*
X122446999Y-97263001D02*
X123952000Y-95758000D01*
X118128999Y-97263001D02*
X122446999Y-97263001D01*
X117729000Y-97663000D02*
X118128999Y-97263001D01*
X114334000Y-98298000D02*
X117021010Y-100985010D01*
X122749888Y-100985010D02*
X123315573Y-100985010D01*
X113284000Y-98298000D02*
X114334000Y-98298000D01*
X117021010Y-100985010D02*
X122749888Y-100985010D01*
X115697000Y-95758000D02*
X113284000Y-95758000D01*
X116205000Y-95250000D02*
X115697000Y-95758000D01*
X122936000Y-94615000D02*
X122936000Y-92057001D01*
X120164001Y-87393999D02*
X115079999Y-87393999D01*
X120229001Y-89171003D02*
X120229001Y-87458999D01*
X120555999Y-89498001D02*
X120229001Y-89171003D01*
X122318999Y-91440000D02*
X122318999Y-90564999D01*
X122318999Y-90564999D02*
X121252001Y-89498001D01*
X121252001Y-89498001D02*
X120555999Y-89498001D01*
X120229001Y-87458999D02*
X120164001Y-87393999D01*
X122936000Y-92057001D02*
X122318999Y-91440000D01*
X121412000Y-96139000D02*
X122936000Y-94615000D01*
X114083999Y-86397999D02*
X113284000Y-85598000D01*
X115079999Y-87393999D02*
X114083999Y-86397999D01*
X124460000Y-106818630D02*
X124460000Y-107950000D01*
X124460000Y-99879685D02*
X124460000Y-106818630D01*
X123571000Y-98990685D02*
X124460000Y-99879685D01*
X123571000Y-98425000D02*
X123571000Y-98990685D01*
X126542800Y-100025200D02*
X126542800Y-107492800D01*
X126542800Y-107492800D02*
X127000000Y-107950000D01*
X114031207Y-80645791D02*
X115949691Y-80645791D01*
X115949691Y-80645791D02*
X116515376Y-80645791D01*
X111379000Y-88265000D02*
X111379000Y-83297998D01*
X111379000Y-83297998D02*
X114031207Y-80645791D01*
D31*
G36*
X163628000Y-132894000D02*
X159896708Y-132894000D01*
X160732647Y-132547743D01*
X160953416Y-132177022D01*
X159258000Y-130481605D01*
X157562584Y-132177022D01*
X157783353Y-132547743D01*
X158638626Y-132894000D01*
X93420000Y-132894000D01*
X93420000Y-131415022D01*
X96856584Y-131415022D01*
X97077353Y-131785743D01*
X98049012Y-132179119D01*
X99097247Y-132170713D01*
X100026647Y-131785743D01*
X100247416Y-131415022D01*
X98552000Y-129719605D01*
X96856584Y-131415022D01*
X93420000Y-131415022D01*
X93420000Y-129037012D01*
X95912881Y-129037012D01*
X95921287Y-130085247D01*
X96306257Y-131014647D01*
X96676978Y-131235416D01*
X98372395Y-129540000D01*
X98731605Y-129540000D01*
X100427022Y-131235416D01*
X100797743Y-131014647D01*
X101191119Y-130042988D01*
X101189163Y-129799012D01*
X156618881Y-129799012D01*
X156627287Y-130847247D01*
X157012257Y-131776647D01*
X157382978Y-131997416D01*
X159078395Y-130302000D01*
X159437605Y-130302000D01*
X161133022Y-131997416D01*
X161503743Y-131776647D01*
X161897119Y-130804988D01*
X161888713Y-129756753D01*
X161503743Y-128827353D01*
X161133022Y-128606584D01*
X159437605Y-130302000D01*
X159078395Y-130302000D01*
X157382978Y-128606584D01*
X157012257Y-128827353D01*
X156618881Y-129799012D01*
X101189163Y-129799012D01*
X101182713Y-128994753D01*
X100947533Y-128426978D01*
X157562584Y-128426978D01*
X159258000Y-130122395D01*
X160953416Y-128426978D01*
X160732647Y-128056257D01*
X159760988Y-127662881D01*
X158712753Y-127671287D01*
X157783353Y-128056257D01*
X157562584Y-128426978D01*
X100947533Y-128426978D01*
X100797743Y-128065353D01*
X100427022Y-127844584D01*
X98731605Y-129540000D01*
X98372395Y-129540000D01*
X96676978Y-127844584D01*
X96306257Y-128065353D01*
X95912881Y-129037012D01*
X93420000Y-129037012D01*
X93420000Y-127664978D01*
X96856584Y-127664978D01*
X98552000Y-129360395D01*
X100247416Y-127664978D01*
X100026647Y-127294257D01*
X99054988Y-126900881D01*
X98006753Y-126909287D01*
X97077353Y-127294257D01*
X96856584Y-127664978D01*
X93420000Y-127664978D01*
X93420000Y-124968000D01*
X96833091Y-124968000D01*
X96957548Y-125593687D01*
X97311971Y-126124120D01*
X97842404Y-126478543D01*
X98468091Y-126603000D01*
X99143909Y-126603000D01*
X99769596Y-126478543D01*
X100300029Y-126124120D01*
X100654452Y-125593687D01*
X100778909Y-124968000D01*
X100654452Y-124342313D01*
X100414907Y-123983808D01*
X100557441Y-123892090D01*
X100702431Y-123679890D01*
X100753440Y-123428000D01*
X100753440Y-121428000D01*
X100709162Y-121192683D01*
X100570090Y-120976559D01*
X100357890Y-120831569D01*
X100106000Y-120780560D01*
X97506000Y-120780560D01*
X97270683Y-120824838D01*
X97054559Y-120963910D01*
X96909569Y-121176110D01*
X96858560Y-121428000D01*
X96858560Y-123428000D01*
X96902838Y-123663317D01*
X97041910Y-123879441D01*
X97196329Y-123984951D01*
X96957548Y-124342313D01*
X96833091Y-124968000D01*
X93420000Y-124968000D01*
X93420000Y-117348000D01*
X96833091Y-117348000D01*
X96957548Y-117973687D01*
X97311971Y-118504120D01*
X97842404Y-118858543D01*
X98468091Y-118983000D01*
X99143909Y-118983000D01*
X99769596Y-118858543D01*
X100300029Y-118504120D01*
X100654452Y-117973687D01*
X100778909Y-117348000D01*
X100654452Y-116722313D01*
X100414907Y-116363808D01*
X100557441Y-116272090D01*
X100702431Y-116059890D01*
X100753440Y-115808000D01*
X100753440Y-113808000D01*
X100709162Y-113572683D01*
X100570090Y-113356559D01*
X100357890Y-113211569D01*
X100106000Y-113160560D01*
X97506000Y-113160560D01*
X97270683Y-113204838D01*
X97054559Y-113343910D01*
X96909569Y-113556110D01*
X96858560Y-113808000D01*
X96858560Y-115808000D01*
X96902838Y-116043317D01*
X97041910Y-116259441D01*
X97196329Y-116364951D01*
X96957548Y-116722313D01*
X96833091Y-117348000D01*
X93420000Y-117348000D01*
X93420000Y-103608000D01*
X96120999Y-103608000D01*
X96121000Y-103608005D01*
X96121000Y-110278618D01*
X96120999Y-110278623D01*
X96175422Y-110552220D01*
X96188367Y-110617298D01*
X96336727Y-110839335D01*
X96380210Y-110904413D01*
X97279595Y-111803797D01*
X97279597Y-111803800D01*
X97566712Y-111995643D01*
X97905387Y-112063010D01*
X99500620Y-112063010D01*
X105010058Y-117572447D01*
X105159248Y-117933515D01*
X105450144Y-118224919D01*
X105830413Y-118382820D01*
X106242161Y-118383179D01*
X106622705Y-118225942D01*
X106914109Y-117935046D01*
X107072010Y-117554777D01*
X107072369Y-117143029D01*
X106915132Y-116762485D01*
X106624236Y-116471081D01*
X106261037Y-116320268D01*
X100510258Y-110569488D01*
X100654452Y-110353687D01*
X100778909Y-109728000D01*
X100679677Y-109229125D01*
X103534401Y-106374401D01*
X103699148Y-106127839D01*
X103757000Y-105837000D01*
X103757000Y-102938761D01*
X103873919Y-102822046D01*
X104031820Y-102441777D01*
X104032179Y-102030029D01*
X103874942Y-101649485D01*
X103584046Y-101358081D01*
X103203777Y-101200180D01*
X102792029Y-101199821D01*
X102411485Y-101357058D01*
X102120081Y-101647954D01*
X101962180Y-102028223D01*
X101961821Y-102439971D01*
X102119058Y-102820515D01*
X102237000Y-102938663D01*
X102237000Y-105522198D01*
X100698200Y-107060998D01*
X100576778Y-107060998D01*
X100696124Y-106807566D01*
X100665144Y-106679645D01*
X100351922Y-106121683D01*
X100109812Y-105931219D01*
X100300029Y-105804120D01*
X100654452Y-105273687D01*
X100778909Y-104648000D01*
X100654452Y-104022313D01*
X100414907Y-103663808D01*
X100557441Y-103572090D01*
X100702431Y-103359890D01*
X100753440Y-103108000D01*
X100753440Y-101108000D01*
X100709162Y-100872683D01*
X100570090Y-100656559D01*
X100357890Y-100511569D01*
X100106000Y-100460560D01*
X97506000Y-100460560D01*
X97270683Y-100504838D01*
X97054559Y-100643910D01*
X96909569Y-100856110D01*
X96858560Y-101108000D01*
X96858560Y-102503860D01*
X96380210Y-102982210D01*
X96188367Y-103269325D01*
X96188367Y-103269326D01*
X96120999Y-103608000D01*
X93420000Y-103608000D01*
X93420000Y-83367001D01*
X96420999Y-83367001D01*
X96420999Y-91734846D01*
X96478851Y-92025685D01*
X96643598Y-92272247D01*
X97419762Y-93048411D01*
X97666324Y-93213158D01*
X97957163Y-93271010D01*
X99654837Y-93271010D01*
X99945676Y-93213158D01*
X100192238Y-93048411D01*
X100387650Y-92852999D01*
X104273490Y-92852999D01*
X104200887Y-93218000D01*
X104273490Y-93583001D01*
X101262999Y-93583001D01*
X100972159Y-93640853D01*
X100725598Y-93805600D01*
X100355019Y-94176179D01*
X100300029Y-94093880D01*
X99769596Y-93739457D01*
X99143909Y-93615000D01*
X98468091Y-93615000D01*
X97842404Y-93739457D01*
X97311971Y-94093880D01*
X96957548Y-94624313D01*
X96833091Y-95250000D01*
X96957548Y-95875687D01*
X97197093Y-96234192D01*
X97054559Y-96325910D01*
X96909569Y-96538110D01*
X96858560Y-96790000D01*
X96858560Y-98790000D01*
X96902838Y-99025317D01*
X97041910Y-99241441D01*
X97254110Y-99386431D01*
X97506000Y-99437440D01*
X100106000Y-99437440D01*
X100341317Y-99393162D01*
X100557441Y-99254090D01*
X100702431Y-99041890D01*
X100753440Y-98790000D01*
X100753440Y-98420920D01*
X100893401Y-98327401D01*
X101287803Y-97932999D01*
X104273490Y-97932999D01*
X104200887Y-98298000D01*
X104310120Y-98847151D01*
X104621189Y-99312698D01*
X105086736Y-99623767D01*
X105635887Y-99733000D01*
X105692113Y-99733000D01*
X106241264Y-99623767D01*
X106706811Y-99312698D01*
X107017880Y-98847151D01*
X107127113Y-98298000D01*
X107054510Y-97932999D01*
X110627747Y-97932999D01*
X110627450Y-98273091D01*
X110651617Y-98331580D01*
X106980200Y-102002998D01*
X106956702Y-101993241D01*
X106405715Y-101992760D01*
X105896485Y-102203169D01*
X105506539Y-102592436D01*
X105295241Y-103101298D01*
X105294760Y-103652285D01*
X105505169Y-104161515D01*
X105894436Y-104551461D01*
X106403298Y-104762759D01*
X106954285Y-104763240D01*
X107463515Y-104552831D01*
X107853461Y-104163564D01*
X108064759Y-103654702D01*
X108065240Y-103103715D01*
X108054670Y-103078133D01*
X108384462Y-102748341D01*
X108334999Y-102997000D01*
X108335000Y-102997005D01*
X108335000Y-106805829D01*
X108004176Y-107136077D01*
X107950138Y-107266215D01*
X107897243Y-107138200D01*
X107493923Y-106734176D01*
X106966691Y-106515250D01*
X106395813Y-106514752D01*
X105868200Y-106732757D01*
X105464176Y-107136077D01*
X105245250Y-107663309D01*
X105244752Y-108234187D01*
X105462757Y-108761800D01*
X105866077Y-109165824D01*
X106393309Y-109384750D01*
X106964187Y-109385248D01*
X107491800Y-109167243D01*
X107895824Y-108763923D01*
X107949862Y-108633785D01*
X108002757Y-108761800D01*
X108335000Y-109094623D01*
X108335000Y-118944106D01*
X103685218Y-123593887D01*
X103584777Y-123552180D01*
X103173029Y-123551821D01*
X102792485Y-123709058D01*
X102501081Y-123999954D01*
X102343180Y-124380223D01*
X102342821Y-124791971D01*
X102500058Y-125172515D01*
X102790954Y-125463919D01*
X103171223Y-125621820D01*
X103582971Y-125622179D01*
X103948980Y-125470948D01*
X104226169Y-125415810D01*
X104282360Y-125404633D01*
X104569475Y-125212790D01*
X109845787Y-119936477D01*
X109845790Y-119936475D01*
X110037633Y-119649360D01*
X110041484Y-119630000D01*
X113044420Y-119630000D01*
X119749869Y-126335448D01*
X119899058Y-126696515D01*
X120189954Y-126987919D01*
X120570223Y-127145820D01*
X120981971Y-127146179D01*
X121362515Y-126988942D01*
X121653919Y-126698046D01*
X121811820Y-126317777D01*
X121812179Y-125906029D01*
X121654942Y-125525485D01*
X121364046Y-125234081D01*
X121000847Y-125083268D01*
X115767580Y-119850000D01*
X137744560Y-119850000D01*
X137744560Y-121450000D01*
X137788838Y-121685317D01*
X137927910Y-121901441D01*
X138140110Y-122046431D01*
X138392000Y-122097440D01*
X139992000Y-122097440D01*
X140227317Y-122053162D01*
X140443441Y-121914090D01*
X140588431Y-121701890D01*
X140597370Y-121657745D01*
X141863861Y-121657745D01*
X141937995Y-121903864D01*
X142475223Y-122096965D01*
X143045454Y-122069778D01*
X143446005Y-121903864D01*
X143520139Y-121657745D01*
X142692000Y-120829605D01*
X141863861Y-121657745D01*
X140597370Y-121657745D01*
X140639440Y-121450000D01*
X140639440Y-120433223D01*
X141245035Y-120433223D01*
X141272222Y-121003454D01*
X141438136Y-121404005D01*
X141684255Y-121478139D01*
X142512395Y-120650000D01*
X142871605Y-120650000D01*
X143699745Y-121478139D01*
X143945864Y-121404005D01*
X144138965Y-120866777D01*
X144111778Y-120296546D01*
X143945864Y-119895995D01*
X143699745Y-119821861D01*
X142871605Y-120650000D01*
X142512395Y-120650000D01*
X141684255Y-119821861D01*
X141438136Y-119895995D01*
X141245035Y-120433223D01*
X140639440Y-120433223D01*
X140639440Y-119850000D01*
X140600351Y-119642255D01*
X141863861Y-119642255D01*
X142692000Y-120470395D01*
X143520139Y-119642255D01*
X143446005Y-119396136D01*
X142908777Y-119203035D01*
X142338546Y-119230222D01*
X141937995Y-119396136D01*
X141863861Y-119642255D01*
X140600351Y-119642255D01*
X140595162Y-119614683D01*
X140456090Y-119398559D01*
X140243890Y-119253569D01*
X139992000Y-119202560D01*
X138392000Y-119202560D01*
X138156683Y-119246838D01*
X137940559Y-119385910D01*
X137795569Y-119598110D01*
X137744560Y-119850000D01*
X115767580Y-119850000D01*
X114605375Y-118687795D01*
X147756716Y-118687795D01*
X148005106Y-119288943D01*
X148464637Y-119749278D01*
X149065352Y-119998716D01*
X149715795Y-119999284D01*
X150316943Y-119750894D01*
X150551715Y-119516532D01*
X153419073Y-119516532D01*
X153517736Y-119783387D01*
X154127461Y-120009908D01*
X154777460Y-119985856D01*
X155266264Y-119783387D01*
X155364927Y-119516532D01*
X154392000Y-118543605D01*
X153419073Y-119516532D01*
X150551715Y-119516532D01*
X150777278Y-119291363D01*
X151026716Y-118690648D01*
X151027232Y-118099461D01*
X152746092Y-118099461D01*
X152770144Y-118749460D01*
X152972613Y-119238264D01*
X153239468Y-119336927D01*
X154212395Y-118364000D01*
X154571605Y-118364000D01*
X155544532Y-119336927D01*
X155811387Y-119238264D01*
X156037908Y-118628539D01*
X156013856Y-117978540D01*
X155811387Y-117489736D01*
X155544532Y-117391073D01*
X154571605Y-118364000D01*
X154212395Y-118364000D01*
X153239468Y-117391073D01*
X152972613Y-117489736D01*
X152746092Y-118099461D01*
X151027232Y-118099461D01*
X151027284Y-118040205D01*
X150778894Y-117439057D01*
X150551703Y-117211468D01*
X153419073Y-117211468D01*
X154392000Y-118184395D01*
X155364927Y-117211468D01*
X155266264Y-116944613D01*
X154656539Y-116718092D01*
X154006540Y-116742144D01*
X153517736Y-116944613D01*
X153419073Y-117211468D01*
X150551703Y-117211468D01*
X150319363Y-116978722D01*
X149718648Y-116729284D01*
X149068205Y-116728716D01*
X148467057Y-116977106D01*
X148006722Y-117436637D01*
X147757284Y-118037352D01*
X147756716Y-118687795D01*
X114605375Y-118687795D01*
X114036790Y-118119210D01*
X113826261Y-117978540D01*
X113749675Y-117927367D01*
X113693484Y-117916190D01*
X113411000Y-117859999D01*
X113410995Y-117860000D01*
X110105000Y-117860000D01*
X110105000Y-109094171D01*
X110435824Y-108763923D01*
X110489862Y-108633785D01*
X110542757Y-108761800D01*
X110946077Y-109165824D01*
X111473309Y-109384750D01*
X112044187Y-109385248D01*
X112571800Y-109167243D01*
X112975824Y-108763923D01*
X113029862Y-108633785D01*
X113082757Y-108761800D01*
X113486077Y-109165824D01*
X114013309Y-109384750D01*
X114584187Y-109385248D01*
X115111800Y-109167243D01*
X115515824Y-108763923D01*
X115569862Y-108633785D01*
X115622757Y-108761800D01*
X116026077Y-109165824D01*
X116553309Y-109384750D01*
X117124187Y-109385248D01*
X117651800Y-109167243D01*
X117754709Y-109064513D01*
X118302598Y-109612402D01*
X118549160Y-109777149D01*
X118839999Y-109835001D01*
X125289999Y-109835001D01*
X125580838Y-109777149D01*
X125827400Y-109612402D01*
X126248187Y-109191615D01*
X126713309Y-109384750D01*
X127284187Y-109385248D01*
X127811800Y-109167243D01*
X128215824Y-108763923D01*
X128269862Y-108633785D01*
X128322757Y-108761800D01*
X128726077Y-109165824D01*
X129253309Y-109384750D01*
X129824187Y-109385248D01*
X130351800Y-109167243D01*
X130561663Y-108957745D01*
X131251861Y-108957745D01*
X131325995Y-109203864D01*
X131863223Y-109396965D01*
X132433454Y-109369778D01*
X132834005Y-109203864D01*
X132908139Y-108957745D01*
X132080000Y-108129605D01*
X131251861Y-108957745D01*
X130561663Y-108957745D01*
X130755824Y-108763923D01*
X130803448Y-108649232D01*
X130826136Y-108704005D01*
X131072255Y-108778139D01*
X131900395Y-107950000D01*
X131886253Y-107935858D01*
X132065858Y-107756253D01*
X132080000Y-107770395D01*
X132094143Y-107756253D01*
X132273748Y-107935858D01*
X132259605Y-107950000D01*
X133087745Y-108778139D01*
X133333864Y-108704005D01*
X133354805Y-108645746D01*
X133402757Y-108761800D01*
X133806077Y-109165824D01*
X134106548Y-109290590D01*
X132242634Y-111154504D01*
X131996597Y-111522724D01*
X131910200Y-111957070D01*
X131910200Y-112572800D01*
X131996597Y-113007146D01*
X132242634Y-113375366D01*
X132610854Y-113621403D01*
X133045200Y-113707800D01*
X133479546Y-113621403D01*
X133847766Y-113375366D01*
X134093803Y-113007146D01*
X134180200Y-112572800D01*
X134180200Y-112427202D01*
X135463455Y-111143947D01*
X135476864Y-111211358D01*
X135885481Y-111822896D01*
X136497019Y-112231513D01*
X137218377Y-112375000D01*
X138821623Y-112375000D01*
X139542981Y-112231513D01*
X140154519Y-111822896D01*
X140563136Y-111211358D01*
X140706623Y-110490000D01*
X157333377Y-110490000D01*
X157476864Y-111211358D01*
X157885481Y-111822896D01*
X158497019Y-112231513D01*
X159218377Y-112375000D01*
X160821623Y-112375000D01*
X161542981Y-112231513D01*
X162154519Y-111822896D01*
X162563136Y-111211358D01*
X162706623Y-110490000D01*
X162563136Y-109768642D01*
X162154519Y-109157104D01*
X161542981Y-108748487D01*
X160821623Y-108605000D01*
X159218377Y-108605000D01*
X158497019Y-108748487D01*
X157885481Y-109157104D01*
X157476864Y-109768642D01*
X157333377Y-110490000D01*
X140706623Y-110490000D01*
X140563136Y-109768642D01*
X140154519Y-109157104D01*
X139542981Y-108748487D01*
X138821623Y-108605000D01*
X137380600Y-108605000D01*
X137380600Y-100945000D01*
X138821623Y-100945000D01*
X139542981Y-100801513D01*
X140154519Y-100392896D01*
X140563136Y-99781358D01*
X140706623Y-99060000D01*
X157333377Y-99060000D01*
X157476864Y-99781358D01*
X157885481Y-100392896D01*
X158497019Y-100801513D01*
X159218377Y-100945000D01*
X160821623Y-100945000D01*
X161542981Y-100801513D01*
X162154519Y-100392896D01*
X162563136Y-99781358D01*
X162706623Y-99060000D01*
X162563136Y-98338642D01*
X162154519Y-97727104D01*
X161542981Y-97318487D01*
X160821623Y-97175000D01*
X159218377Y-97175000D01*
X158497019Y-97318487D01*
X157885481Y-97727104D01*
X157476864Y-98338642D01*
X157333377Y-99060000D01*
X140706623Y-99060000D01*
X140563136Y-98338642D01*
X140154519Y-97727104D01*
X139542981Y-97318487D01*
X138821623Y-97175000D01*
X137218377Y-97175000D01*
X136497019Y-97318487D01*
X135885481Y-97727104D01*
X135538999Y-98245650D01*
X135538999Y-92338532D01*
X147657073Y-92338532D01*
X147755736Y-92605387D01*
X148365461Y-92831908D01*
X149015460Y-92807856D01*
X149504264Y-92605387D01*
X149602927Y-92338532D01*
X148630000Y-91365605D01*
X147657073Y-92338532D01*
X135538999Y-92338532D01*
X135538999Y-91731999D01*
X135452602Y-91297653D01*
X135275565Y-91032698D01*
X135206565Y-90929432D01*
X135198594Y-90921461D01*
X146984092Y-90921461D01*
X147008144Y-91571460D01*
X147210613Y-92060264D01*
X147477468Y-92158927D01*
X148450395Y-91186000D01*
X148809605Y-91186000D01*
X149782532Y-92158927D01*
X150049387Y-92060264D01*
X150253893Y-91509795D01*
X151994716Y-91509795D01*
X152243106Y-92110943D01*
X152702637Y-92571278D01*
X153303352Y-92820716D01*
X153953795Y-92821284D01*
X154554943Y-92572894D01*
X155015278Y-92113363D01*
X155264716Y-91512648D01*
X155265284Y-90862205D01*
X155016894Y-90261057D01*
X154557363Y-89800722D01*
X153956648Y-89551284D01*
X153306205Y-89550716D01*
X152705057Y-89799106D01*
X152244722Y-90258637D01*
X151995284Y-90859352D01*
X151994716Y-91509795D01*
X150253893Y-91509795D01*
X150275908Y-91450539D01*
X150251856Y-90800540D01*
X150049387Y-90311736D01*
X149782532Y-90213073D01*
X148809605Y-91186000D01*
X148450395Y-91186000D01*
X147477468Y-90213073D01*
X147210613Y-90311736D01*
X146984092Y-90921461D01*
X135198594Y-90921461D01*
X135003736Y-90726603D01*
X134929767Y-90354736D01*
X134618698Y-89889189D01*
X134172497Y-89591046D01*
X134388441Y-89452090D01*
X134533431Y-89239890D01*
X134584440Y-88988000D01*
X134584440Y-88100000D01*
X137744560Y-88100000D01*
X137744560Y-89700000D01*
X137788838Y-89935317D01*
X137927910Y-90151441D01*
X138140110Y-90296431D01*
X138392000Y-90347440D01*
X139992000Y-90347440D01*
X140227317Y-90303162D01*
X140443441Y-90164090D01*
X140588431Y-89951890D01*
X140597370Y-89907745D01*
X141863861Y-89907745D01*
X141937995Y-90153864D01*
X142475223Y-90346965D01*
X143045454Y-90319778D01*
X143446005Y-90153864D01*
X143482269Y-90033468D01*
X147657073Y-90033468D01*
X148630000Y-91006395D01*
X149602927Y-90033468D01*
X149504264Y-89766613D01*
X148894539Y-89540092D01*
X148244540Y-89564144D01*
X147755736Y-89766613D01*
X147657073Y-90033468D01*
X143482269Y-90033468D01*
X143520139Y-89907745D01*
X142692000Y-89079605D01*
X141863861Y-89907745D01*
X140597370Y-89907745D01*
X140639440Y-89700000D01*
X140639440Y-88683223D01*
X141245035Y-88683223D01*
X141272222Y-89253454D01*
X141438136Y-89654005D01*
X141684255Y-89728139D01*
X142512395Y-88900000D01*
X142871605Y-88900000D01*
X143699745Y-89728139D01*
X143945864Y-89654005D01*
X144138965Y-89116777D01*
X144111778Y-88546546D01*
X143945864Y-88145995D01*
X143699745Y-88071861D01*
X142871605Y-88900000D01*
X142512395Y-88900000D01*
X141684255Y-88071861D01*
X141438136Y-88145995D01*
X141245035Y-88683223D01*
X140639440Y-88683223D01*
X140639440Y-88100000D01*
X140600351Y-87892255D01*
X141863861Y-87892255D01*
X142692000Y-88720395D01*
X143520139Y-87892255D01*
X143446005Y-87646136D01*
X142908777Y-87453035D01*
X142338546Y-87480222D01*
X141937995Y-87646136D01*
X141863861Y-87892255D01*
X140600351Y-87892255D01*
X140595162Y-87864683D01*
X140456090Y-87648559D01*
X140243890Y-87503569D01*
X139992000Y-87452560D01*
X138392000Y-87452560D01*
X138156683Y-87496838D01*
X137940559Y-87635910D01*
X137795569Y-87848110D01*
X137744560Y-88100000D01*
X134584440Y-88100000D01*
X134584440Y-87288000D01*
X134544179Y-87074031D01*
X134660431Y-86903890D01*
X134711440Y-86652000D01*
X134711440Y-85052000D01*
X134667162Y-84816683D01*
X134605883Y-84721453D01*
X134639317Y-84715162D01*
X134855441Y-84576090D01*
X135000431Y-84363890D01*
X135051440Y-84112000D01*
X135051440Y-82512000D01*
X135007162Y-82276683D01*
X134868090Y-82060559D01*
X134655890Y-81915569D01*
X134404000Y-81864560D01*
X132804000Y-81864560D01*
X132568683Y-81908838D01*
X132352559Y-82047910D01*
X132207569Y-82260110D01*
X132176185Y-82415089D01*
X132078698Y-82269189D01*
X131613151Y-81958120D01*
X131064000Y-81848887D01*
X130514849Y-81958120D01*
X130049302Y-82269189D01*
X129794000Y-82651275D01*
X129538698Y-82269189D01*
X129073151Y-81958120D01*
X128524000Y-81848887D01*
X127974849Y-81958120D01*
X127509302Y-82269189D01*
X127254000Y-82651275D01*
X126998698Y-82269189D01*
X126533151Y-81958120D01*
X125984000Y-81848887D01*
X125434849Y-81958120D01*
X125072223Y-82200419D01*
X121621146Y-78749342D01*
X121888192Y-78570907D01*
X121979910Y-78713441D01*
X122192110Y-78858431D01*
X122444000Y-78909440D01*
X124444000Y-78909440D01*
X124679317Y-78865162D01*
X124895441Y-78726090D01*
X125040431Y-78513890D01*
X125091440Y-78262000D01*
X125091440Y-77059022D01*
X156546584Y-77059022D01*
X156767353Y-77429743D01*
X157739012Y-77823119D01*
X158787247Y-77814713D01*
X159716647Y-77429743D01*
X159937416Y-77059022D01*
X158242000Y-75363605D01*
X156546584Y-77059022D01*
X125091440Y-77059022D01*
X125091440Y-75662000D01*
X125047162Y-75426683D01*
X124908090Y-75210559D01*
X124695890Y-75065569D01*
X124444000Y-75014560D01*
X122444000Y-75014560D01*
X122208683Y-75058838D01*
X121992559Y-75197910D01*
X121887049Y-75352329D01*
X121529687Y-75113548D01*
X120904000Y-74989091D01*
X120278313Y-75113548D01*
X119747880Y-75467971D01*
X119620781Y-75658188D01*
X119430317Y-75416078D01*
X118872355Y-75102856D01*
X118744434Y-75071876D01*
X118491000Y-75191223D01*
X118491000Y-76835000D01*
X118511000Y-76835000D01*
X118511000Y-77089000D01*
X118491000Y-77089000D01*
X118491000Y-77109000D01*
X118237000Y-77109000D01*
X118237000Y-77089000D01*
X116729000Y-77089000D01*
X116729000Y-77320198D01*
X115943802Y-76535000D01*
X116729000Y-76535000D01*
X116729000Y-76835000D01*
X118237000Y-76835000D01*
X118237000Y-75191223D01*
X117983566Y-75071876D01*
X117855645Y-75102856D01*
X117297683Y-75416078D01*
X116902058Y-75918980D01*
X116729000Y-76535000D01*
X115943802Y-76535000D01*
X115833401Y-76424599D01*
X115611876Y-76276581D01*
X115556543Y-75998404D01*
X115202120Y-75467971D01*
X114671687Y-75113548D01*
X114046000Y-74989091D01*
X113420313Y-75113548D01*
X112889880Y-75467971D01*
X112776000Y-75638405D01*
X112662120Y-75467971D01*
X112131687Y-75113548D01*
X111506000Y-74989091D01*
X110880313Y-75113548D01*
X110349880Y-75467971D01*
X110236000Y-75638405D01*
X110122120Y-75467971D01*
X109591687Y-75113548D01*
X108966000Y-74989091D01*
X108340313Y-75113548D01*
X107984594Y-75351231D01*
X107964327Y-75302301D01*
X107785698Y-75123673D01*
X107552309Y-75027000D01*
X106711750Y-75027000D01*
X106553000Y-75185750D01*
X106553000Y-76835000D01*
X106573000Y-76835000D01*
X106573000Y-77089000D01*
X106553000Y-77089000D01*
X106553000Y-78738250D01*
X106711750Y-78897000D01*
X107552309Y-78897000D01*
X107785698Y-78800327D01*
X107964327Y-78621699D01*
X107984594Y-78572769D01*
X108340313Y-78810452D01*
X108966000Y-78934909D01*
X109591687Y-78810452D01*
X110122120Y-78456029D01*
X110236000Y-78285595D01*
X110349880Y-78456029D01*
X110880313Y-78810452D01*
X111506000Y-78934909D01*
X112131687Y-78810452D01*
X112662120Y-78456029D01*
X112776000Y-78285595D01*
X112889880Y-78456029D01*
X113420313Y-78810452D01*
X114046000Y-78934909D01*
X114671687Y-78810452D01*
X115202120Y-78456029D01*
X115407641Y-78148443D01*
X116383609Y-79124411D01*
X116630170Y-79289158D01*
X116921010Y-79347010D01*
X120069210Y-79347010D01*
X120566327Y-79844127D01*
X120445485Y-79894058D01*
X120327337Y-80012000D01*
X119238998Y-80012000D01*
X118948159Y-80069852D01*
X118701597Y-80234599D01*
X116776946Y-82159250D01*
X116777300Y-81753019D01*
X116743566Y-81671376D01*
X117100891Y-81523733D01*
X117392295Y-81232837D01*
X117550196Y-80852568D01*
X117550555Y-80440820D01*
X117393318Y-80060276D01*
X117102422Y-79768872D01*
X116722153Y-79610971D01*
X116310405Y-79610612D01*
X115929861Y-79767849D01*
X115811713Y-79885791D01*
X114031207Y-79885791D01*
X113740368Y-79943643D01*
X113493806Y-80108390D01*
X110841599Y-82760597D01*
X110676852Y-83007159D01*
X110619000Y-83297998D01*
X110619000Y-87561239D01*
X110502081Y-87677954D01*
X110344180Y-88058223D01*
X110343821Y-88469971D01*
X110357469Y-88503001D01*
X107054510Y-88503001D01*
X107127113Y-88138000D01*
X107017880Y-87588849D01*
X106706811Y-87123302D01*
X106324725Y-86868000D01*
X106706811Y-86612698D01*
X107017880Y-86147151D01*
X107127113Y-85598000D01*
X107017880Y-85048849D01*
X106706811Y-84583302D01*
X106324725Y-84328000D01*
X106706811Y-84072698D01*
X107017880Y-83607151D01*
X107127113Y-83058000D01*
X107017880Y-82508849D01*
X106706811Y-82043302D01*
X106241264Y-81732233D01*
X105692113Y-81623000D01*
X105635887Y-81623000D01*
X105086736Y-81732233D01*
X104621189Y-82043302D01*
X104310120Y-82508849D01*
X104200887Y-83058000D01*
X104310120Y-83607151D01*
X104621189Y-84072698D01*
X105003275Y-84328000D01*
X104621189Y-84583302D01*
X104310120Y-85048849D01*
X104200887Y-85598000D01*
X104310120Y-86147151D01*
X104621189Y-86612698D01*
X105003275Y-86868000D01*
X104621189Y-87123302D01*
X104310120Y-87588849D01*
X104200887Y-88138000D01*
X104273490Y-88503001D01*
X101287803Y-88503001D01*
X100893401Y-88108599D01*
X100753440Y-88015080D01*
X100753440Y-87646000D01*
X100709162Y-87410683D01*
X100570090Y-87194559D01*
X100357890Y-87049569D01*
X100106000Y-86998560D01*
X97940999Y-86998560D01*
X97940999Y-86229440D01*
X100106000Y-86229440D01*
X100341317Y-86185162D01*
X100557441Y-86046090D01*
X100702431Y-85833890D01*
X100753440Y-85582000D01*
X100753440Y-83582000D01*
X100709162Y-83346683D01*
X100570090Y-83130559D01*
X100415671Y-83025049D01*
X100654452Y-82667687D01*
X100778909Y-82042000D01*
X100654452Y-81416313D01*
X100300029Y-80885880D01*
X99769596Y-80531457D01*
X99143909Y-80407000D01*
X98468091Y-80407000D01*
X97842404Y-80531457D01*
X97311971Y-80885880D01*
X96957548Y-81416313D01*
X96833091Y-82042000D01*
X96932323Y-82540875D01*
X96643598Y-82829600D01*
X96478851Y-83076162D01*
X96420999Y-83367001D01*
X93420000Y-83367001D01*
X93420000Y-78075022D01*
X97618584Y-78075022D01*
X97839353Y-78445743D01*
X98811012Y-78839119D01*
X99859247Y-78830713D01*
X100788647Y-78445743D01*
X101009416Y-78075022D01*
X99314000Y-76379605D01*
X97618584Y-78075022D01*
X93420000Y-78075022D01*
X93420000Y-75697012D01*
X96674881Y-75697012D01*
X96683287Y-76745247D01*
X97068257Y-77674647D01*
X97438978Y-77895416D01*
X99134395Y-76200000D01*
X99493605Y-76200000D01*
X101189022Y-77895416D01*
X101559743Y-77674647D01*
X101732572Y-77247750D01*
X104791000Y-77247750D01*
X104791000Y-78388310D01*
X104887673Y-78621699D01*
X105066302Y-78800327D01*
X105299691Y-78897000D01*
X106140250Y-78897000D01*
X106299000Y-78738250D01*
X106299000Y-77089000D01*
X104949750Y-77089000D01*
X104791000Y-77247750D01*
X101732572Y-77247750D01*
X101953119Y-76702988D01*
X101944713Y-75654753D01*
X101895396Y-75535690D01*
X104791000Y-75535690D01*
X104791000Y-76676250D01*
X104949750Y-76835000D01*
X106299000Y-76835000D01*
X106299000Y-75185750D01*
X106140250Y-75027000D01*
X105299691Y-75027000D01*
X105066302Y-75123673D01*
X104887673Y-75302301D01*
X104791000Y-75535690D01*
X101895396Y-75535690D01*
X101559743Y-74725353D01*
X101485285Y-74681012D01*
X155602881Y-74681012D01*
X155611287Y-75729247D01*
X155996257Y-76658647D01*
X156366978Y-76879416D01*
X158062395Y-75184000D01*
X158421605Y-75184000D01*
X160117022Y-76879416D01*
X160487743Y-76658647D01*
X160881119Y-75686988D01*
X160872713Y-74638753D01*
X160487743Y-73709353D01*
X160117022Y-73488584D01*
X158421605Y-75184000D01*
X158062395Y-75184000D01*
X156366978Y-73488584D01*
X155996257Y-73709353D01*
X155602881Y-74681012D01*
X101485285Y-74681012D01*
X101189022Y-74504584D01*
X99493605Y-76200000D01*
X99134395Y-76200000D01*
X97438978Y-74504584D01*
X97068257Y-74725353D01*
X96674881Y-75697012D01*
X93420000Y-75697012D01*
X93420000Y-74324978D01*
X97618584Y-74324978D01*
X99314000Y-76020395D01*
X101009416Y-74324978D01*
X100788647Y-73954257D01*
X99816988Y-73560881D01*
X98768753Y-73569287D01*
X97839353Y-73954257D01*
X97618584Y-74324978D01*
X93420000Y-74324978D01*
X93420000Y-73308978D01*
X156546584Y-73308978D01*
X158242000Y-75004395D01*
X159937416Y-73308978D01*
X159716647Y-72938257D01*
X158744988Y-72544881D01*
X157696753Y-72553287D01*
X156767353Y-72938257D01*
X156546584Y-73308978D01*
X93420000Y-73308978D01*
X93420000Y-71576000D01*
X163628000Y-71576000D01*
X163628000Y-132894000D01*
X163628000Y-132894000D01*
G37*
X163628000Y-132894000D02*
X159896708Y-132894000D01*
X160732647Y-132547743D01*
X160953416Y-132177022D01*
X159258000Y-130481605D01*
X157562584Y-132177022D01*
X157783353Y-132547743D01*
X158638626Y-132894000D01*
X93420000Y-132894000D01*
X93420000Y-131415022D01*
X96856584Y-131415022D01*
X97077353Y-131785743D01*
X98049012Y-132179119D01*
X99097247Y-132170713D01*
X100026647Y-131785743D01*
X100247416Y-131415022D01*
X98552000Y-129719605D01*
X96856584Y-131415022D01*
X93420000Y-131415022D01*
X93420000Y-129037012D01*
X95912881Y-129037012D01*
X95921287Y-130085247D01*
X96306257Y-131014647D01*
X96676978Y-131235416D01*
X98372395Y-129540000D01*
X98731605Y-129540000D01*
X100427022Y-131235416D01*
X100797743Y-131014647D01*
X101191119Y-130042988D01*
X101189163Y-129799012D01*
X156618881Y-129799012D01*
X156627287Y-130847247D01*
X157012257Y-131776647D01*
X157382978Y-131997416D01*
X159078395Y-130302000D01*
X159437605Y-130302000D01*
X161133022Y-131997416D01*
X161503743Y-131776647D01*
X161897119Y-130804988D01*
X161888713Y-129756753D01*
X161503743Y-128827353D01*
X161133022Y-128606584D01*
X159437605Y-130302000D01*
X159078395Y-130302000D01*
X157382978Y-128606584D01*
X157012257Y-128827353D01*
X156618881Y-129799012D01*
X101189163Y-129799012D01*
X101182713Y-128994753D01*
X100947533Y-128426978D01*
X157562584Y-128426978D01*
X159258000Y-130122395D01*
X160953416Y-128426978D01*
X160732647Y-128056257D01*
X159760988Y-127662881D01*
X158712753Y-127671287D01*
X157783353Y-128056257D01*
X157562584Y-128426978D01*
X100947533Y-128426978D01*
X100797743Y-128065353D01*
X100427022Y-127844584D01*
X98731605Y-129540000D01*
X98372395Y-129540000D01*
X96676978Y-127844584D01*
X96306257Y-128065353D01*
X95912881Y-129037012D01*
X93420000Y-129037012D01*
X93420000Y-127664978D01*
X96856584Y-127664978D01*
X98552000Y-129360395D01*
X100247416Y-127664978D01*
X100026647Y-127294257D01*
X99054988Y-126900881D01*
X98006753Y-126909287D01*
X97077353Y-127294257D01*
X96856584Y-127664978D01*
X93420000Y-127664978D01*
X93420000Y-124968000D01*
X96833091Y-124968000D01*
X96957548Y-125593687D01*
X97311971Y-126124120D01*
X97842404Y-126478543D01*
X98468091Y-126603000D01*
X99143909Y-126603000D01*
X99769596Y-126478543D01*
X100300029Y-126124120D01*
X100654452Y-125593687D01*
X100778909Y-124968000D01*
X100654452Y-124342313D01*
X100414907Y-123983808D01*
X100557441Y-123892090D01*
X100702431Y-123679890D01*
X100753440Y-123428000D01*
X100753440Y-121428000D01*
X100709162Y-121192683D01*
X100570090Y-120976559D01*
X100357890Y-120831569D01*
X100106000Y-120780560D01*
X97506000Y-120780560D01*
X97270683Y-120824838D01*
X97054559Y-120963910D01*
X96909569Y-121176110D01*
X96858560Y-121428000D01*
X96858560Y-123428000D01*
X96902838Y-123663317D01*
X97041910Y-123879441D01*
X97196329Y-123984951D01*
X96957548Y-124342313D01*
X96833091Y-124968000D01*
X93420000Y-124968000D01*
X93420000Y-117348000D01*
X96833091Y-117348000D01*
X96957548Y-117973687D01*
X97311971Y-118504120D01*
X97842404Y-118858543D01*
X98468091Y-118983000D01*
X99143909Y-118983000D01*
X99769596Y-118858543D01*
X100300029Y-118504120D01*
X100654452Y-117973687D01*
X100778909Y-117348000D01*
X100654452Y-116722313D01*
X100414907Y-116363808D01*
X100557441Y-116272090D01*
X100702431Y-116059890D01*
X100753440Y-115808000D01*
X100753440Y-113808000D01*
X100709162Y-113572683D01*
X100570090Y-113356559D01*
X100357890Y-113211569D01*
X100106000Y-113160560D01*
X97506000Y-113160560D01*
X97270683Y-113204838D01*
X97054559Y-113343910D01*
X96909569Y-113556110D01*
X96858560Y-113808000D01*
X96858560Y-115808000D01*
X96902838Y-116043317D01*
X97041910Y-116259441D01*
X97196329Y-116364951D01*
X96957548Y-116722313D01*
X96833091Y-117348000D01*
X93420000Y-117348000D01*
X93420000Y-103608000D01*
X96120999Y-103608000D01*
X96121000Y-103608005D01*
X96121000Y-110278618D01*
X96120999Y-110278623D01*
X96175422Y-110552220D01*
X96188367Y-110617298D01*
X96336727Y-110839335D01*
X96380210Y-110904413D01*
X97279595Y-111803797D01*
X97279597Y-111803800D01*
X97566712Y-111995643D01*
X97905387Y-112063010D01*
X99500620Y-112063010D01*
X105010058Y-117572447D01*
X105159248Y-117933515D01*
X105450144Y-118224919D01*
X105830413Y-118382820D01*
X106242161Y-118383179D01*
X106622705Y-118225942D01*
X106914109Y-117935046D01*
X107072010Y-117554777D01*
X107072369Y-117143029D01*
X106915132Y-116762485D01*
X106624236Y-116471081D01*
X106261037Y-116320268D01*
X100510258Y-110569488D01*
X100654452Y-110353687D01*
X100778909Y-109728000D01*
X100679677Y-109229125D01*
X103534401Y-106374401D01*
X103699148Y-106127839D01*
X103757000Y-105837000D01*
X103757000Y-102938761D01*
X103873919Y-102822046D01*
X104031820Y-102441777D01*
X104032179Y-102030029D01*
X103874942Y-101649485D01*
X103584046Y-101358081D01*
X103203777Y-101200180D01*
X102792029Y-101199821D01*
X102411485Y-101357058D01*
X102120081Y-101647954D01*
X101962180Y-102028223D01*
X101961821Y-102439971D01*
X102119058Y-102820515D01*
X102237000Y-102938663D01*
X102237000Y-105522198D01*
X100698200Y-107060998D01*
X100576778Y-107060998D01*
X100696124Y-106807566D01*
X100665144Y-106679645D01*
X100351922Y-106121683D01*
X100109812Y-105931219D01*
X100300029Y-105804120D01*
X100654452Y-105273687D01*
X100778909Y-104648000D01*
X100654452Y-104022313D01*
X100414907Y-103663808D01*
X100557441Y-103572090D01*
X100702431Y-103359890D01*
X100753440Y-103108000D01*
X100753440Y-101108000D01*
X100709162Y-100872683D01*
X100570090Y-100656559D01*
X100357890Y-100511569D01*
X100106000Y-100460560D01*
X97506000Y-100460560D01*
X97270683Y-100504838D01*
X97054559Y-100643910D01*
X96909569Y-100856110D01*
X96858560Y-101108000D01*
X96858560Y-102503860D01*
X96380210Y-102982210D01*
X96188367Y-103269325D01*
X96188367Y-103269326D01*
X96120999Y-103608000D01*
X93420000Y-103608000D01*
X93420000Y-83367001D01*
X96420999Y-83367001D01*
X96420999Y-91734846D01*
X96478851Y-92025685D01*
X96643598Y-92272247D01*
X97419762Y-93048411D01*
X97666324Y-93213158D01*
X97957163Y-93271010D01*
X99654837Y-93271010D01*
X99945676Y-93213158D01*
X100192238Y-93048411D01*
X100387650Y-92852999D01*
X104273490Y-92852999D01*
X104200887Y-93218000D01*
X104273490Y-93583001D01*
X101262999Y-93583001D01*
X100972159Y-93640853D01*
X100725598Y-93805600D01*
X100355019Y-94176179D01*
X100300029Y-94093880D01*
X99769596Y-93739457D01*
X99143909Y-93615000D01*
X98468091Y-93615000D01*
X97842404Y-93739457D01*
X97311971Y-94093880D01*
X96957548Y-94624313D01*
X96833091Y-95250000D01*
X96957548Y-95875687D01*
X97197093Y-96234192D01*
X97054559Y-96325910D01*
X96909569Y-96538110D01*
X96858560Y-96790000D01*
X96858560Y-98790000D01*
X96902838Y-99025317D01*
X97041910Y-99241441D01*
X97254110Y-99386431D01*
X97506000Y-99437440D01*
X100106000Y-99437440D01*
X100341317Y-99393162D01*
X100557441Y-99254090D01*
X100702431Y-99041890D01*
X100753440Y-98790000D01*
X100753440Y-98420920D01*
X100893401Y-98327401D01*
X101287803Y-97932999D01*
X104273490Y-97932999D01*
X104200887Y-98298000D01*
X104310120Y-98847151D01*
X104621189Y-99312698D01*
X105086736Y-99623767D01*
X105635887Y-99733000D01*
X105692113Y-99733000D01*
X106241264Y-99623767D01*
X106706811Y-99312698D01*
X107017880Y-98847151D01*
X107127113Y-98298000D01*
X107054510Y-97932999D01*
X110627747Y-97932999D01*
X110627450Y-98273091D01*
X110651617Y-98331580D01*
X106980200Y-102002998D01*
X106956702Y-101993241D01*
X106405715Y-101992760D01*
X105896485Y-102203169D01*
X105506539Y-102592436D01*
X105295241Y-103101298D01*
X105294760Y-103652285D01*
X105505169Y-104161515D01*
X105894436Y-104551461D01*
X106403298Y-104762759D01*
X106954285Y-104763240D01*
X107463515Y-104552831D01*
X107853461Y-104163564D01*
X108064759Y-103654702D01*
X108065240Y-103103715D01*
X108054670Y-103078133D01*
X108384462Y-102748341D01*
X108334999Y-102997000D01*
X108335000Y-102997005D01*
X108335000Y-106805829D01*
X108004176Y-107136077D01*
X107950138Y-107266215D01*
X107897243Y-107138200D01*
X107493923Y-106734176D01*
X106966691Y-106515250D01*
X106395813Y-106514752D01*
X105868200Y-106732757D01*
X105464176Y-107136077D01*
X105245250Y-107663309D01*
X105244752Y-108234187D01*
X105462757Y-108761800D01*
X105866077Y-109165824D01*
X106393309Y-109384750D01*
X106964187Y-109385248D01*
X107491800Y-109167243D01*
X107895824Y-108763923D01*
X107949862Y-108633785D01*
X108002757Y-108761800D01*
X108335000Y-109094623D01*
X108335000Y-118944106D01*
X103685218Y-123593887D01*
X103584777Y-123552180D01*
X103173029Y-123551821D01*
X102792485Y-123709058D01*
X102501081Y-123999954D01*
X102343180Y-124380223D01*
X102342821Y-124791971D01*
X102500058Y-125172515D01*
X102790954Y-125463919D01*
X103171223Y-125621820D01*
X103582971Y-125622179D01*
X103948980Y-125470948D01*
X104226169Y-125415810D01*
X104282360Y-125404633D01*
X104569475Y-125212790D01*
X109845787Y-119936477D01*
X109845790Y-119936475D01*
X110037633Y-119649360D01*
X110041484Y-119630000D01*
X113044420Y-119630000D01*
X119749869Y-126335448D01*
X119899058Y-126696515D01*
X120189954Y-126987919D01*
X120570223Y-127145820D01*
X120981971Y-127146179D01*
X121362515Y-126988942D01*
X121653919Y-126698046D01*
X121811820Y-126317777D01*
X121812179Y-125906029D01*
X121654942Y-125525485D01*
X121364046Y-125234081D01*
X121000847Y-125083268D01*
X115767580Y-119850000D01*
X137744560Y-119850000D01*
X137744560Y-121450000D01*
X137788838Y-121685317D01*
X137927910Y-121901441D01*
X138140110Y-122046431D01*
X138392000Y-122097440D01*
X139992000Y-122097440D01*
X140227317Y-122053162D01*
X140443441Y-121914090D01*
X140588431Y-121701890D01*
X140597370Y-121657745D01*
X141863861Y-121657745D01*
X141937995Y-121903864D01*
X142475223Y-122096965D01*
X143045454Y-122069778D01*
X143446005Y-121903864D01*
X143520139Y-121657745D01*
X142692000Y-120829605D01*
X141863861Y-121657745D01*
X140597370Y-121657745D01*
X140639440Y-121450000D01*
X140639440Y-120433223D01*
X141245035Y-120433223D01*
X141272222Y-121003454D01*
X141438136Y-121404005D01*
X141684255Y-121478139D01*
X142512395Y-120650000D01*
X142871605Y-120650000D01*
X143699745Y-121478139D01*
X143945864Y-121404005D01*
X144138965Y-120866777D01*
X144111778Y-120296546D01*
X143945864Y-119895995D01*
X143699745Y-119821861D01*
X142871605Y-120650000D01*
X142512395Y-120650000D01*
X141684255Y-119821861D01*
X141438136Y-119895995D01*
X141245035Y-120433223D01*
X140639440Y-120433223D01*
X140639440Y-119850000D01*
X140600351Y-119642255D01*
X141863861Y-119642255D01*
X142692000Y-120470395D01*
X143520139Y-119642255D01*
X143446005Y-119396136D01*
X142908777Y-119203035D01*
X142338546Y-119230222D01*
X141937995Y-119396136D01*
X141863861Y-119642255D01*
X140600351Y-119642255D01*
X140595162Y-119614683D01*
X140456090Y-119398559D01*
X140243890Y-119253569D01*
X139992000Y-119202560D01*
X138392000Y-119202560D01*
X138156683Y-119246838D01*
X137940559Y-119385910D01*
X137795569Y-119598110D01*
X137744560Y-119850000D01*
X115767580Y-119850000D01*
X114605375Y-118687795D01*
X147756716Y-118687795D01*
X148005106Y-119288943D01*
X148464637Y-119749278D01*
X149065352Y-119998716D01*
X149715795Y-119999284D01*
X150316943Y-119750894D01*
X150551715Y-119516532D01*
X153419073Y-119516532D01*
X153517736Y-119783387D01*
X154127461Y-120009908D01*
X154777460Y-119985856D01*
X155266264Y-119783387D01*
X155364927Y-119516532D01*
X154392000Y-118543605D01*
X153419073Y-119516532D01*
X150551715Y-119516532D01*
X150777278Y-119291363D01*
X151026716Y-118690648D01*
X151027232Y-118099461D01*
X152746092Y-118099461D01*
X152770144Y-118749460D01*
X152972613Y-119238264D01*
X153239468Y-119336927D01*
X154212395Y-118364000D01*
X154571605Y-118364000D01*
X155544532Y-119336927D01*
X155811387Y-119238264D01*
X156037908Y-118628539D01*
X156013856Y-117978540D01*
X155811387Y-117489736D01*
X155544532Y-117391073D01*
X154571605Y-118364000D01*
X154212395Y-118364000D01*
X153239468Y-117391073D01*
X152972613Y-117489736D01*
X152746092Y-118099461D01*
X151027232Y-118099461D01*
X151027284Y-118040205D01*
X150778894Y-117439057D01*
X150551703Y-117211468D01*
X153419073Y-117211468D01*
X154392000Y-118184395D01*
X155364927Y-117211468D01*
X155266264Y-116944613D01*
X154656539Y-116718092D01*
X154006540Y-116742144D01*
X153517736Y-116944613D01*
X153419073Y-117211468D01*
X150551703Y-117211468D01*
X150319363Y-116978722D01*
X149718648Y-116729284D01*
X149068205Y-116728716D01*
X148467057Y-116977106D01*
X148006722Y-117436637D01*
X147757284Y-118037352D01*
X147756716Y-118687795D01*
X114605375Y-118687795D01*
X114036790Y-118119210D01*
X113826261Y-117978540D01*
X113749675Y-117927367D01*
X113693484Y-117916190D01*
X113411000Y-117859999D01*
X113410995Y-117860000D01*
X110105000Y-117860000D01*
X110105000Y-109094171D01*
X110435824Y-108763923D01*
X110489862Y-108633785D01*
X110542757Y-108761800D01*
X110946077Y-109165824D01*
X111473309Y-109384750D01*
X112044187Y-109385248D01*
X112571800Y-109167243D01*
X112975824Y-108763923D01*
X113029862Y-108633785D01*
X113082757Y-108761800D01*
X113486077Y-109165824D01*
X114013309Y-109384750D01*
X114584187Y-109385248D01*
X115111800Y-109167243D01*
X115515824Y-108763923D01*
X115569862Y-108633785D01*
X115622757Y-108761800D01*
X116026077Y-109165824D01*
X116553309Y-109384750D01*
X117124187Y-109385248D01*
X117651800Y-109167243D01*
X117754709Y-109064513D01*
X118302598Y-109612402D01*
X118549160Y-109777149D01*
X118839999Y-109835001D01*
X125289999Y-109835001D01*
X125580838Y-109777149D01*
X125827400Y-109612402D01*
X126248187Y-109191615D01*
X126713309Y-109384750D01*
X127284187Y-109385248D01*
X127811800Y-109167243D01*
X128215824Y-108763923D01*
X128269862Y-108633785D01*
X128322757Y-108761800D01*
X128726077Y-109165824D01*
X129253309Y-109384750D01*
X129824187Y-109385248D01*
X130351800Y-109167243D01*
X130561663Y-108957745D01*
X131251861Y-108957745D01*
X131325995Y-109203864D01*
X131863223Y-109396965D01*
X132433454Y-109369778D01*
X132834005Y-109203864D01*
X132908139Y-108957745D01*
X132080000Y-108129605D01*
X131251861Y-108957745D01*
X130561663Y-108957745D01*
X130755824Y-108763923D01*
X130803448Y-108649232D01*
X130826136Y-108704005D01*
X131072255Y-108778139D01*
X131900395Y-107950000D01*
X131886253Y-107935858D01*
X132065858Y-107756253D01*
X132080000Y-107770395D01*
X132094143Y-107756253D01*
X132273748Y-107935858D01*
X132259605Y-107950000D01*
X133087745Y-108778139D01*
X133333864Y-108704005D01*
X133354805Y-108645746D01*
X133402757Y-108761800D01*
X133806077Y-109165824D01*
X134106548Y-109290590D01*
X132242634Y-111154504D01*
X131996597Y-111522724D01*
X131910200Y-111957070D01*
X131910200Y-112572800D01*
X131996597Y-113007146D01*
X132242634Y-113375366D01*
X132610854Y-113621403D01*
X133045200Y-113707800D01*
X133479546Y-113621403D01*
X133847766Y-113375366D01*
X134093803Y-113007146D01*
X134180200Y-112572800D01*
X134180200Y-112427202D01*
X135463455Y-111143947D01*
X135476864Y-111211358D01*
X135885481Y-111822896D01*
X136497019Y-112231513D01*
X137218377Y-112375000D01*
X138821623Y-112375000D01*
X139542981Y-112231513D01*
X140154519Y-111822896D01*
X140563136Y-111211358D01*
X140706623Y-110490000D01*
X157333377Y-110490000D01*
X157476864Y-111211358D01*
X157885481Y-111822896D01*
X158497019Y-112231513D01*
X159218377Y-112375000D01*
X160821623Y-112375000D01*
X161542981Y-112231513D01*
X162154519Y-111822896D01*
X162563136Y-111211358D01*
X162706623Y-110490000D01*
X162563136Y-109768642D01*
X162154519Y-109157104D01*
X161542981Y-108748487D01*
X160821623Y-108605000D01*
X159218377Y-108605000D01*
X158497019Y-108748487D01*
X157885481Y-109157104D01*
X157476864Y-109768642D01*
X157333377Y-110490000D01*
X140706623Y-110490000D01*
X140563136Y-109768642D01*
X140154519Y-109157104D01*
X139542981Y-108748487D01*
X138821623Y-108605000D01*
X137380600Y-108605000D01*
X137380600Y-100945000D01*
X138821623Y-100945000D01*
X139542981Y-100801513D01*
X140154519Y-100392896D01*
X140563136Y-99781358D01*
X140706623Y-99060000D01*
X157333377Y-99060000D01*
X157476864Y-99781358D01*
X157885481Y-100392896D01*
X158497019Y-100801513D01*
X159218377Y-100945000D01*
X160821623Y-100945000D01*
X161542981Y-100801513D01*
X162154519Y-100392896D01*
X162563136Y-99781358D01*
X162706623Y-99060000D01*
X162563136Y-98338642D01*
X162154519Y-97727104D01*
X161542981Y-97318487D01*
X160821623Y-97175000D01*
X159218377Y-97175000D01*
X158497019Y-97318487D01*
X157885481Y-97727104D01*
X157476864Y-98338642D01*
X157333377Y-99060000D01*
X140706623Y-99060000D01*
X140563136Y-98338642D01*
X140154519Y-97727104D01*
X139542981Y-97318487D01*
X138821623Y-97175000D01*
X137218377Y-97175000D01*
X136497019Y-97318487D01*
X135885481Y-97727104D01*
X135538999Y-98245650D01*
X135538999Y-92338532D01*
X147657073Y-92338532D01*
X147755736Y-92605387D01*
X148365461Y-92831908D01*
X149015460Y-92807856D01*
X149504264Y-92605387D01*
X149602927Y-92338532D01*
X148630000Y-91365605D01*
X147657073Y-92338532D01*
X135538999Y-92338532D01*
X135538999Y-91731999D01*
X135452602Y-91297653D01*
X135275565Y-91032698D01*
X135206565Y-90929432D01*
X135198594Y-90921461D01*
X146984092Y-90921461D01*
X147008144Y-91571460D01*
X147210613Y-92060264D01*
X147477468Y-92158927D01*
X148450395Y-91186000D01*
X148809605Y-91186000D01*
X149782532Y-92158927D01*
X150049387Y-92060264D01*
X150253893Y-91509795D01*
X151994716Y-91509795D01*
X152243106Y-92110943D01*
X152702637Y-92571278D01*
X153303352Y-92820716D01*
X153953795Y-92821284D01*
X154554943Y-92572894D01*
X155015278Y-92113363D01*
X155264716Y-91512648D01*
X155265284Y-90862205D01*
X155016894Y-90261057D01*
X154557363Y-89800722D01*
X153956648Y-89551284D01*
X153306205Y-89550716D01*
X152705057Y-89799106D01*
X152244722Y-90258637D01*
X151995284Y-90859352D01*
X151994716Y-91509795D01*
X150253893Y-91509795D01*
X150275908Y-91450539D01*
X150251856Y-90800540D01*
X150049387Y-90311736D01*
X149782532Y-90213073D01*
X148809605Y-91186000D01*
X148450395Y-91186000D01*
X147477468Y-90213073D01*
X147210613Y-90311736D01*
X146984092Y-90921461D01*
X135198594Y-90921461D01*
X135003736Y-90726603D01*
X134929767Y-90354736D01*
X134618698Y-89889189D01*
X134172497Y-89591046D01*
X134388441Y-89452090D01*
X134533431Y-89239890D01*
X134584440Y-88988000D01*
X134584440Y-88100000D01*
X137744560Y-88100000D01*
X137744560Y-89700000D01*
X137788838Y-89935317D01*
X137927910Y-90151441D01*
X138140110Y-90296431D01*
X138392000Y-90347440D01*
X139992000Y-90347440D01*
X140227317Y-90303162D01*
X140443441Y-90164090D01*
X140588431Y-89951890D01*
X140597370Y-89907745D01*
X141863861Y-89907745D01*
X141937995Y-90153864D01*
X142475223Y-90346965D01*
X143045454Y-90319778D01*
X143446005Y-90153864D01*
X143482269Y-90033468D01*
X147657073Y-90033468D01*
X148630000Y-91006395D01*
X149602927Y-90033468D01*
X149504264Y-89766613D01*
X148894539Y-89540092D01*
X148244540Y-89564144D01*
X147755736Y-89766613D01*
X147657073Y-90033468D01*
X143482269Y-90033468D01*
X143520139Y-89907745D01*
X142692000Y-89079605D01*
X141863861Y-89907745D01*
X140597370Y-89907745D01*
X140639440Y-89700000D01*
X140639440Y-88683223D01*
X141245035Y-88683223D01*
X141272222Y-89253454D01*
X141438136Y-89654005D01*
X141684255Y-89728139D01*
X142512395Y-88900000D01*
X142871605Y-88900000D01*
X143699745Y-89728139D01*
X143945864Y-89654005D01*
X144138965Y-89116777D01*
X144111778Y-88546546D01*
X143945864Y-88145995D01*
X143699745Y-88071861D01*
X142871605Y-88900000D01*
X142512395Y-88900000D01*
X141684255Y-88071861D01*
X141438136Y-88145995D01*
X141245035Y-88683223D01*
X140639440Y-88683223D01*
X140639440Y-88100000D01*
X140600351Y-87892255D01*
X141863861Y-87892255D01*
X142692000Y-88720395D01*
X143520139Y-87892255D01*
X143446005Y-87646136D01*
X142908777Y-87453035D01*
X142338546Y-87480222D01*
X141937995Y-87646136D01*
X141863861Y-87892255D01*
X140600351Y-87892255D01*
X140595162Y-87864683D01*
X140456090Y-87648559D01*
X140243890Y-87503569D01*
X139992000Y-87452560D01*
X138392000Y-87452560D01*
X138156683Y-87496838D01*
X137940559Y-87635910D01*
X137795569Y-87848110D01*
X137744560Y-88100000D01*
X134584440Y-88100000D01*
X134584440Y-87288000D01*
X134544179Y-87074031D01*
X134660431Y-86903890D01*
X134711440Y-86652000D01*
X134711440Y-85052000D01*
X134667162Y-84816683D01*
X134605883Y-84721453D01*
X134639317Y-84715162D01*
X134855441Y-84576090D01*
X135000431Y-84363890D01*
X135051440Y-84112000D01*
X135051440Y-82512000D01*
X135007162Y-82276683D01*
X134868090Y-82060559D01*
X134655890Y-81915569D01*
X134404000Y-81864560D01*
X132804000Y-81864560D01*
X132568683Y-81908838D01*
X132352559Y-82047910D01*
X132207569Y-82260110D01*
X132176185Y-82415089D01*
X132078698Y-82269189D01*
X131613151Y-81958120D01*
X131064000Y-81848887D01*
X130514849Y-81958120D01*
X130049302Y-82269189D01*
X129794000Y-82651275D01*
X129538698Y-82269189D01*
X129073151Y-81958120D01*
X128524000Y-81848887D01*
X127974849Y-81958120D01*
X127509302Y-82269189D01*
X127254000Y-82651275D01*
X126998698Y-82269189D01*
X126533151Y-81958120D01*
X125984000Y-81848887D01*
X125434849Y-81958120D01*
X125072223Y-82200419D01*
X121621146Y-78749342D01*
X121888192Y-78570907D01*
X121979910Y-78713441D01*
X122192110Y-78858431D01*
X122444000Y-78909440D01*
X124444000Y-78909440D01*
X124679317Y-78865162D01*
X124895441Y-78726090D01*
X125040431Y-78513890D01*
X125091440Y-78262000D01*
X125091440Y-77059022D01*
X156546584Y-77059022D01*
X156767353Y-77429743D01*
X157739012Y-77823119D01*
X158787247Y-77814713D01*
X159716647Y-77429743D01*
X159937416Y-77059022D01*
X158242000Y-75363605D01*
X156546584Y-77059022D01*
X125091440Y-77059022D01*
X125091440Y-75662000D01*
X125047162Y-75426683D01*
X124908090Y-75210559D01*
X124695890Y-75065569D01*
X124444000Y-75014560D01*
X122444000Y-75014560D01*
X122208683Y-75058838D01*
X121992559Y-75197910D01*
X121887049Y-75352329D01*
X121529687Y-75113548D01*
X120904000Y-74989091D01*
X120278313Y-75113548D01*
X119747880Y-75467971D01*
X119620781Y-75658188D01*
X119430317Y-75416078D01*
X118872355Y-75102856D01*
X118744434Y-75071876D01*
X118491000Y-75191223D01*
X118491000Y-76835000D01*
X118511000Y-76835000D01*
X118511000Y-77089000D01*
X118491000Y-77089000D01*
X118491000Y-77109000D01*
X118237000Y-77109000D01*
X118237000Y-77089000D01*
X116729000Y-77089000D01*
X116729000Y-77320198D01*
X115943802Y-76535000D01*
X116729000Y-76535000D01*
X116729000Y-76835000D01*
X118237000Y-76835000D01*
X118237000Y-75191223D01*
X117983566Y-75071876D01*
X117855645Y-75102856D01*
X117297683Y-75416078D01*
X116902058Y-75918980D01*
X116729000Y-76535000D01*
X115943802Y-76535000D01*
X115833401Y-76424599D01*
X115611876Y-76276581D01*
X115556543Y-75998404D01*
X115202120Y-75467971D01*
X114671687Y-75113548D01*
X114046000Y-74989091D01*
X113420313Y-75113548D01*
X112889880Y-75467971D01*
X112776000Y-75638405D01*
X112662120Y-75467971D01*
X112131687Y-75113548D01*
X111506000Y-74989091D01*
X110880313Y-75113548D01*
X110349880Y-75467971D01*
X110236000Y-75638405D01*
X110122120Y-75467971D01*
X109591687Y-75113548D01*
X108966000Y-74989091D01*
X108340313Y-75113548D01*
X107984594Y-75351231D01*
X107964327Y-75302301D01*
X107785698Y-75123673D01*
X107552309Y-75027000D01*
X106711750Y-75027000D01*
X106553000Y-75185750D01*
X106553000Y-76835000D01*
X106573000Y-76835000D01*
X106573000Y-77089000D01*
X106553000Y-77089000D01*
X106553000Y-78738250D01*
X106711750Y-78897000D01*
X107552309Y-78897000D01*
X107785698Y-78800327D01*
X107964327Y-78621699D01*
X107984594Y-78572769D01*
X108340313Y-78810452D01*
X108966000Y-78934909D01*
X109591687Y-78810452D01*
X110122120Y-78456029D01*
X110236000Y-78285595D01*
X110349880Y-78456029D01*
X110880313Y-78810452D01*
X111506000Y-78934909D01*
X112131687Y-78810452D01*
X112662120Y-78456029D01*
X112776000Y-78285595D01*
X112889880Y-78456029D01*
X113420313Y-78810452D01*
X114046000Y-78934909D01*
X114671687Y-78810452D01*
X115202120Y-78456029D01*
X115407641Y-78148443D01*
X116383609Y-79124411D01*
X116630170Y-79289158D01*
X116921010Y-79347010D01*
X120069210Y-79347010D01*
X120566327Y-79844127D01*
X120445485Y-79894058D01*
X120327337Y-80012000D01*
X119238998Y-80012000D01*
X118948159Y-80069852D01*
X118701597Y-80234599D01*
X116776946Y-82159250D01*
X116777300Y-81753019D01*
X116743566Y-81671376D01*
X117100891Y-81523733D01*
X117392295Y-81232837D01*
X117550196Y-80852568D01*
X117550555Y-80440820D01*
X117393318Y-80060276D01*
X117102422Y-79768872D01*
X116722153Y-79610971D01*
X116310405Y-79610612D01*
X115929861Y-79767849D01*
X115811713Y-79885791D01*
X114031207Y-79885791D01*
X113740368Y-79943643D01*
X113493806Y-80108390D01*
X110841599Y-82760597D01*
X110676852Y-83007159D01*
X110619000Y-83297998D01*
X110619000Y-87561239D01*
X110502081Y-87677954D01*
X110344180Y-88058223D01*
X110343821Y-88469971D01*
X110357469Y-88503001D01*
X107054510Y-88503001D01*
X107127113Y-88138000D01*
X107017880Y-87588849D01*
X106706811Y-87123302D01*
X106324725Y-86868000D01*
X106706811Y-86612698D01*
X107017880Y-86147151D01*
X107127113Y-85598000D01*
X107017880Y-85048849D01*
X106706811Y-84583302D01*
X106324725Y-84328000D01*
X106706811Y-84072698D01*
X107017880Y-83607151D01*
X107127113Y-83058000D01*
X107017880Y-82508849D01*
X106706811Y-82043302D01*
X106241264Y-81732233D01*
X105692113Y-81623000D01*
X105635887Y-81623000D01*
X105086736Y-81732233D01*
X104621189Y-82043302D01*
X104310120Y-82508849D01*
X104200887Y-83058000D01*
X104310120Y-83607151D01*
X104621189Y-84072698D01*
X105003275Y-84328000D01*
X104621189Y-84583302D01*
X104310120Y-85048849D01*
X104200887Y-85598000D01*
X104310120Y-86147151D01*
X104621189Y-86612698D01*
X105003275Y-86868000D01*
X104621189Y-87123302D01*
X104310120Y-87588849D01*
X104200887Y-88138000D01*
X104273490Y-88503001D01*
X101287803Y-88503001D01*
X100893401Y-88108599D01*
X100753440Y-88015080D01*
X100753440Y-87646000D01*
X100709162Y-87410683D01*
X100570090Y-87194559D01*
X100357890Y-87049569D01*
X100106000Y-86998560D01*
X97940999Y-86998560D01*
X97940999Y-86229440D01*
X100106000Y-86229440D01*
X100341317Y-86185162D01*
X100557441Y-86046090D01*
X100702431Y-85833890D01*
X100753440Y-85582000D01*
X100753440Y-83582000D01*
X100709162Y-83346683D01*
X100570090Y-83130559D01*
X100415671Y-83025049D01*
X100654452Y-82667687D01*
X100778909Y-82042000D01*
X100654452Y-81416313D01*
X100300029Y-80885880D01*
X99769596Y-80531457D01*
X99143909Y-80407000D01*
X98468091Y-80407000D01*
X97842404Y-80531457D01*
X97311971Y-80885880D01*
X96957548Y-81416313D01*
X96833091Y-82042000D01*
X96932323Y-82540875D01*
X96643598Y-82829600D01*
X96478851Y-83076162D01*
X96420999Y-83367001D01*
X93420000Y-83367001D01*
X93420000Y-78075022D01*
X97618584Y-78075022D01*
X97839353Y-78445743D01*
X98811012Y-78839119D01*
X99859247Y-78830713D01*
X100788647Y-78445743D01*
X101009416Y-78075022D01*
X99314000Y-76379605D01*
X97618584Y-78075022D01*
X93420000Y-78075022D01*
X93420000Y-75697012D01*
X96674881Y-75697012D01*
X96683287Y-76745247D01*
X97068257Y-77674647D01*
X97438978Y-77895416D01*
X99134395Y-76200000D01*
X99493605Y-76200000D01*
X101189022Y-77895416D01*
X101559743Y-77674647D01*
X101732572Y-77247750D01*
X104791000Y-77247750D01*
X104791000Y-78388310D01*
X104887673Y-78621699D01*
X105066302Y-78800327D01*
X105299691Y-78897000D01*
X106140250Y-78897000D01*
X106299000Y-78738250D01*
X106299000Y-77089000D01*
X104949750Y-77089000D01*
X104791000Y-77247750D01*
X101732572Y-77247750D01*
X101953119Y-76702988D01*
X101944713Y-75654753D01*
X101895396Y-75535690D01*
X104791000Y-75535690D01*
X104791000Y-76676250D01*
X104949750Y-76835000D01*
X106299000Y-76835000D01*
X106299000Y-75185750D01*
X106140250Y-75027000D01*
X105299691Y-75027000D01*
X105066302Y-75123673D01*
X104887673Y-75302301D01*
X104791000Y-75535690D01*
X101895396Y-75535690D01*
X101559743Y-74725353D01*
X101485285Y-74681012D01*
X155602881Y-74681012D01*
X155611287Y-75729247D01*
X155996257Y-76658647D01*
X156366978Y-76879416D01*
X158062395Y-75184000D01*
X158421605Y-75184000D01*
X160117022Y-76879416D01*
X160487743Y-76658647D01*
X160881119Y-75686988D01*
X160872713Y-74638753D01*
X160487743Y-73709353D01*
X160117022Y-73488584D01*
X158421605Y-75184000D01*
X158062395Y-75184000D01*
X156366978Y-73488584D01*
X155996257Y-73709353D01*
X155602881Y-74681012D01*
X101485285Y-74681012D01*
X101189022Y-74504584D01*
X99493605Y-76200000D01*
X99134395Y-76200000D01*
X97438978Y-74504584D01*
X97068257Y-74725353D01*
X96674881Y-75697012D01*
X93420000Y-75697012D01*
X93420000Y-74324978D01*
X97618584Y-74324978D01*
X99314000Y-76020395D01*
X101009416Y-74324978D01*
X100788647Y-73954257D01*
X99816988Y-73560881D01*
X98768753Y-73569287D01*
X97839353Y-73954257D01*
X97618584Y-74324978D01*
X93420000Y-74324978D01*
X93420000Y-73308978D01*
X156546584Y-73308978D01*
X158242000Y-75004395D01*
X159937416Y-73308978D01*
X159716647Y-72938257D01*
X158744988Y-72544881D01*
X157696753Y-72553287D01*
X156767353Y-72938257D01*
X156546584Y-73308978D01*
X93420000Y-73308978D01*
X93420000Y-71576000D01*
X163628000Y-71576000D01*
X163628000Y-132894000D01*
G36*
X125280398Y-100910602D02*
X125332790Y-100962994D01*
X125332790Y-106793146D01*
X125273923Y-106734176D01*
X125220000Y-106711785D01*
X125220000Y-100820210D01*
X125280398Y-100910602D01*
X125280398Y-100910602D01*
G37*
X125280398Y-100910602D02*
X125332790Y-100962994D01*
X125332790Y-106793146D01*
X125273923Y-106734176D01*
X125220000Y-106711785D01*
X125220000Y-100820210D01*
X125280398Y-100910602D01*
G36*
X130049302Y-91974811D02*
X130514849Y-92285880D01*
X131064000Y-92395113D01*
X131613151Y-92285880D01*
X131718999Y-92215155D01*
X131718999Y-98193469D01*
X131776851Y-98484308D01*
X131941598Y-98730870D01*
X134273001Y-101062273D01*
X134273001Y-102655000D01*
X134143750Y-102655000D01*
X133985000Y-102813750D01*
X133985000Y-104013000D01*
X134005000Y-104013000D01*
X134005000Y-104267000D01*
X133985000Y-104267000D01*
X133985000Y-104287000D01*
X133731000Y-104287000D01*
X133731000Y-104267000D01*
X133711000Y-104267000D01*
X133711000Y-104013000D01*
X133731000Y-104013000D01*
X133731000Y-102813750D01*
X133572250Y-102655000D01*
X132881690Y-102655000D01*
X132648301Y-102751673D01*
X132469673Y-102930302D01*
X132397403Y-103104777D01*
X132368054Y-103060853D01*
X132078000Y-102867046D01*
X132078000Y-101542996D01*
X132020148Y-101252157D01*
X131855401Y-101005595D01*
X127783803Y-96933997D01*
X127537241Y-96769250D01*
X127246402Y-96711398D01*
X124073404Y-96711398D01*
X124489401Y-96295401D01*
X124592817Y-96140627D01*
X124634223Y-96157820D01*
X125045971Y-96158179D01*
X125412933Y-96006554D01*
X125777223Y-96157820D01*
X126188971Y-96158179D01*
X126569515Y-96000942D01*
X126860919Y-95710046D01*
X127018820Y-95329777D01*
X127018966Y-95162836D01*
X127829702Y-94352100D01*
X127994449Y-94105538D01*
X128052301Y-93814699D01*
X128052301Y-92301286D01*
X128524000Y-92395113D01*
X129073151Y-92285880D01*
X129538698Y-91974811D01*
X129794000Y-91592725D01*
X130049302Y-91974811D01*
X130049302Y-91974811D01*
G37*
X130049302Y-91974811D02*
X130514849Y-92285880D01*
X131064000Y-92395113D01*
X131613151Y-92285880D01*
X131718999Y-92215155D01*
X131718999Y-98193469D01*
X131776851Y-98484308D01*
X131941598Y-98730870D01*
X134273001Y-101062273D01*
X134273001Y-102655000D01*
X134143750Y-102655000D01*
X133985000Y-102813750D01*
X133985000Y-104013000D01*
X134005000Y-104013000D01*
X134005000Y-104267000D01*
X133985000Y-104267000D01*
X133985000Y-104287000D01*
X133731000Y-104287000D01*
X133731000Y-104267000D01*
X133711000Y-104267000D01*
X133711000Y-104013000D01*
X133731000Y-104013000D01*
X133731000Y-102813750D01*
X133572250Y-102655000D01*
X132881690Y-102655000D01*
X132648301Y-102751673D01*
X132469673Y-102930302D01*
X132397403Y-103104777D01*
X132368054Y-103060853D01*
X132078000Y-102867046D01*
X132078000Y-101542996D01*
X132020148Y-101252157D01*
X131855401Y-101005595D01*
X127783803Y-96933997D01*
X127537241Y-96769250D01*
X127246402Y-96711398D01*
X124073404Y-96711398D01*
X124489401Y-96295401D01*
X124592817Y-96140627D01*
X124634223Y-96157820D01*
X125045971Y-96158179D01*
X125412933Y-96006554D01*
X125777223Y-96157820D01*
X126188971Y-96158179D01*
X126569515Y-96000942D01*
X126860919Y-95710046D01*
X127018820Y-95329777D01*
X127018966Y-95162836D01*
X127829702Y-94352100D01*
X127994449Y-94105538D01*
X128052301Y-93814699D01*
X128052301Y-92301286D01*
X128524000Y-92395113D01*
X129073151Y-92285880D01*
X129538698Y-91974811D01*
X129794000Y-91592725D01*
X130049302Y-91974811D01*
G36*
X130558000Y-101857798D02*
X130558000Y-102867046D01*
X130267946Y-103060853D01*
X130048000Y-103390026D01*
X129828054Y-103060853D01*
X129346285Y-102738946D01*
X128778000Y-102625907D01*
X128209715Y-102738946D01*
X127752810Y-103044239D01*
X127752810Y-100962994D01*
X127805202Y-100910602D01*
X127969949Y-100664040D01*
X128027801Y-100373201D01*
X128027801Y-99677199D01*
X127969949Y-99386360D01*
X127805202Y-99139798D01*
X127428202Y-98762798D01*
X127181640Y-98598051D01*
X126890801Y-98540199D01*
X126194799Y-98540199D01*
X125903960Y-98598051D01*
X125657398Y-98762798D01*
X125280398Y-99139798D01*
X125115651Y-99386360D01*
X125095280Y-99488771D01*
X124997401Y-99342284D01*
X124512246Y-98857129D01*
X124605820Y-98631777D01*
X124606169Y-98231398D01*
X126931600Y-98231398D01*
X130558000Y-101857798D01*
X130558000Y-101857798D01*
G37*
X130558000Y-101857798D02*
X130558000Y-102867046D01*
X130267946Y-103060853D01*
X130048000Y-103390026D01*
X129828054Y-103060853D01*
X129346285Y-102738946D01*
X128778000Y-102625907D01*
X128209715Y-102738946D01*
X127752810Y-103044239D01*
X127752810Y-100962994D01*
X127805202Y-100910602D01*
X127969949Y-100664040D01*
X128027801Y-100373201D01*
X128027801Y-99677199D01*
X127969949Y-99386360D01*
X127805202Y-99139798D01*
X127428202Y-98762798D01*
X127181640Y-98598051D01*
X126890801Y-98540199D01*
X126194799Y-98540199D01*
X125903960Y-98598051D01*
X125657398Y-98762798D01*
X125280398Y-99139798D01*
X125115651Y-99386360D01*
X125095280Y-99488771D01*
X124997401Y-99342284D01*
X124512246Y-98857129D01*
X124605820Y-98631777D01*
X124606169Y-98231398D01*
X126931600Y-98231398D01*
X130558000Y-101857798D01*
G36*
X127509302Y-84354811D02*
X127730694Y-84502741D01*
X127704302Y-84513673D01*
X127525673Y-84692301D01*
X127429000Y-84925690D01*
X127429000Y-85566250D01*
X127587750Y-85725000D01*
X128937000Y-85725000D01*
X128937000Y-85705000D01*
X129191000Y-85705000D01*
X129191000Y-85725000D01*
X130540250Y-85725000D01*
X130699000Y-85566250D01*
X130699000Y-84925690D01*
X130602327Y-84692301D01*
X130591067Y-84681041D01*
X131064000Y-84775113D01*
X131550812Y-84678280D01*
X131467569Y-84800110D01*
X131416560Y-85052000D01*
X131416560Y-86652000D01*
X131456821Y-86865969D01*
X131340569Y-87036110D01*
X131289560Y-87288000D01*
X131289560Y-88988000D01*
X131333838Y-89223317D01*
X131472910Y-89439441D01*
X131685110Y-89584431D01*
X131718999Y-89591294D01*
X131718999Y-89648845D01*
X131613151Y-89578120D01*
X131064000Y-89468887D01*
X130514849Y-89578120D01*
X130049302Y-89889189D01*
X129794000Y-90271275D01*
X129538698Y-89889189D01*
X129158936Y-89635440D01*
X129937000Y-89635440D01*
X130172317Y-89591162D01*
X130388441Y-89452090D01*
X130533431Y-89239890D01*
X130584440Y-88988000D01*
X130584440Y-87288000D01*
X130543516Y-87070509D01*
X130602327Y-87011699D01*
X130699000Y-86778310D01*
X130699000Y-86137750D01*
X130540250Y-85979000D01*
X129191000Y-85979000D01*
X129191000Y-85999000D01*
X128937000Y-85999000D01*
X128937000Y-85979000D01*
X127587750Y-85979000D01*
X127429000Y-86137750D01*
X127429000Y-86778310D01*
X127462106Y-86858235D01*
X127340569Y-87036110D01*
X127289560Y-87288000D01*
X127289560Y-87427831D01*
X127249238Y-87435852D01*
X127088002Y-87543587D01*
X127088002Y-85321004D01*
X127030150Y-85030165D01*
X126865403Y-84783603D01*
X126661752Y-84579952D01*
X126998698Y-84354811D01*
X127254000Y-83972725D01*
X127509302Y-84354811D01*
X127509302Y-84354811D01*
G37*
X127509302Y-84354811D02*
X127730694Y-84502741D01*
X127704302Y-84513673D01*
X127525673Y-84692301D01*
X127429000Y-84925690D01*
X127429000Y-85566250D01*
X127587750Y-85725000D01*
X128937000Y-85725000D01*
X128937000Y-85705000D01*
X129191000Y-85705000D01*
X129191000Y-85725000D01*
X130540250Y-85725000D01*
X130699000Y-85566250D01*
X130699000Y-84925690D01*
X130602327Y-84692301D01*
X130591067Y-84681041D01*
X131064000Y-84775113D01*
X131550812Y-84678280D01*
X131467569Y-84800110D01*
X131416560Y-85052000D01*
X131416560Y-86652000D01*
X131456821Y-86865969D01*
X131340569Y-87036110D01*
X131289560Y-87288000D01*
X131289560Y-88988000D01*
X131333838Y-89223317D01*
X131472910Y-89439441D01*
X131685110Y-89584431D01*
X131718999Y-89591294D01*
X131718999Y-89648845D01*
X131613151Y-89578120D01*
X131064000Y-89468887D01*
X130514849Y-89578120D01*
X130049302Y-89889189D01*
X129794000Y-90271275D01*
X129538698Y-89889189D01*
X129158936Y-89635440D01*
X129937000Y-89635440D01*
X130172317Y-89591162D01*
X130388441Y-89452090D01*
X130533431Y-89239890D01*
X130584440Y-88988000D01*
X130584440Y-87288000D01*
X130543516Y-87070509D01*
X130602327Y-87011699D01*
X130699000Y-86778310D01*
X130699000Y-86137750D01*
X130540250Y-85979000D01*
X129191000Y-85979000D01*
X129191000Y-85999000D01*
X128937000Y-85999000D01*
X128937000Y-85979000D01*
X127587750Y-85979000D01*
X127429000Y-86137750D01*
X127429000Y-86778310D01*
X127462106Y-86858235D01*
X127340569Y-87036110D01*
X127289560Y-87288000D01*
X127289560Y-87427831D01*
X127249238Y-87435852D01*
X127088002Y-87543587D01*
X127088002Y-85321004D01*
X127030150Y-85030165D01*
X126865403Y-84783603D01*
X126661752Y-84579952D01*
X126998698Y-84354811D01*
X127254000Y-83972725D01*
X127509302Y-84354811D01*
G36*
X125568002Y-85635806D02*
X125568002Y-87610969D01*
X125398029Y-87610821D01*
X125017485Y-87768058D01*
X124726081Y-88058954D01*
X124568180Y-88439223D01*
X124568034Y-88606164D01*
X124454224Y-88719974D01*
X124380250Y-88646000D01*
X123031000Y-88646000D01*
X123031000Y-88666000D01*
X122777000Y-88666000D01*
X122777000Y-88646000D01*
X121427750Y-88646000D01*
X121321854Y-88751896D01*
X121252001Y-88738001D01*
X120989001Y-88738001D01*
X120989001Y-87458999D01*
X120931149Y-87168160D01*
X120766402Y-86921598D01*
X120701402Y-86856598D01*
X120532819Y-86743955D01*
X120551440Y-86652000D01*
X120551440Y-86137750D01*
X121269000Y-86137750D01*
X121269000Y-86778310D01*
X121365673Y-87011699D01*
X121539475Y-87185500D01*
X121365673Y-87359301D01*
X121269000Y-87592690D01*
X121269000Y-88233250D01*
X121427750Y-88392000D01*
X122777000Y-88392000D01*
X122777000Y-87242750D01*
X122719750Y-87185500D01*
X122777000Y-87128250D01*
X122777000Y-85979000D01*
X123031000Y-85979000D01*
X123031000Y-87128250D01*
X123088250Y-87185500D01*
X123031000Y-87242750D01*
X123031000Y-88392000D01*
X124380250Y-88392000D01*
X124539000Y-88233250D01*
X124539000Y-87592690D01*
X124442327Y-87359301D01*
X124268525Y-87185500D01*
X124442327Y-87011699D01*
X124539000Y-86778310D01*
X124539000Y-86137750D01*
X124380250Y-85979000D01*
X123031000Y-85979000D01*
X122777000Y-85979000D01*
X121427750Y-85979000D01*
X121269000Y-86137750D01*
X120551440Y-86137750D01*
X120551440Y-85052000D01*
X120507162Y-84816683D01*
X120418236Y-84678489D01*
X120904000Y-84775113D01*
X121376933Y-84681041D01*
X121365673Y-84692301D01*
X121269000Y-84925690D01*
X121269000Y-85566250D01*
X121427750Y-85725000D01*
X122777000Y-85725000D01*
X122777000Y-85705000D01*
X123031000Y-85705000D01*
X123031000Y-85725000D01*
X124380250Y-85725000D01*
X124539000Y-85566250D01*
X124539000Y-84925690D01*
X124442327Y-84692301D01*
X124263698Y-84513673D01*
X124237306Y-84502741D01*
X124355777Y-84423581D01*
X125568002Y-85635806D01*
X125568002Y-85635806D01*
G37*
X125568002Y-85635806D02*
X125568002Y-87610969D01*
X125398029Y-87610821D01*
X125017485Y-87768058D01*
X124726081Y-88058954D01*
X124568180Y-88439223D01*
X124568034Y-88606164D01*
X124454224Y-88719974D01*
X124380250Y-88646000D01*
X123031000Y-88646000D01*
X123031000Y-88666000D01*
X122777000Y-88666000D01*
X122777000Y-88646000D01*
X121427750Y-88646000D01*
X121321854Y-88751896D01*
X121252001Y-88738001D01*
X120989001Y-88738001D01*
X120989001Y-87458999D01*
X120931149Y-87168160D01*
X120766402Y-86921598D01*
X120701402Y-86856598D01*
X120532819Y-86743955D01*
X120551440Y-86652000D01*
X120551440Y-86137750D01*
X121269000Y-86137750D01*
X121269000Y-86778310D01*
X121365673Y-87011699D01*
X121539475Y-87185500D01*
X121365673Y-87359301D01*
X121269000Y-87592690D01*
X121269000Y-88233250D01*
X121427750Y-88392000D01*
X122777000Y-88392000D01*
X122777000Y-87242750D01*
X122719750Y-87185500D01*
X122777000Y-87128250D01*
X122777000Y-85979000D01*
X123031000Y-85979000D01*
X123031000Y-87128250D01*
X123088250Y-87185500D01*
X123031000Y-87242750D01*
X123031000Y-88392000D01*
X124380250Y-88392000D01*
X124539000Y-88233250D01*
X124539000Y-87592690D01*
X124442327Y-87359301D01*
X124268525Y-87185500D01*
X124442327Y-87011699D01*
X124539000Y-86778310D01*
X124539000Y-86137750D01*
X124380250Y-85979000D01*
X123031000Y-85979000D01*
X122777000Y-85979000D01*
X121427750Y-85979000D01*
X121269000Y-86137750D01*
X120551440Y-86137750D01*
X120551440Y-85052000D01*
X120507162Y-84816683D01*
X120418236Y-84678489D01*
X120904000Y-84775113D01*
X121376933Y-84681041D01*
X121365673Y-84692301D01*
X121269000Y-84925690D01*
X121269000Y-85566250D01*
X121427750Y-85725000D01*
X122777000Y-85725000D01*
X122777000Y-85705000D01*
X123031000Y-85705000D01*
X123031000Y-85725000D01*
X124380250Y-85725000D01*
X124539000Y-85566250D01*
X124539000Y-84925690D01*
X124442327Y-84692301D01*
X124263698Y-84513673D01*
X124237306Y-84502741D01*
X124355777Y-84423581D01*
X125568002Y-85635806D01*
G36*
X114707301Y-81751213D02*
X114706942Y-82162961D01*
X114864179Y-82543505D01*
X114982121Y-82661653D01*
X114982121Y-84556317D01*
X114375389Y-83949585D01*
X114515041Y-83795423D01*
X114675904Y-83407039D01*
X114553915Y-83185000D01*
X113411000Y-83185000D01*
X113411000Y-83205000D01*
X113157000Y-83205000D01*
X113157000Y-83185000D01*
X113137000Y-83185000D01*
X113137000Y-82931000D01*
X113157000Y-82931000D01*
X113157000Y-82911000D01*
X113411000Y-82911000D01*
X113411000Y-82931000D01*
X114553915Y-82931000D01*
X114675904Y-82708961D01*
X114515041Y-82320577D01*
X114139134Y-81905611D01*
X113940296Y-81811504D01*
X114346009Y-81405791D01*
X114850732Y-81405791D01*
X114707301Y-81751213D01*
X114707301Y-81751213D01*
G37*
X114707301Y-81751213D02*
X114706942Y-82162961D01*
X114864179Y-82543505D01*
X114982121Y-82661653D01*
X114982121Y-84556317D01*
X114375389Y-83949585D01*
X114515041Y-83795423D01*
X114675904Y-83407039D01*
X114553915Y-83185000D01*
X113411000Y-83185000D01*
X113411000Y-83205000D01*
X113157000Y-83205000D01*
X113157000Y-83185000D01*
X113137000Y-83185000D01*
X113137000Y-82931000D01*
X113157000Y-82931000D01*
X113157000Y-82911000D01*
X113411000Y-82911000D01*
X113411000Y-82931000D01*
X114553915Y-82931000D01*
X114675904Y-82708961D01*
X114515041Y-82320577D01*
X114139134Y-81905611D01*
X113940296Y-81811504D01*
X114346009Y-81405791D01*
X114850732Y-81405791D01*
X114707301Y-81751213D01*
G36*
X118491000Y-83185000D02*
X118511000Y-83185000D01*
X118511000Y-83439000D01*
X118491000Y-83439000D01*
X118491000Y-83459000D01*
X118237000Y-83459000D01*
X118237000Y-83439000D01*
X118217000Y-83439000D01*
X118217000Y-83185000D01*
X118237000Y-83185000D01*
X118237000Y-83165000D01*
X118491000Y-83165000D01*
X118491000Y-83185000D01*
X118491000Y-83185000D01*
G37*
X118491000Y-83185000D02*
X118511000Y-83185000D01*
X118511000Y-83439000D01*
X118491000Y-83439000D01*
X118491000Y-83459000D01*
X118237000Y-83459000D01*
X118237000Y-83439000D01*
X118217000Y-83439000D01*
X118217000Y-83185000D01*
X118237000Y-83185000D01*
X118237000Y-83165000D01*
X118491000Y-83165000D01*
X118491000Y-83185000D01*
G36*
X98933000Y-107061000D02*
X98953000Y-107061000D01*
X98953000Y-107315000D01*
X98933000Y-107315000D01*
X98933000Y-107335000D01*
X98679000Y-107335000D01*
X98679000Y-107315000D01*
X98659000Y-107315000D01*
X98659000Y-107061000D01*
X98679000Y-107061000D01*
X98679000Y-107041000D01*
X98933000Y-107041000D01*
X98933000Y-107061000D01*
X98933000Y-107061000D01*
G37*
X98933000Y-107061000D02*
X98953000Y-107061000D01*
X98953000Y-107315000D01*
X98933000Y-107315000D01*
X98933000Y-107335000D01*
X98679000Y-107335000D01*
X98679000Y-107315000D01*
X98659000Y-107315000D01*
X98659000Y-107061000D01*
X98679000Y-107061000D01*
X98679000Y-107041000D01*
X98933000Y-107041000D01*
X98933000Y-107061000D01*
M02*
