G04 #@! TF.FileFunction,Soldermask,Top*
%FSLAX46Y46*%
G04 Gerber Fmt 4.6, Leading zero omitted, Abs format (unit mm)*
G04 Created by KiCad (PCBNEW 4.0.2+dfsg1-stable) date ven. 05 janv. 2018 23:18:11 CET*
%MOMM*%
G01*
G04 APERTURE LIST*
%ADD10C,0.100000*%
%ADD11R,1.000000X1.950000*%
%ADD12R,2.000000X2.000000*%
%ADD13C,2.000000*%
%ADD14R,2.400000X2.000000*%
%ADD15O,4.400000X2.900000*%
%ADD16R,2.400000X2.100000*%
%ADD17C,2.400000*%
%ADD18R,3.900000X2.200000*%
%ADD19C,4.400000*%
%ADD20R,1.600000X1.000000*%
%ADD21R,1.000000X1.600000*%
%ADD22R,2.100000X2.100000*%
%ADD23O,2.100000X2.100000*%
%ADD24O,2.000000X2.000000*%
%ADD25R,3.000000X2.400000*%
%ADD26O,3.000000X2.400000*%
%ADD27C,1.900000*%
%ADD28R,2.400000X4.200000*%
%ADD29R,2.400000X1.900000*%
%ADD30R,2.400000X3.000000*%
%ADD31O,2.400000X3.000000*%
G04 APERTURE END LIST*
D10*
D11*
X108585000Y-119220000D03*
X107315000Y-119220000D03*
X106045000Y-119220000D03*
X104775000Y-119220000D03*
X104775000Y-124620000D03*
X106045000Y-124620000D03*
X107315000Y-124620000D03*
X108585000Y-124620000D03*
D12*
X139192000Y-88900000D03*
D13*
X142692000Y-88900000D03*
D14*
X138843000Y-79121000D03*
X142843000Y-79121000D03*
D15*
X138020000Y-99060000D03*
X160020000Y-99060000D03*
D16*
X142843000Y-76454000D03*
X138843000Y-76454000D03*
D17*
X153630000Y-91186000D03*
X148630000Y-91186000D03*
D18*
X138343000Y-82169000D03*
X143343000Y-82169000D03*
D10*
G36*
X160608000Y-92022000D02*
X157908000Y-92022000D01*
X158508000Y-88022000D01*
X160008000Y-88022000D01*
X160608000Y-92022000D01*
X160608000Y-92022000D01*
G37*
G36*
X157908000Y-82222000D02*
X160608000Y-82222000D01*
X160008000Y-86222000D01*
X158508000Y-86222000D01*
X157908000Y-82222000D01*
X157908000Y-82222000D01*
G37*
D19*
X158242000Y-75184000D03*
D20*
X116400000Y-96260000D03*
X116400000Y-97060000D03*
X116400000Y-97860000D03*
X116400000Y-98660000D03*
X116400000Y-99460000D03*
X116400000Y-100260000D03*
X116400000Y-101060000D03*
X116400000Y-101860000D03*
D21*
X117850000Y-103310000D03*
X118650000Y-103310000D03*
X119450000Y-103310000D03*
X120250000Y-103310000D03*
X121050000Y-103310000D03*
X121850000Y-103310000D03*
X122650000Y-103310000D03*
X123450000Y-103310000D03*
D20*
X124900000Y-101860000D03*
X124900000Y-101060000D03*
X124900000Y-100260000D03*
X124900000Y-99460000D03*
X124900000Y-98660000D03*
X124900000Y-97860000D03*
X124900000Y-97060000D03*
X124900000Y-96260000D03*
D21*
X123450000Y-94810000D03*
X122650000Y-94810000D03*
X121850000Y-94810000D03*
X121050000Y-94810000D03*
X120250000Y-94810000D03*
X119450000Y-94810000D03*
X118650000Y-94810000D03*
X117850000Y-94810000D03*
D22*
X133858000Y-104140000D03*
D23*
X131318000Y-104140000D03*
X128778000Y-104140000D03*
D16*
X133318000Y-100330000D03*
X129318000Y-100330000D03*
X134080000Y-80010000D03*
X130080000Y-80010000D03*
D10*
G36*
X126418000Y-97870000D02*
X126418000Y-95170000D01*
X130418000Y-95770000D01*
X130418000Y-97270000D01*
X126418000Y-97870000D01*
X126418000Y-97870000D01*
G37*
G36*
X136218000Y-95170000D02*
X136218000Y-97870000D01*
X132218000Y-97270000D01*
X132218000Y-95770000D01*
X136218000Y-95170000D01*
X136218000Y-95170000D01*
G37*
D12*
X133604000Y-83312000D03*
D24*
X118364000Y-90932000D03*
X131064000Y-83312000D03*
X120904000Y-90932000D03*
X128524000Y-83312000D03*
X123444000Y-90932000D03*
X125984000Y-83312000D03*
X125984000Y-90932000D03*
X123444000Y-83312000D03*
X128524000Y-90932000D03*
X120904000Y-83312000D03*
X131064000Y-90932000D03*
X118364000Y-83312000D03*
X133604000Y-90932000D03*
D10*
G36*
X112950000Y-122100000D02*
X115650000Y-122100000D01*
X115050000Y-126100000D01*
X113550000Y-126100000D01*
X112950000Y-122100000D01*
X112950000Y-122100000D01*
G37*
G36*
X115650000Y-131900000D02*
X112950000Y-131900000D01*
X113550000Y-127900000D01*
X115050000Y-127900000D01*
X115650000Y-131900000D01*
X115650000Y-131900000D01*
G37*
G36*
X112950000Y-110670000D02*
X115650000Y-110670000D01*
X115050000Y-114670000D01*
X113550000Y-114670000D01*
X112950000Y-110670000D01*
X112950000Y-110670000D01*
G37*
G36*
X115650000Y-120470000D02*
X112950000Y-120470000D01*
X113550000Y-116470000D01*
X115050000Y-116470000D01*
X115650000Y-120470000D01*
X115650000Y-120470000D01*
G37*
D16*
X108680000Y-129540000D03*
X104680000Y-129540000D03*
D25*
X98806000Y-122428000D03*
D26*
X98806000Y-124968000D03*
D19*
X98552000Y-129540000D03*
D16*
X122650000Y-111760000D03*
X118650000Y-111760000D03*
D25*
X98806000Y-114808000D03*
D26*
X98806000Y-117348000D03*
D14*
X122650000Y-116840000D03*
X118650000Y-116840000D03*
D25*
X98806000Y-102108000D03*
D26*
X98806000Y-104648000D03*
X98806000Y-107188000D03*
X98806000Y-109728000D03*
D16*
X122650000Y-114300000D03*
X118650000Y-114300000D03*
D27*
X106680000Y-103378000D03*
X111580000Y-103378000D03*
D13*
X134620000Y-107950000D03*
X132080000Y-107950000D03*
X129540000Y-107950000D03*
X127000000Y-107950000D03*
X124460000Y-107950000D03*
X121920000Y-107950000D03*
X119380000Y-107950000D03*
X116840000Y-107950000D03*
X114300000Y-107950000D03*
X111760000Y-107950000D03*
X109220000Y-107950000D03*
X106680000Y-107950000D03*
D16*
X118650000Y-119380000D03*
X122650000Y-119380000D03*
X118650000Y-130810000D03*
X122650000Y-130810000D03*
D14*
X122650000Y-128270000D03*
X118650000Y-128270000D03*
D16*
X122650000Y-123190000D03*
X118650000Y-123190000D03*
X122650000Y-125730000D03*
X118650000Y-125730000D03*
D28*
X132690000Y-127000000D03*
D29*
X126390000Y-127000000D03*
X126390000Y-129300000D03*
X126390000Y-124700000D03*
D30*
X106426000Y-76962000D03*
D31*
X108966000Y-76962000D03*
X111506000Y-76962000D03*
X114046000Y-76962000D03*
D30*
X123444000Y-76962000D03*
D31*
X120904000Y-76962000D03*
X118364000Y-76962000D03*
D12*
X139192000Y-120650000D03*
D13*
X142692000Y-120650000D03*
D14*
X138970000Y-130556000D03*
X142970000Y-130556000D03*
D15*
X138020000Y-110490000D03*
X160020000Y-110490000D03*
D17*
X149392000Y-118364000D03*
X154392000Y-118364000D03*
D18*
X138470000Y-127254000D03*
X143470000Y-127254000D03*
D19*
X159258000Y-130302000D03*
X99314000Y-76200000D03*
D12*
X113284000Y-98298000D03*
D24*
X105664000Y-83058000D03*
X113284000Y-95758000D03*
X105664000Y-85598000D03*
X113284000Y-93218000D03*
X105664000Y-88138000D03*
X113284000Y-90678000D03*
X105664000Y-90678000D03*
X113284000Y-88138000D03*
X105664000Y-93218000D03*
X113284000Y-85598000D03*
X105664000Y-95758000D03*
X113284000Y-83058000D03*
X105664000Y-98298000D03*
D25*
X98806000Y-88646000D03*
D26*
X98806000Y-91186000D03*
D25*
X98806000Y-97790000D03*
D26*
X98806000Y-95250000D03*
D25*
X98806000Y-84582000D03*
D26*
X98806000Y-82042000D03*
D28*
X132690000Y-115570000D03*
D29*
X126390000Y-115570000D03*
X126390000Y-117870000D03*
X126390000Y-113270000D03*
M02*
