<?xml version="1.0" encoding="UTF-8"?>

<svg xmlns="http://www.w3.org/2000/svg" version="1.1"
	width="594mm"
	height="420mm"
	viewBox="0 0 594 420">
	<!-- Working space 0 0 594 420 -->
	<defs>
		<radialGradient
			id="radialGradient3661"
			gradientUnits="userSpaceOnUse"
			cy="29.149"
			cx="282.65"
			gradientTransform="matrix(.14777 .23089 -.24680 .15795 -26.318 -62.617)"
			r="19.571">
				<stop stop-color="#71b2f8" offset="0"/>
				<stop stop-color="#002795" offset="1"/>
		</radialGradient>
		<radialGradient
			id="radialGradient3817"
			gradientUnits="userSpaceOnUse"
			cy="33.9"
			cx="270.58"
			gradientTransform="matrix(.26631 .065024 -.17931 .73438 -60.668 -36.938)"
			r="19.571">
				<stop stop-color="#ff6d0f" offset="0"/>
				<stop stop-color="#ff1000" offset="1"/>
		</radialGradient>
	</defs>
	<!-- Set display:none to hide FreeCAD Logo -->
	<g
		style="display:inline"
		id="freecad-logo"
		transform="translate(552, 380) scale(2)"
		fill-rule="evenodd"
		stroke-width=".45621">
		<path d="m0.22811 0.22835v13.256h2.9558v-5.1876h2.09v-2.0452h-2.09v-2.2075h5.1486v-3.8087l-8.1044-0.0075z"
			stroke="#370700"
			fill="url(#radialGradient3817)"/>
		<path d="m13.386 4.1792-1.7193 0.98645-0.75925-0.26348-0.72439-1.8513-1.1395 0.05988-0.51976 1.9144-0.72743 0.34835-1.8143-0.79367-0.76632 0.85156 0.98645 1.7193-0.26957 0.75702-1.8513 0.72439 0.065967 1.1417 1.9144 0.51976 0.34835 0.72743-0.79976 1.8121 0.85156 0.76632 1.7193-0.98645 0.76311 0.27179 0.7183 1.8491 1.1478-0.06375 0.51367-1.9166 0.72743-0.34835 1.8182 0.80198 0.76632-0.85156-0.98645-1.7193 0.2657-0.76533 1.8491-0.7183-0.05766-1.1456-1.9166-0.51367-0.34835-0.72743 0.7959-1.8204-0.85156-0.76632zm-2.5751 2.8195 0.35295 0.20478 0.30579 0.27725 0.24481 0.33087 0.17611 0.36787 0.10354 0.39656 0.01715 0.4064-0.0587 0.4063-0.13396 0.38571-0.2131 0.35681-0.26894 0.30192-0.33087 0.24481-0.36787 0.17611-0.39656 0.10354-0.40863 0.02325-0.4063-0.0587-0.38571-0.13396-0.35681-0.2131-0.2997-0.27503-0.24703-0.32478-0.17611-0.36787-0.10132-0.40264-0.02324-0.40863 0.05869-0.4063 0.13396-0.38571 0.21087-0.35072 0.27116-0.30801 0.33087-0.24481 0.36787-0.17611 0.40264-0.10132 0.40641-0.01715 0.4063 0.05869 0.38571 0.13396z" 
		stroke="#000137"
		fill="url(#radialGradient3661)"/>
	</g>
<g id="Ortho_0_0"
   transform="rotate(180,87,60) translate(87,60) scale(1,1)"
  >
<g   stroke="rgb(0, 0, 0)"
   stroke-width="0.35"
   stroke-linecap="butt"
   stroke-linejoin="miter"
   fill="none"
   transform="scale(1,-1)"
  >
<path id= "1" d=" M -273.45 14 L -273.45 10 " />
<path id= "2" d=" M -273.45 10 L -314.55 10 " />
<path id= "3" d=" M -314.55 10 L -314.55 14 " />
<path id= "4" d=" M -314.55 14 L -313.35 14 " />
<path id= "5" d=" M -313.35 14 L -313.35 17 " />
<path id= "6" d=" M -313.35 17 L -314.55 17 " />
<path id= "7" d=" M -314.55 17 L -314.55 24 " />
<path id= "8" d=" M -314.55 24 L -317.55 24 " />
<path id= "9" d=" M -317.55 24 L -317.55 17 " />
<path id= "10" d=" M -317.55 17 L -318.75 17 " />
<path id= "11" d=" M -318.75 17 L -318.75 14 " />
<path id= "12" d=" M -318.75 14 L -317.55 14 " />
<path id= "13" d=" M -317.55 14 L -317.55 10 " />
<path id= "14" d=" M -317.55 10 L -336 10 " />
<path id= "15" d=" M -336 10 L -336 0 " />
<path id= "16" d=" M -336 -7.58942e-18 L -420 -7.58942e-18 " />
<path id= "17" d=" M -420 -7.58942e-18 L -420 50 " />
<path id= "18" d=" M -420 50 L -410 50 " />
<path id= "19" d=" M -410 50 L -410 100 " />
<path id= "20" d=" M -410 100 L -420 100 " />
<path id= "21" d=" M -420 100 L -420 150 " />
<path id= "22" d=" M -420 150 L -410 150 " />
<path id= "23" d=" M -410 150 L -410 200 " />
<path id= "24" d=" M -410 200 L -420 200 " />
<path id= "25" d=" M -420 200 L -420 250 " />
<path id= "26" d=" M -420 250 L -410 250 " />
<path id= "27" d=" M -410 250 L -410 300 " />
<path id= "28" d=" M -410 300 L -10 300 " />
<path id= "29" d=" M -10 300 L -10 250 " />
<path id= "30" d=" M -10 250 L 0 250 " />
<path id= "31" d=" M 0 250 L 0 200 " />
<path id= "32" d=" M 0 200 L -10 200 " />
<path id= "33" d=" M -10 200 L -10 150 " />
<path id= "34" d=" M -10 150 L 0 150 " />
<path id= "35" d=" M 0 150 L 0 100 " />
<path id= "36" d=" M 0 100 L -10 100 " />
<path id= "37" d=" M -10 100 L -10 50 " />
<path id= "38" d=" M -10 50 L 0 50 " />
<path id= "39" d=" M 0 50 L 0 0 " />
<path id= "40" d=" M 0 0 L -84 0 " />
<path id= "41" d=" M -84 0 L -84 10 " />
<path id= "42" d=" M -84 10 L -102.45 10 " />
<path id= "43" d=" M -102.45 10 L -102.45 14 " />
<path id= "44" d=" M -102.45 14 L -101.25 14 " />
<path id= "45" d=" M -101.25 14 L -101.25 17 " />
<path id= "46" d=" M -101.25 17 L -102.45 17 " />
<path id= "47" d=" M -102.45 17 L -102.45 24 " />
<path id= "48" d=" M -102.45 24 L -105.45 24 " />
<path id= "49" d=" M -105.45 24 L -105.45 17 " />
<path id= "50" d=" M -105.45 17 L -106.65 17 " />
<path id= "51" d=" M -106.65 17 L -106.65 14 " />
<path id= "52" d=" M -106.65 14 L -105.45 14 " />
<path id= "53" d=" M -105.45 14 L -105.45 10 " />
<path id= "54" d=" M -105.45 10 L -146.55 10 " />
<path id= "55" d=" M -146.55 10 L -146.55 14 " />
<path id= "56" d=" M -146.55 14 L -145.35 14 " />
<path id= "57" d=" M -145.35 14 L -145.35 17 " />
<path id= "58" d=" M -145.35 17 L -146.55 17 " />
<path id= "59" d=" M -146.55 17 L -146.55 24 " />
<path id= "60" d=" M -146.55 24 L -149.55 24 " />
<path id= "61" d=" M -149.55 24 L -149.55 17 " />
<path id= "62" d=" M -149.55 17 L -150.75 17 " />
<path id= "63" d=" M -150.75 17 L -150.75 14 " />
<path id= "64" d=" M -150.75 14 L -149.55 14 " />
<path id= "65" d=" M -149.55 14 L -149.55 10 " />
<path id= "66" d=" M -149.55 10 L -168 10 " />
<path id= "67" d=" M -168 10 L -168 0 " />
<path id= "68" d=" M -168 7.03783e-16 L -252 7.03783e-16 " />
<path id= "69" d=" M -252 7.03783e-16 L -252 10 " />
<path id= "70" d=" M -252 10 L -270.45 10 " />
<path id= "71" d=" M -270.45 10 L -270.45 14 " />
<path id= "72" d=" M -270.45 14 L -269.25 14 " />
<path id= "73" d=" M -269.25 14 L -269.25 17 " />
<path id= "74" d=" M -269.25 17 L -270.45 17 " />
<path id= "75" d=" M -270.45 17 L -270.45 24 " />
<path id= "76" d=" M -270.45 24 L -273.45 24 " />
<path id= "77" d=" M -273.45 24 L -273.45 17 " />
<path id= "78" d=" M -273.45 17 L -274.65 17 " />
<path id= "79" d=" M -274.65 17 L -274.65 14 " />
<path id= "80" d=" M -273.45 14 L -274.65 14 " />
<circle cx ="-411.5" cy ="225" r ="1.5" /><circle cx ="-249" cy ="249" r ="1.5" /><circle cx ="-300" cy ="255" r ="1.5" /><circle cx ="-375" cy ="255" r ="1.5" /><circle cx ="-300" cy ="155" r ="1.5" /><circle cx ="-375" cy ="155" r ="1.5" /><circle cx ="-300" cy ="55" r ="1.5" /><circle cx ="-249" cy ="60" r ="1.5" /><circle cx ="-375" cy ="55" r ="1.5" /><circle cx ="-60" cy ="249" r ="1.5" /><circle cx ="-411.5" cy ="25" r ="1.5" /><circle cx ="-8.5" cy ="225" r ="1.5" /><circle cx ="-60" cy ="60" r ="1.5" /><circle cx ="-411.5" cy ="125" r ="1.5" /><circle cx ="-8.5" cy ="25" r ="1.5" /><circle cx ="-8.5" cy ="125" r ="1.5" /></g>
</g>



</svg>

