999
FreeCAD DXF exporter v0.16-6712 (Git)
0
SECTION
2
HEADER
9
$ACADVER
1
AC1009
0
ENDSEC
0
SECTION
2
BLOCKS
0
BLOCK
5
2711
100
AcDbEntity
8
0
100
AcDbBlockBegin
2
Ortho1
70
0
10
0
20
0
3
Ortho1
1

0
LINE
8
0
6
BYBLOCK
62
0
5
2712
100
AcDbEntity
100
AcDbLine
10
0
20
5
30
0
11
0
21
40
31
0
0
ARC
8
0
6
BYBLOCK
62
0
5
2713
100
AcDbEntity
100
AcDbCircle
10
5
20
5
30
0
40
5
100
AcDbArc
50
180
51
-90
0
LINE
8
0
6
BYBLOCK
62
0
5
2714
100
AcDbEntity
100
AcDbLine
10
0
20
40
30
0
11
0
21
42.5
31
0
0
LINE
8
0
6
BYBLOCK
62
0
5
2715
100
AcDbEntity
100
AcDbLine
10
5
20
0
30
0
11
205
21
0
31
0
0
ARC
8
0
6
BYBLOCK
62
0
5
2716
100
AcDbEntity
100
AcDbCircle
10
5
20
42.5
30
0
40
5
100
AcDbArc
50
90
51
180
0
ARC
8
0
6
BYBLOCK
62
0
5
2717
100
AcDbEntity
100
AcDbCircle
10
205
20
5
30
0
40
5
100
AcDbArc
50
-90
51
2.03555e-13
0
LINE
8
0
6
BYBLOCK
62
0
5
2718
100
AcDbEntity
100
AcDbLine
10
5
20
47.5
30
0
11
24
21
47.5
31
0
0
LINE
8
0
6
BYBLOCK
62
0
5
2719
100
AcDbEntity
100
AcDbLine
10
210
20
5
30
0
11
210
21
40
31
0
0
ARC
8
0
6
BYBLOCK
62
0
5
271a
100
AcDbEntity
100
AcDbCircle
10
24
20
42.5
30
0
40
5
100
AcDbArc
50
1.62844e-13
51
90
0
LINE
8
0
6
BYBLOCK
62
0
5
271b
100
AcDbEntity
100
AcDbLine
10
210
20
42.5
30
0
11
210
21
40
31
0
0
LINE
8
0
6
BYBLOCK
62
0
5
271c
100
AcDbEntity
100
AcDbLine
10
29
20
42.5
30
0
11
29
21
40
31
0
0
ARC
8
0
6
BYBLOCK
62
0
5
271d
100
AcDbEntity
100
AcDbCircle
10
205
20
42.5
30
0
40
5
100
AcDbArc
50
1.62844e-13
51
90
0
LINE
8
0
6
BYBLOCK
62
0
5
271e
100
AcDbEntity
100
AcDbLine
10
29
20
40
30
0
11
55
21
40
31
0
0
LINE
8
0
6
BYBLOCK
62
0
5
271f
100
AcDbEntity
100
AcDbLine
10
186
20
47.5
30
0
11
205
21
47.5
31
0
0
LINE
8
0
6
BYBLOCK
62
0
5
2720
100
AcDbEntity
100
AcDbLine
10
55
20
40
30
0
11
55
21
100
31
0
0
ARC
8
0
6
BYBLOCK
62
0
5
2721
100
AcDbEntity
100
AcDbCircle
10
186
20
42.5
30
0
40
5
100
AcDbArc
50
90
51
180
0
LINE
8
0
6
BYBLOCK
62
0
5
2722
100
AcDbEntity
100
AcDbLine
10
29
20
100
30
0
11
55
21
100
31
0
0
LINE
8
0
6
BYBLOCK
62
0
5
2723
100
AcDbEntity
100
AcDbLine
10
181
20
40
30
0
11
181
21
42.5
31
0
0
LINE
8
0
6
BYBLOCK
62
0
5
2724
100
AcDbEntity
100
AcDbLine
10
29
20
97.5
30
0
11
29
21
100
31
0
0
LINE
8
0
6
BYBLOCK
62
0
5
2725
100
AcDbEntity
100
AcDbLine
10
155
20
40
30
0
11
181
21
40
31
0
0
ARC
8
0
6
BYBLOCK
62
0
5
2726
100
AcDbEntity
100
AcDbCircle
10
24
20
97.5
30
0
40
5
100
AcDbArc
50
-90
51
1.62844e-13
0
LINE
8
0
6
BYBLOCK
62
0
5
2727
100
AcDbEntity
100
AcDbLine
10
155
20
40
30
0
11
155
21
100
31
0
0
LINE
8
0
6
BYBLOCK
62
0
5
2728
100
AcDbEntity
100
AcDbLine
10
5
20
92.5
30
0
11
24
21
92.5
31
0
0
LINE
8
0
6
BYBLOCK
62
0
5
2729
100
AcDbEntity
100
AcDbLine
10
181
20
100
30
0
11
155
21
100
31
0
0
ARC
8
0
6
BYBLOCK
62
0
5
272a
100
AcDbEntity
100
AcDbCircle
10
5
20
97.5
30
0
40
5
100
AcDbArc
50
180
51
-90
0
LINE
8
0
6
BYBLOCK
62
0
5
272b
100
AcDbEntity
100
AcDbLine
10
181
20
97.5
30
0
11
181
21
100
31
0
0
LINE
8
0
6
BYBLOCK
62
0
5
272c
100
AcDbEntity
100
AcDbLine
10
0
20
100
30
0
11
0
21
97.5
31
0
0
ARC
8
0
6
BYBLOCK
62
0
5
272d
100
AcDbEntity
100
AcDbCircle
10
186
20
97.5
30
0
40
5
100
AcDbArc
50
180
51
-90
0
LINE
8
0
6
BYBLOCK
62
0
5
272e
100
AcDbEntity
100
AcDbLine
10
0
20
100
30
0
11
0
21
145
31
0
0
LINE
8
0
6
BYBLOCK
62
0
5
272f
100
AcDbEntity
100
AcDbLine
10
205
20
92.5
30
0
11
186
21
92.5
31
0
0
ARC
8
0
6
BYBLOCK
62
0
5
2730
100
AcDbEntity
100
AcDbCircle
10
5
20
145
30
0
40
5
100
AcDbArc
50
90
51
180
0
ARC
8
0
6
BYBLOCK
62
0
5
2731
100
AcDbEntity
100
AcDbCircle
10
205
20
97.5
30
0
40
5
100
AcDbArc
50
-90
51
1.62844e-13
0
LINE
8
0
6
BYBLOCK
62
0
5
2732
100
AcDbEntity
100
AcDbLine
10
205
20
150
30
0
11
5
21
150
31
0
0
LINE
8
0
6
BYBLOCK
62
0
5
2733
100
AcDbEntity
100
AcDbLine
10
210
20
100
30
0
11
210
21
97.5
31
0
0
ARC
8
0
6
BYBLOCK
62
0
5
2734
100
AcDbEntity
100
AcDbCircle
10
205
20
145
30
0
40
5
100
AcDbArc
50
3.25689e-13
51
90
0
LINE
8
0
6
BYBLOCK
62
0
5
2735
100
AcDbEntity
100
AcDbLine
10
210
20
100
30
0
11
210
21
145
31
0
0
CIRCLE
8
0
6
BYBLOCK
62
0
5
2736
100
AcDbEntity
100
AcDbCircle
10
160
20
24
30
0
40
10
0
CIRCLE
8
0
6
BYBLOCK
62
0
5
2737
100
AcDbEntity
100
AcDbCircle
10
105
20
128
30
0
40
10
0
CIRCLE
8
0
6
BYBLOCK
62
0
5
2738
100
AcDbEntity
100
AcDbCircle
10
50
20
24
30
0
40
10
0
CIRCLE
8
0
6
BYBLOCK
62
0
5
2739
100
AcDbEntity
100
AcDbCircle
10
80
20
85
30
0
40
2
0
CIRCLE
8
0
6
BYBLOCK
62
0
5
273a
100
AcDbEntity
100
AcDbCircle
10
95
20
85
30
0
40
2
0
CIRCLE
8
0
6
BYBLOCK
62
0
5
273b
100
AcDbEntity
100
AcDbCircle
10
115
20
85
30
0
40
2
0
CIRCLE
8
0
6
BYBLOCK
62
0
5
273c
100
AcDbEntity
100
AcDbCircle
10
65
20
85
30
0
40
2
0
CIRCLE
8
0
6
BYBLOCK
62
0
5
273d
100
AcDbEntity
100
AcDbCircle
10
80
20
55
30
0
40
2
0
CIRCLE
8
0
6
BYBLOCK
62
0
5
273e
100
AcDbEntity
100
AcDbCircle
10
95
20
55
30
0
40
2
0
CIRCLE
8
0
6
BYBLOCK
62
0
5
273f
100
AcDbEntity
100
AcDbCircle
10
130
20
85
30
0
40
2
0
CIRCLE
8
0
6
BYBLOCK
62
0
5
2740
100
AcDbEntity
100
AcDbCircle
10
115
20
55
30
0
40
2
0
CIRCLE
8
0
6
BYBLOCK
62
0
5
2741
100
AcDbEntity
100
AcDbCircle
10
65
20
55
30
0
40
2
0
CIRCLE
8
0
6
BYBLOCK
62
0
5
2742
100
AcDbEntity
100
AcDbCircle
10
130
20
55
30
0
40
2
0
CIRCLE
8
0
6
BYBLOCK
62
0
5
2743
100
AcDbEntity
100
AcDbCircle
10
145
20
85
30
0
40
2
0
CIRCLE
8
0
6
BYBLOCK
62
0
5
2744
100
AcDbEntity
100
AcDbCircle
10
145
20
55
30
0
40
2
0
CIRCLE
8
0
6
BYBLOCK
62
0
5
2745
100
AcDbEntity
100
AcDbCircle
10
201.7
20
138
30
0
40
1.5
0
CIRCLE
8
0
6
BYBLOCK
62
0
5
2746
100
AcDbEntity
100
AcDbCircle
10
183
20
138
30
0
40
1.5
0
CIRCLE
8
0
6
BYBLOCK
62
0
5
2747
100
AcDbEntity
100
AcDbCircle
10
168
20
138
30
0
40
1.5
0
CIRCLE
8
0
6
BYBLOCK
62
0
5
2748
100
AcDbEntity
100
AcDbCircle
10
135
20
143
30
0
40
1.5
0
CIRCLE
8
0
6
BYBLOCK
62
0
5
2749
100
AcDbEntity
100
AcDbCircle
10
135
20
135
30
0
40
1.5
0
CIRCLE
8
0
6
BYBLOCK
62
0
5
274a
100
AcDbEntity
100
AcDbCircle
10
162
20
11
30
0
40
1.5
0
CIRCLE
8
0
6
BYBLOCK
62
0
5
274b
100
AcDbEntity
100
AcDbCircle
10
197
20
4.25
30
0
40
1.5
0
CIRCLE
8
0
6
BYBLOCK
62
0
5
274c
100
AcDbEntity
100
AcDbCircle
10
197
20
16.25
30
0
40
1.5
0
CIRCLE
8
0
6
BYBLOCK
62
0
5
274d
100
AcDbEntity
100
AcDbCircle
10
185
20
4.25
30
0
40
1.5
0
CIRCLE
8
0
6
BYBLOCK
62
0
5
274e
100
AcDbEntity
100
AcDbCircle
10
185
20
16.25
30
0
40
1.5
0
CIRCLE
8
0
6
BYBLOCK
62
0
5
274f
100
AcDbEntity
100
AcDbCircle
10
188.5
20
25.5
30
0
40
1.5
0
CIRCLE
8
0
6
BYBLOCK
62
0
5
2750
100
AcDbEntity
100
AcDbCircle
10
27
20
138
30
0
40
1.5
0
CIRCLE
8
0
6
BYBLOCK
62
0
5
2751
100
AcDbEntity
100
AcDbCircle
10
201.7
20
26.2
30
0
40
1.5
0
CIRCLE
8
0
6
BYBLOCK
62
0
5
2752
100
AcDbEntity
100
AcDbCircle
10
8.3
20
138
30
0
40
1.5
0
CIRCLE
8
0
6
BYBLOCK
62
0
5
2753
100
AcDbEntity
100
AcDbCircle
10
201.7
20
41.9
30
0
40
1.5
0
CIRCLE
8
0
6
BYBLOCK
62
0
5
2754
100
AcDbEntity
100
AcDbCircle
10
160
20
36.6
30
0
40
1.5
0
CIRCLE
8
0
6
BYBLOCK
62
0
5
2755
100
AcDbEntity
100
AcDbCircle
10
149.088
20
17.7
30
0
40
1.5
0
CIRCLE
8
0
6
BYBLOCK
62
0
5
2756
100
AcDbEntity
100
AcDbCircle
10
170.912
20
17.7
30
0
40
1.5
0
CIRCLE
8
0
6
BYBLOCK
62
0
5
2757
100
AcDbEntity
100
AcDbCircle
10
42
20
138
30
0
40
1.5
0
CIRCLE
8
0
6
BYBLOCK
62
0
5
2758
100
AcDbEntity
100
AcDbCircle
10
172
20
11
30
0
40
1.5
0
CIRCLE
8
0
6
BYBLOCK
62
0
5
2759
100
AcDbEntity
100
AcDbCircle
10
115.912
20
134.3
30
0
40
1.5
0
CIRCLE
8
0
6
BYBLOCK
62
0
5
275a
100
AcDbEntity
100
AcDbCircle
10
60.9119
20
17.7
30
0
40
1.5
0
CIRCLE
8
0
6
BYBLOCK
62
0
5
275b
100
AcDbEntity
100
AcDbCircle
10
39.0881
20
17.7
30
0
40
1.5
0
CIRCLE
8
0
6
BYBLOCK
62
0
5
275c
100
AcDbEntity
100
AcDbCircle
10
21.5
20
25.5
30
0
40
1.5
0
CIRCLE
8
0
6
BYBLOCK
62
0
5
275d
100
AcDbEntity
100
AcDbCircle
10
50
20
36.6
30
0
40
1.5
0
CIRCLE
8
0
6
BYBLOCK
62
0
5
275e
100
AcDbEntity
100
AcDbCircle
10
48
20
11
30
0
40
1.5
0
CIRCLE
8
0
6
BYBLOCK
62
0
5
275f
100
AcDbEntity
100
AcDbCircle
10
38
20
11
30
0
40
1.5
0
CIRCLE
8
0
6
BYBLOCK
62
0
5
2760
100
AcDbEntity
100
AcDbCircle
10
8.3
20
41.9
30
0
40
1.5
0
CIRCLE
8
0
6
BYBLOCK
62
0
5
2761
100
AcDbEntity
100
AcDbCircle
10
8.3
20
26.2
30
0
40
1.5
0
CIRCLE
8
0
6
BYBLOCK
62
0
5
2762
100
AcDbEntity
100
AcDbCircle
10
13
20
4.25
30
0
40
1.5
0
CIRCLE
8
0
6
BYBLOCK
62
0
5
2763
100
AcDbEntity
100
AcDbCircle
10
25
20
4.25
30
0
40
1.5
0
CIRCLE
8
0
6
BYBLOCK
62
0
5
2764
100
AcDbEntity
100
AcDbCircle
10
25
20
16.25
30
0
40
1.5
0
CIRCLE
8
0
6
BYBLOCK
62
0
5
2765
100
AcDbEntity
100
AcDbCircle
10
13
20
16.25
30
0
40
1.5
0
CIRCLE
8
0
6
BYBLOCK
62
0
5
2766
100
AcDbEntity
100
AcDbCircle
10
75
20
135
30
0
40
1.5
0
CIRCLE
8
0
6
BYBLOCK
62
0
5
2767
100
AcDbEntity
100
AcDbCircle
10
94.0881
20
134.3
30
0
40
1.5
0
CIRCLE
8
0
6
BYBLOCK
62
0
5
2768
100
AcDbEntity
100
AcDbCircle
10
153
20
126
30
0
40
1.5
0
CIRCLE
8
0
6
BYBLOCK
62
0
5
2769
100
AcDbEntity
100
AcDbCircle
10
153
20
118
30
0
40
1.5
0
CIRCLE
8
0
6
BYBLOCK
62
0
5
276a
100
AcDbEntity
100
AcDbCircle
10
201.7
20
104.3
30
0
40
1.5
0
CIRCLE
8
0
6
BYBLOCK
62
0
5
276b
100
AcDbEntity
100
AcDbCircle
10
201.7
20
119.3
30
0
40
1.5
0
CIRCLE
8
0
6
BYBLOCK
62
0
5
276c
100
AcDbEntity
100
AcDbCircle
10
188.5
20
114.5
30
0
40
1.5
0
CIRCLE
8
0
6
BYBLOCK
62
0
5
276d
100
AcDbEntity
100
AcDbCircle
10
75
20
143
30
0
40
1.5
0
CIRCLE
8
0
6
BYBLOCK
62
0
5
276e
100
AcDbEntity
100
AcDbCircle
10
57
20
126
30
0
40
1.5
0
CIRCLE
8
0
6
BYBLOCK
62
0
5
276f
100
AcDbEntity
100
AcDbCircle
10
57
20
118
30
0
40
1.5
0
CIRCLE
8
0
6
BYBLOCK
62
0
5
2770
100
AcDbEntity
100
AcDbCircle
10
8.3
20
104.3
30
0
40
1.5
0
CIRCLE
8
0
6
BYBLOCK
62
0
5
2771
100
AcDbEntity
100
AcDbCircle
10
8.3
20
119.3
30
0
40
1.5
0
CIRCLE
8
0
6
BYBLOCK
62
0
5
2772
100
AcDbEntity
100
AcDbCircle
10
21.5
20
114.5
30
0
40
1.5
0
CIRCLE
8
0
6
BYBLOCK
62
0
5
2773
100
AcDbEntity
100
AcDbCircle
10
105
20
115.4
30
0
40
1.5
0
ENDBLK
5
2774
100
AcDbEntity
8
0
100
AcDbBlockEnd
0
ENDSEC
0
SECTION
2
ENTITIES
0
INSERT
5
2775
8
0
6
BYLAYER
62
256
2
Ortho1
10
40.0
20
-43.5
30
0
41
1.0
42
1.0
43
1.0
50
-90.0000026563
0
ENDSEC
0
EOF