999
FreeCAD DXF exporter v0.16-6712 (Git)
0
SECTION
2
HEADER
9
$ACADVER
1
AC1009
0
ENDSEC
0
SECTION
2
BLOCKS
0
BLOCK
5
2711
100
AcDbEntity
8
0
100
AcDbBlockBegin
2
Ortho1
70
0
10
0
20
0
3
Ortho1
1

0
LINE
8
0
6
BYBLOCK
62
0
5
2712
100
AcDbEntity
100
AcDbLine
10
29
20
144.5
30
0
11
181
21
144.5
31
0
0
LINE
8
0
6
BYBLOCK
62
0
5
2713
100
AcDbEntity
100
AcDbLine
10
181
20
144.5
30
0
11
181
21
129.5
31
0
0
LINE
8
0
6
BYBLOCK
62
0
5
2714
100
AcDbEntity
100
AcDbLine
10
181
20
129.5
30
0
11
196
21
129.5
31
0
0
LINE
8
0
6
BYBLOCK
62
0
5
2715
100
AcDbEntity
100
AcDbLine
10
196
20
129.5
30
0
11
196
21
118.1
31
0
0
LINE
8
0
6
BYBLOCK
62
0
5
2716
100
AcDbEntity
100
AcDbLine
10
196
20
118.1
30
0
11
210
21
118.1
31
0
0
LINE
8
0
6
BYBLOCK
62
0
5
2717
100
AcDbEntity
100
AcDbLine
10
210
20
118.1
30
0
11
210
21
17.7
31
0
0
LINE
8
0
6
BYBLOCK
62
0
5
2718
100
AcDbEntity
100
AcDbLine
10
210
20
17.7
30
0
11
196
21
17.7
31
0
0
LINE
8
0
6
BYBLOCK
62
0
5
2719
100
AcDbEntity
100
AcDbLine
10
196
20
17.7
30
0
11
196
21
3.55271e-15
31
0
0
LINE
8
0
6
BYBLOCK
62
0
5
271a
100
AcDbEntity
100
AcDbLine
10
196
20
0
30
0
11
14
21
4.93038e-31
31
0
0
LINE
8
0
6
BYBLOCK
62
0
5
271b
100
AcDbEntity
100
AcDbLine
10
14
20
4.93038e-31
30
0
11
14
21
17.7
31
0
0
LINE
8
0
6
BYBLOCK
62
0
5
271c
100
AcDbEntity
100
AcDbLine
10
14
20
17.7
30
0
11
0
21
17.7
31
0
0
LINE
8
0
6
BYBLOCK
62
0
5
271d
100
AcDbEntity
100
AcDbLine
10
0
20
17.7
30
0
11
0
21
118.1
31
0
0
LINE
8
0
6
BYBLOCK
62
0
5
271e
100
AcDbEntity
100
AcDbLine
10
0
20
118.1
30
0
11
14
21
118.1
31
0
0
LINE
8
0
6
BYBLOCK
62
0
5
271f
100
AcDbEntity
100
AcDbLine
10
14
20
118.1
30
0
11
14
21
129.5
31
0
0
LINE
8
0
6
BYBLOCK
62
0
5
2720
100
AcDbEntity
100
AcDbLine
10
14
20
129.5
30
0
11
29
21
129.5
31
0
0
LINE
8
0
6
BYBLOCK
62
0
5
2721
100
AcDbEntity
100
AcDbLine
10
29
20
144.5
30
0
11
29
21
129.5
31
0
0
CIRCLE
8
0
6
BYBLOCK
62
0
5
2722
100
AcDbEntity
100
AcDbCircle
10
166
20
25
30
0
40
10
0
CIRCLE
8
0
6
BYBLOCK
62
0
5
2723
100
AcDbEntity
100
AcDbCircle
10
44
20
25
30
0
40
10
0
LINE
8
0
6
BYBLOCK
62
0
5
2724
100
AcDbEntity
100
AcDbLine
10
162
20
134.5
30
0
11
175
21
134.5
31
0
0
LINE
8
0
6
BYBLOCK
62
0
5
2725
100
AcDbEntity
100
AcDbLine
10
175
20
134.5
30
0
11
175
21
128.5
31
0
0
LINE
8
0
6
BYBLOCK
62
0
5
2726
100
AcDbEntity
100
AcDbLine
10
175
20
128.5
30
0
11
162
21
128.5
31
0
0
LINE
8
0
6
BYBLOCK
62
0
5
2727
100
AcDbEntity
100
AcDbLine
10
162
20
128.5
30
0
11
162
21
134.5
31
0
0
LINE
8
0
6
BYBLOCK
62
0
5
2728
100
AcDbEntity
100
AcDbLine
10
35
20
134.5
30
0
11
48
21
134.5
31
0
0
LINE
8
0
6
BYBLOCK
62
0
5
2729
100
AcDbEntity
100
AcDbLine
10
48
20
134.5
30
0
11
48
21
128.5
31
0
0
LINE
8
0
6
BYBLOCK
62
0
5
272a
100
AcDbEntity
100
AcDbLine
10
48
20
128.5
30
0
11
35
21
128.5
31
0
0
LINE
8
0
6
BYBLOCK
62
0
5
272b
100
AcDbEntity
100
AcDbLine
10
35
20
128.5
30
0
11
35
21
134.5
31
0
0
CIRCLE
8
0
6
BYBLOCK
62
0
5
272c
100
AcDbEntity
100
AcDbCircle
10
172
20
139.5
30
0
40
1.5
0
CIRCLE
8
0
6
BYBLOCK
62
0
5
272d
100
AcDbEntity
100
AcDbCircle
10
133
20
132.5
30
0
40
1.5
0
CIRCLE
8
0
6
BYBLOCK
62
0
5
272e
100
AcDbEntity
100
AcDbCircle
10
160
20
139.5
30
0
40
1.5
0
CIRCLE
8
0
6
BYBLOCK
62
0
5
272f
100
AcDbEntity
100
AcDbCircle
10
50
20
139.5
30
0
40
1.5
0
CIRCLE
8
0
6
BYBLOCK
62
0
5
2730
100
AcDbEntity
100
AcDbCircle
10
38
20
139.5
30
0
40
1.5
0
CIRCLE
8
0
6
BYBLOCK
62
0
5
2731
100
AcDbEntity
100
AcDbCircle
10
144
20
50
30
0
40
1.5
0
CIRCLE
8
0
6
BYBLOCK
62
0
5
2732
100
AcDbEntity
100
AcDbCircle
10
201.7
20
27.7
30
0
40
1.5
0
CIRCLE
8
0
6
BYBLOCK
62
0
5
2733
100
AcDbEntity
100
AcDbCircle
10
186
20
27.7
30
0
40
1.5
0
CIRCLE
8
0
6
BYBLOCK
62
0
5
2734
100
AcDbEntity
100
AcDbCircle
10
186
20
12
30
0
40
1.5
0
CIRCLE
8
0
6
BYBLOCK
62
0
5
2735
100
AcDbEntity
100
AcDbCircle
10
199.4
20
39.7
30
0
40
1.5
0
CIRCLE
8
0
6
BYBLOCK
62
0
5
2736
100
AcDbEntity
100
AcDbCircle
10
189
20
50
30
0
40
1.5
0
CIRCLE
8
0
6
BYBLOCK
62
0
5
2737
100
AcDbEntity
100
AcDbCircle
10
71
20
132.5
30
0
40
1.5
0
CIRCLE
8
0
6
BYBLOCK
62
0
5
2738
100
AcDbEntity
100
AcDbCircle
10
201.7
20
108.1
30
0
40
1.5
0
CIRCLE
8
0
6
BYBLOCK
62
0
5
2739
100
AcDbEntity
100
AcDbCircle
10
186
20
108.1
30
0
40
1.5
0
CIRCLE
8
0
6
BYBLOCK
62
0
5
273a
100
AcDbEntity
100
AcDbCircle
10
186
20
123.8
30
0
40
1.5
0
CIRCLE
8
0
6
BYBLOCK
62
0
5
273b
100
AcDbEntity
100
AcDbCircle
10
24
20
12
30
0
40
1.5
0
CIRCLE
8
0
6
BYBLOCK
62
0
5
273c
100
AcDbEntity
100
AcDbCircle
10
8.3
20
27.7
30
0
40
1.5
0
CIRCLE
8
0
6
BYBLOCK
62
0
5
273d
100
AcDbEntity
100
AcDbCircle
10
199.4
20
91.7
30
0
40
1.5
0
CIRCLE
8
0
6
BYBLOCK
62
0
5
273e
100
AcDbEntity
100
AcDbCircle
10
10.6
20
39.7
30
0
40
1.5
0
CIRCLE
8
0
6
BYBLOCK
62
0
5
273f
100
AcDbEntity
100
AcDbCircle
10
80
20
132.5
30
0
40
1.5
0
CIRCLE
8
0
6
BYBLOCK
62
0
5
2740
100
AcDbEntity
100
AcDbCircle
10
166.5
20
102.5
30
0
40
1.5
0
CIRCLE
8
0
6
BYBLOCK
62
0
5
2741
100
AcDbEntity
100
AcDbCircle
10
124
20
132.5
30
0
40
1.5
0
CIRCLE
8
0
6
BYBLOCK
62
0
5
2742
100
AcDbEntity
100
AcDbCircle
10
166.5
20
67.5
30
0
40
1.5
0
CIRCLE
8
0
6
BYBLOCK
62
0
5
2743
100
AcDbEntity
100
AcDbCircle
10
21
20
50
30
0
40
1.5
0
CIRCLE
8
0
6
BYBLOCK
62
0
5
2744
100
AcDbEntity
100
AcDbCircle
10
24
20
27.7
30
0
40
1.5
0
CIRCLE
8
0
6
BYBLOCK
62
0
5
2745
100
AcDbEntity
100
AcDbCircle
10
144
20
85
30
0
40
1.5
0
CIRCLE
8
0
6
BYBLOCK
62
0
5
2746
100
AcDbEntity
100
AcDbCircle
10
189
20
85
30
0
40
1.5
0
CIRCLE
8
0
6
BYBLOCK
62
0
5
2747
100
AcDbEntity
100
AcDbCircle
10
10.6
20
91.7
30
0
40
1.5
0
CIRCLE
8
0
6
BYBLOCK
62
0
5
2748
100
AcDbEntity
100
AcDbCircle
10
43.5
20
102.5
30
0
40
1.5
0
CIRCLE
8
0
6
BYBLOCK
62
0
5
2749
100
AcDbEntity
100
AcDbCircle
10
43.5
20
67.5
30
0
40
1.5
0
CIRCLE
8
0
6
BYBLOCK
62
0
5
274a
100
AcDbEntity
100
AcDbCircle
10
21
20
85
30
0
40
1.5
0
CIRCLE
8
0
6
BYBLOCK
62
0
5
274b
100
AcDbEntity
100
AcDbCircle
10
86
20
32.26
30
0
40
1.5
0
CIRCLE
8
0
6
BYBLOCK
62
0
5
274c
100
AcDbEntity
100
AcDbCircle
10
124
20
32.26
30
0
40
1.5
0
CIRCLE
8
0
6
BYBLOCK
62
0
5
274d
100
AcDbEntity
100
AcDbCircle
10
24
20
108.1
30
0
40
1.5
0
CIRCLE
8
0
6
BYBLOCK
62
0
5
274e
100
AcDbEntity
100
AcDbCircle
10
8.3
20
108.1
30
0
40
1.5
0
CIRCLE
8
0
6
BYBLOCK
62
0
5
274f
100
AcDbEntity
100
AcDbCircle
10
24
20
123.8
30
0
40
1.5
0
CIRCLE
8
0
6
BYBLOCK
62
0
5
2750
100
AcDbEntity
100
AcDbCircle
10
66
20
50
30
0
40
1.5
0
CIRCLE
8
0
6
BYBLOCK
62
0
5
2751
100
AcDbEntity
100
AcDbCircle
10
105
20
7.8
30
0
40
1.5
0
CIRCLE
8
0
6
BYBLOCK
62
0
5
2752
100
AcDbEntity
100
AcDbCircle
10
86
20
103.26
30
0
40
1.5
0
CIRCLE
8
0
6
BYBLOCK
62
0
5
2753
100
AcDbEntity
100
AcDbCircle
10
124
20
103.26
30
0
40
1.5
0
CIRCLE
8
0
6
BYBLOCK
62
0
5
2754
100
AcDbEntity
100
AcDbCircle
10
86
20
81.26
30
0
40
1.5
0
CIRCLE
8
0
6
BYBLOCK
62
0
5
2755
100
AcDbEntity
100
AcDbCircle
10
124
20
81.26
30
0
40
1.5
0
CIRCLE
8
0
6
BYBLOCK
62
0
5
2756
100
AcDbEntity
100
AcDbCircle
10
66
20
85
30
0
40
1.5
0
ENDBLK
5
2757
100
AcDbEntity
8
0
100
AcDbBlockEnd
0
ENDSEC
0
SECTION
2
ENTITIES
0
INSERT
5
2758
8
0
6
BYLAYER
62
256
2
Ortho1
10
105.0
20
-190.75
30
0
41
1.0
42
1.0
43
1.0
50
0.0
0
ENDSEC
0
EOF