999
FreeCAD DXF exporter v0.16-6712 (Git)
0
SECTION
2
HEADER
9
$ACADVER
1
AC1009
0
ENDSEC
0
SECTION
2
BLOCKS
0
BLOCK
5
2711
100
AcDbEntity
8
0
100
AcDbBlockBegin
2
Ortho1
70
0
10
0
20
0
3
Ortho1
1

0
SPLINE
8
0
6
BYBLOCK
62
0
5
2712
100
AcDbEntity
100
AcDbSpline
70
0
71
1
72
17
73
15
74
0
40
3.14159
40
3.14159
40
3.36599
40
3.59039
40
3.81479
40
4.03919
40
4.26359
40
4.48799
40
4.71239
40
4.93679
40
5.16119
40
5.38559
40
5.60999
40
5.83439
40
6.05879
40
6.28319
40
6.28319
10
43
20
-22.5
30
0
10
43
20
-21.9359
30
0
10
43
20
-20.2718
30
0
10
43
20
-17.5912
30
0
10
43
20
-14.0285
30
0
10
43
20
-9.76238
30
0
10
43
20
-5.00672
30
0
10
43
20
1.15771e-13
30
0
10
43
20
5.00672
30
0
10
43
20
9.76238
30
0
10
43
20
14.0285
30
0
10
43
20
17.5912
30
0
10
43
20
20.2718
30
0
10
43
20
21.9359
30
0
10
43
20
22.5
30
0
0
LINE
8
0
6
BYBLOCK
62
0
5
2713
100
AcDbEntity
100
AcDbLine
10
43
20
-22.5
30
0
11
46
21
-22.5
31
0
0
SPLINE
8
0
6
BYBLOCK
62
0
5
2714
100
AcDbEntity
100
AcDbSpline
70
0
71
1
72
17
73
15
74
0
40
0
40
0
40
0.224399
40
0.448799
40
0.673198
40
0.897598
40
1.122
40
1.3464
40
1.5708
40
1.7952
40
2.0196
40
2.24399
40
2.46839
40
2.69279
40
2.91719
40
3.14159
40
3.14159
10
46
20
22.5
30
0
10
46
20
21.9359
30
0
10
46
20
20.2718
30
0
10
46
20
17.5912
30
0
10
46
20
14.0285
30
0
10
46
20
9.76238
30
0
10
46
20
5.00672
30
0
10
46
20
3.63498e-14
30
0
10
46
20
-5.00672
30
0
10
46
20
-9.76238
30
0
10
46
20
-14.0285
30
0
10
46
20
-17.5912
30
0
10
46
20
-20.2718
30
0
10
46
20
-21.9359
30
0
10
46
20
-22.5
30
0
0
LINE
8
0
6
BYBLOCK
62
0
5
2715
100
AcDbEntity
100
AcDbLine
10
43
20
22.5
30
0
11
46
21
22.5
31
0
0
LINE
8
0
6
BYBLOCK
62
0
5
2716
100
AcDbEntity
100
AcDbLine
10
43
20
-22.5
30
0
11
0
21
-22.5
31
0
0
LINE
8
0
6
BYBLOCK
62
0
5
2717
100
AcDbEntity
100
AcDbLine
10
43
20
22.5
30
0
11
0
21
22.5
31
0
0
LINE
8
0
6
BYBLOCK
62
0
5
2718
100
AcDbEntity
100
AcDbLine
10
0
20
22.5
30
0
11
0
21
-22.5
31
0
0
CIRCLE
8
0
6
BYBLOCK
62
0
5
2719
100
AcDbEntity
100
AcDbCircle
10
36
20
15
30
0
40
2
0
CIRCLE
8
0
6
BYBLOCK
62
0
5
271a
100
AcDbEntity
100
AcDbCircle
10
36
20
-15
30
0
40
2
0
CIRCLE
8
0
6
BYBLOCK
62
0
5
271b
100
AcDbEntity
100
AcDbCircle
10
21
20
-15
30
0
40
2
0
CIRCLE
8
0
6
BYBLOCK
62
0
5
271c
100
AcDbEntity
100
AcDbCircle
10
21
20
15
30
0
40
2
0
CIRCLE
8
0
6
BYBLOCK
62
0
5
271d
100
AcDbEntity
100
AcDbCircle
10
6
20
15
30
0
40
2
0
CIRCLE
8
0
6
BYBLOCK
62
0
5
271e
100
AcDbEntity
100
AcDbCircle
10
6
20
-15
30
0
40
2
0
ENDBLK
5
271f
100
AcDbEntity
8
0
100
AcDbBlockEnd
0
BLOCK
5
2720
100
AcDbEntity
8
0
100
AcDbBlockBegin
2
Ortho0011
70
0
10
0
20
0
3
Ortho0011
1

0
LINE
8
0
6
BYBLOCK
62
0
5
2721
100
AcDbEntity
100
AcDbLine
10
-46
20
-22.5
30
0
11
-43
21
-22.5
31
0
0
SPLINE
8
0
6
BYBLOCK
62
0
5
2722
100
AcDbEntity
100
AcDbSpline
70
0
71
1
72
17
73
15
74
0
40
3.14159
40
3.14159
40
3.25379
40
3.36599
40
3.47819
40
3.59039
40
3.70259
40
3.81479
40
3.92699
40
4.03919
40
4.15139
40
4.26359
40
4.37579
40
4.48799
40
4.60019
40
4.71239
40
4.71239
10
-43
20
-1.57117e-13
30
0
10
-43
20
-2.5192
30
0
10
-43
20
-5.00672
30
0
10
-43
20
-7.43128
30
0
10
-43
20
-9.76238
30
0
10
-43
20
-11.9707
30
0
10
-43
20
-14.0285
30
0
10
-43
20
-15.9099
30
0
10
-43
20
-17.5912
30
0
10
-43
20
-19.0513
30
0
10
-43
20
-20.2718
30
0
10
-43
20
-21.2374
30
0
10
-43
20
-21.9359
30
0
10
-43
20
-22.3585
30
0
10
-43
20
-22.5
30
0
0
SPLINE
8
0
6
BYBLOCK
62
0
5
2723
100
AcDbEntity
100
AcDbSpline
70
0
71
1
72
17
73
15
74
0
40
1.5708
40
1.5708
40
1.683
40
1.7952
40
1.9074
40
2.0196
40
2.1318
40
2.24399
40
2.35619
40
2.46839
40
2.58059
40
2.69279
40
2.80499
40
2.91719
40
3.02939
40
3.14159
40
3.14159
10
-46
20
-22.5
30
0
10
-46
20
-22.3585
30
0
10
-46
20
-21.9359
30
0
10
-46
20
-21.2374
30
0
10
-46
20
-20.2718
30
0
10
-46
20
-19.0513
30
0
10
-46
20
-17.5912
30
0
10
-46
20
-15.9099
30
0
10
-46
20
-14.0285
30
0
10
-46
20
-11.9707
30
0
10
-46
20
-9.76238
30
0
10
-46
20
-7.43128
30
0
10
-46
20
-5.00672
30
0
10
-46
20
-2.5192
30
0
10
-46
20
-7.26995e-14
30
0
0
LINE
8
0
6
BYBLOCK
62
0
5
2724
100
AcDbEntity
100
AcDbLine
10
-43
20
-1.77636e-15
30
0
11
-43
21
29.5
31
0
0
LINE
8
0
6
BYBLOCK
62
0
5
2725
100
AcDbEntity
100
AcDbLine
10
-43
20
29.5
30
0
11
0
21
29.5
31
0
0
LINE
8
0
6
BYBLOCK
62
0
5
2726
100
AcDbEntity
100
AcDbLine
10
0
20
29.5
30
0
11
0
21
32.5
31
0
0
LINE
8
0
6
BYBLOCK
62
0
5
2727
100
AcDbEntity
100
AcDbLine
10
0
20
32.5
30
0
11
-46
21
32.5
31
0
0
LINE
8
0
6
BYBLOCK
62
0
5
2728
100
AcDbEntity
100
AcDbLine
10
-46
20
-2.75546e-15
30
0
11
-46
21
32.5
31
0
0
SPLINE
8
0
6
BYBLOCK
62
0
5
2729
100
AcDbEntity
100
AcDbSpline
70
0
71
1
72
17
73
15
74
0
40
1.5708
40
1.5708
40
1.7952
40
2.0196
40
2.24399
40
2.46839
40
2.69279
40
2.91719
40
3.14159
40
3.36599
40
3.59039
40
3.81479
40
4.03919
40
4.26359
40
4.48799
40
4.71239
40
4.71239
10
-8
20
32.5
30
0
10
-7.94986
20
32.5
30
0
10
-7.80194
20
32.5
30
0
10
-7.56366
20
32.5
30
0
10
-7.24698
20
32.5
30
0
10
-6.86777
20
32.5
30
0
10
-6.44504
20
32.5
30
0
10
-6
20
32.5
30
0
10
-5.55496
20
32.5
30
0
10
-5.13223
20
32.5
30
0
10
-4.75302
20
32.5
30
0
10
-4.43634
20
32.5
30
0
10
-4.19806
20
32.5
30
0
10
-4.05014
20
32.5
30
0
10
-4
20
32.5
30
0
0
ENDBLK
5
272a
100
AcDbEntity
8
0
100
AcDbBlockEnd
0
BLOCK
5
272b
100
AcDbEntity
8
0
100
AcDbBlockBegin
2
Ortho0021
70
0
10
0
20
0
3
Ortho0021
1

0
ARC
8
0
6
BYBLOCK
62
0
5
272c
100
AcDbEntity
100
AcDbCircle
10
0
20
0
30
0
40
22.5
100
AcDbArc
50
0
51
180
0
LINE
8
0
6
BYBLOCK
62
0
5
272d
100
AcDbEntity
100
AcDbLine
10
-22.5
20
2.75546e-15
30
0
11
-22.5
21
-32.5
31
0
0
LINE
8
0
6
BYBLOCK
62
0
5
272e
100
AcDbEntity
100
AcDbLine
10
-22.5
20
-32.5
30
0
11
22.5
21
-32.5
31
0
0
LINE
8
0
6
BYBLOCK
62
0
5
272f
100
AcDbEntity
100
AcDbLine
10
22.5
20
0
30
0
11
22.5
21
-32.5
31
0
0
CIRCLE
8
0
6
BYBLOCK
62
0
5
2730
100
AcDbEntity
100
AcDbCircle
10
0
20
-6.3
30
0
40
11
0
CIRCLE
8
0
6
BYBLOCK
62
0
5
2731
100
AcDbEntity
100
AcDbCircle
10
-9.54594
20
-15.8459
30
0
40
1.5
0
CIRCLE
8
0
6
BYBLOCK
62
0
5
2732
100
AcDbEntity
100
AcDbCircle
10
9.54594
20
-15.8459
30
0
40
1.5
0
CIRCLE
8
0
6
BYBLOCK
62
0
5
2733
100
AcDbEntity
100
AcDbCircle
10
9.54594
20
3.24594
30
0
40
1.5
0
CIRCLE
8
0
6
BYBLOCK
62
0
5
2734
100
AcDbEntity
100
AcDbCircle
10
-9.54594
20
3.24594
30
0
40
1.5
0
ENDBLK
5
2735
100
AcDbEntity
8
0
100
AcDbBlockEnd
0
ENDSEC
0
SECTION
2
ENTITIES
0
INSERT
5
2736
8
0
6
BYLAYER
62
256
2
Ortho1
10
292.916687012
20
-43.3333358765
30
0
41
1.0
42
1.0
43
1.0
50
-90.0000026563
0
INSERT
5
2737
8
0
6
BYLAYER
62
256
2
Ortho0011
10
139.583343506
20
-43.3333358765
30
0
41
1.0
42
1.0
43
1.0
50
90.0000026563
0
INSERT
5
2738
8
0
6
BYLAYER
62
256
2
Ortho0021
10
292.916687012
20
-158.916671753
30
0
41
1.0
42
1.0
43
1.0
50
0.0
0
ENDSEC
0
EOF